{
.appVersion = "1053";
customParameters = (
{
name = glyphOrder;
value = (
A,
AE,
B,
C,
D,
E,
F,
G,
H,
I,
IJ,
J,
K,
L,
M,
N,
Eng,
O,
Ohorn,
OE,
P,
Thorn,
Q,
R,
S,
Germandbls,
Schwa,
T,
U,
Uhorn,
V,
W,
X,
Y,
Z,
A.ss01,
E.ss01,
F.ss01,
G.ss01,
I.ss01,
IJ.ss01,
J.ss01,
M.ss01,
N.ss01,
Eng.ss01,
Q.ss01,
Schwa.ss01,
T.ss01,
U.ss01,
W.ss01,
Y.ss01,
Z.ss01,
a,
ae,
b,
c,
d,
e,
f,
g,
h,
i,
idotless,
ij,
j,
jdotless,
k,
kgreenlandic,
l,
m,
n,
eng,
o,
oe,
ohorn,
p,
thorn,
q,
r,
s,
germandbls,
t,
u,
uhorn,
v,
w,
x,
y,
z,
f.orig,
jdotless.orig,
a.ss01,
ae.ss01,
e.ss01,
f.ss01,
l.ss01,
oe.ss01,
t.ss01,
w.ss01,
y.ss01,
z.ss01,
a.sc,
ae.sc,
b.sc,
c.sc,
d.sc,
e.sc,
f.sc,
g.sc,
h.sc,
i.sc,
ij.sc,
j.sc,
k.sc,
l.sc,
m.sc,
n.sc,
eng.sc,
o.sc,
ohorn.sc,
oe.sc,
p.sc,
thorn.sc,
q.sc,
r.sc,
s.sc,
germandbls.sc,
schwa.sc,
t.sc,
u.sc,
uhorn.sc,
v.sc,
w.sc,
x.sc,
y.sc,
z.sc,
a.sc.ss01,
e.sc.ss01,
f.sc.ss01,
g.sc.ss01,
i.sc.ss01,
ij.sc.ss01,
j.sc.ss01,
m.sc.ss01,
n.sc.ss01,
eng.sc.ss01,
q.sc.ss01,
schwa.sc.ss01,
t.sc.ss01,
u.sc.ss01,
w.sc.ss01,
y.sc.ss01,
z.sc.ss01
);
}
);
date = "2017-08-14 18:56:15 +0000";
disablesNiceNames = 1;
familyName = Mont;
fontMaster = (
{
ascender = 742;
capHeight = 700;
descender = -194;
id = "A6C82697-316E-4547-A671-3FAC8B05BD53";
xHeight = 517;
}
);
glyphs = (
{
glyphname = A;
lastChange = "2017-08-14 18:56:15 +0000";
layers = (
{
anchors = (
{
name = bottom;
position = "{349.224, 0}";
},
{
name = ogonek;
position = "{718.454, 0}";
},
{
name = top;
position = "{349.224, 581.7}";
},
{
name = topleft;
position = "{104.473, 582.654}";
}
);
layerId = "A6C82697-316E-4547-A671-3FAC8B05BD53";
paths = (
{
closed = 1;
nodes = (
"213.508 0 LINE",
"391.925 476.781 LINE",
"302.577 476.781 LINE",
"480.993 0 LINE",
"718.454 0 LINE",
"462.246 581.7 LINE",
"236.202 581.7 LINE",
"-20.006 0 LINE"
);
},
{
closed = 1;
nodes = (
"515.2 74.273 LINE",
"457.419 234.177 LINE",
"203.685 234.177 LINE",
"145.903 74.273 LINE"
);
}
);
width = 698.44743;
}
);
unicode = 0041;
},
{
glyphname = AE;
lastChange = "2017-08-14 18:56:15 +0000";
layers = (
{
anchors = (
{
name = bottom;
position = "{543.195, 0}";
},
{
name = top;
position = "{543.195, 581.7}";
}
);
layerId = "A6C82697-316E-4547-A671-3FAC8B05BD53";
paths = (
{
closed = 1;
nodes = (
"213.508 0 LINE",
"454.268 503.381 LINE",
"316.16 414.161 LINE",
"509.372 414.161 LINE",
"509.372 581.7 LINE",
"281.495 581.7 LINE",
"-20.006 0 LINE"
);
},
{
closed = 1;
nodes = (
"509.372 75.227 LINE",
"509.372 235.131 LINE",
"194.543 235.131 LINE",
"195.947 75.227 LINE"
);
},
{
closed = 1;
nodes = (
"938.835 0 LINE",
"938.835 167.539 LINE",
"656.217 167.539 LINE",
"656.217 214.991 LINE",
"893.994 214.991 LINE",
"893.994 374.895 LINE",
"656.217 374.895 LINE",
"656.217 414.161 LINE",
"928.118 414.161 LINE",
"928.118 581.7 LINE",
"430.172 581.7 LINE",
"430.172 0 LINE"
);
}
);
width = 959.72438;
}
);
unicode = 00C6;
},
{
glyphname = B;
lastChange = "2017-08-14 18:56:15 +0000";
layers = (
{
anchors = (
{
name = bottom;
position = "{323.874, 0}";
},
{
name = top;
position = "{323.874, 581.7}";
}
);
layerId = "A6C82697-316E-4547-A671-3FAC8B05BD53";
paths = (
{
closed = 1;
nodes = (
"384.495 0 LINE",
"551.003 0 OFFCURVE",
"640.95 59.741 OFFCURVE",
"640.95 161.617 CURVE SMOOTH",
"640.95 263.493 OFFCURVE",
"550.722 324.559 OFFCURVE",
"412.543 324.559 CURVE",
"395.202 274.625 LINE",
"537.734 274.625 OFFCURVE",
"613.734 342.158 OFFCURVE",
"613.734 428.887 CURVE SMOOTH",
"613.734 515.615 OFFCURVE",
"537.734 581.7 OFFCURVE",
"367.575 581.7 CURVE SMOOTH",
"37.549 581.7 LINE",
"37.549 0 LINE"
);
},
{
closed = 1;
nodes = (
"263.593 219.763 LINE",
"364.205 219.763 LINE SMOOTH",
"394.574 219.763 OFFCURVE",
"408.987 207.8 OFFCURVE",
"408.987 187.386 CURVE SMOOTH",
"408.987 166.972 OFFCURVE",
"394.574 155.132 OFFCURVE",
"364.205 155.132 CURVE SMOOTH",
"263.593 155.132 LINE"
);
},
{
closed = 1;
nodes = (
"263.593 426.568 LINE",
"335.447 426.568 LINE SMOOTH",
"369.051 426.568 OFFCURVE",
"381.771 416.053 OFFCURVE",
"381.771 396.437 CURVE SMOOTH",
"381.771 376.821 OFFCURVE",
"369.051 366.306 OFFCURVE",
"335.447 366.306 CURVE SMOOTH",
"263.593 366.306 LINE"
);
}
);
width = 657.46889;
}
);
unicode = 0042;
},
{
glyphname = C;
lastChange = "2017-08-14 18:56:15 +0000";
layers = (
{
anchors = (
{
name = bottom;
position = "{329.385, 0}";
},
{
name = top;
position = "{355.032, 582.654}";
}
);
layerId = "A6C82697-316E-4547-A671-3FAC8B05BD53";
paths = (
{
closed = 1;
nodes = (
"630.932 107.61 CURVE",
"485.638 232.818 LINE",
"454.182 190.717 OFFCURVE",
"416.66 165.046 OFFCURVE",
"366.452 165.046 CURVE SMOOTH",
"296.885 165.046 OFFCURVE",
"252.284 212.052 OFFCURVE",
"252.284 290.85 CURVE SMOOTH",
"252.284 369.648 OFFCURVE",
"296.885 416.654 OFFCURVE",
"366.452 416.654 CURVE SMOOTH",
"416.66 416.654 OFFCURVE",
"454.182 390.86 OFFCURVE",
"485.638 348.759 CURVE",
"630.932 473.967 LINE",
"571.294 552.459 OFFCURVE",
"476.836 596.6 OFFCURVE",
"354.614 596.6 CURVE SMOOTH",
"161.456 596.6 OFFCURVE",
"20.321 471.119 OFFCURVE",
"20.321 290.85 CURVE SMOOTH",
"20.321 110.581 OFFCURVE",
"161.456 -14.9 OFFCURVE",
"354.614 -14.9 CURVE SMOOTH",
"476.836 -14.9 OFFCURVE",
"571.294 29.118 OFFCURVE"
);
}
);
width = 634.05838;
}
);
unicode = 0043;
},
{
glyphname = D;
lastChange = "2017-08-14 18:56:15 +0000";
layers = (
{
anchors = (
{
name = bottom;
position = "{300.491, 0}";
},
{
name = center;
position = "{175.119, 294.882}";
},
{
name = top;
position = "{299.22, 581.823}";
}
);
layerId = "A6C82697-316E-4547-A671-3FAC8B05BD53";
paths = (
{
closed = 1;
nodes = (
"340.654 0 LINE",
"540.443 0 OFFCURVE",
"678.475 108.672 OFFCURVE",
"678.475 290.85 CURVE SMOOTH",
"678.475 473.028 OFFCURVE",
"540.443 581.7 OFFCURVE",
"340.654 581.7 CURVE SMOOTH",
"37.549 581.7 LINE",
"37.549 0 LINE"
);
},
{
closed = 1;
nodes = (
"267.539 408.434 LINE",
"331.07 408.434 LINE SMOOTH",
"398.674 408.434 OFFCURVE",
"446.512 369.401 OFFCURVE",
"446.512 290.85 CURVE SMOOTH",
"446.512 212.299 OFFCURVE",
"398.674 173.266 OFFCURVE",
"331.07 173.266 CURVE SMOOTH",
"267.539 173.266 LINE"
);
}
);
width = 698.79599;
}
);
unicode = 0044;
},
{
glyphname = E;
lastChange = "2017-08-14 18:56:15 +0000";
layers = (
{
anchors = (
{
name = bottom;
position = "{284.557, 0}";
},
{
name = ogonek;
position = "{546.211, 0}";
},
{
name = top;
position = "{286.945, 581.7}";
},
{
name = topleft;
position = "{-14.636, 581.7}";
}
);
layerId = "A6C82697-316E-4547-A671-3FAC8B05BD53";
paths = (
{
closed = 1;
nodes = (
"546.211 0 LINE",
"546.211 167.539 LINE",
"263.593 167.539 LINE",
"263.593 214.991 LINE",
"501.37 214.991 LINE",
"501.37 374.895 LINE",
"263.593 374.895 LINE",
"263.593 414.161 LINE",
"535.494 414.161 LINE",
"535.494 581.7 LINE",
"37.549 581.7 LINE",
"37.549 0 LINE"
);
}
);
width = 567.10086;
}
);
unicode = 0045;
},
{
glyphname = F;
lastChange = "2017-08-14 18:56:15 +0000";
layers = (
{
layerId = "A6C82697-316E-4547-A671-3FAC8B05BD53";
paths = (
{
closed = 1;
nodes = (
"267.539 0 LINE",
"267.539 173.557 LINE",
"501.37 173.557 LINE",
"501.37 341.096 LINE",
"267.539 341.096 LINE",
"267.539 414.161 LINE",
"535.494 414.161 LINE",
"535.494 581.7 LINE",
"37.549 581.7 LINE",
"37.549 0 LINE"
);
}
);
width = 544.53635;
}
);
unicode = 0046;
},
{
glyphname = G;
lastChange = "2017-08-14 18:56:15 +0000";
layers = (
{
anchors = (
{
name = bottom;
position = "{347.983, 0}";
},
{
name = top;
position = "{361.794, 582.778}";
}
);
layerId = "A6C82697-316E-4547-A671-3FAC8B05BD53";
paths = (
{
closed = 1;
nodes = (
"622.197 58.935 CURVE",
"493.673 211.698 LINE",
"446.013 177.355 OFFCURVE",
"408.912 165.046 OFFCURVE",
"368.99 165.046 CURVE SMOOTH",
"296.885 165.046 OFFCURVE",
"252.284 213.961 OFFCURVE",
"252.284 290.85 CURVE SMOOTH",
"252.284 370.602 OFFCURVE",
"296.885 416.654 OFFCURVE",
"371.949 416.654 CURVE SMOOTH",
"420.75 416.654 OFFCURVE",
"460.244 394.678 OFFCURVE",
"494.66 353.531 CURVE",
"641.926 478.739 LINE",
"580.315 554.368 OFFCURVE",
"482.898 596.6 OFFCURVE",
"360.112 596.6 CURVE SMOOTH",
"161.456 596.6 OFFCURVE",
"20.321 471.119 OFFCURVE",
"20.321 290.85 CURVE SMOOTH",
"20.321 110.581 OFFCURVE",
"161.456 -14.9 OFFCURVE",
"355.18 -14.9 CURVE SMOOTH",
"443.441 -14.9 OFFCURVE",
"546.777 10.984 OFFCURVE"
);
},
{
closed = 1;
nodes = (
"622.197 341.439 LINE",
"419.978 309.847 LINE",
"422.646 55.976 LINE",
"624.866 58.935 LINE"
);
}
);
width = 649.87181;
}
);
unicode = 0047;
},
{
glyphname = H;
lastChange = "2017-08-14 18:56:15 +0000";
layers = (
{
anchors = (
{
name = bottom;
position = "{339.249, 0}";
},
{
name = center;
position = "{339.249, 483.345}";
},
{
name = top;
position = "{339.249, 581.7}";
}
);
layerId = "A6C82697-316E-4547-A671-3FAC8B05BD53";
paths = (
{
closed = 1;
nodes = (
"267.539 0 LINE",
"267.539 203.538 LINE",
"410.96 203.538 LINE",
"410.96 0 LINE",
"640.95 0 LINE",
"640.95 581.7 LINE",
"410.96 581.7 LINE",
"410.96 386.348 LINE",
"267.539 386.348 LINE",
"267.539 581.7 LINE",
"37.549 581.7 LINE",
"37.549 0 LINE"
);
}
);
width = 678.49876;
}
);
unicode = 0048;
},
{
glyphname = I;
lastChange = "2017-08-14 18:56:15 +0000";
layers = (
{
anchors = (
{
name = bottom;
position = "{152.544, 0}";
},
{
name = ogonek;
position = "{267.539, 0}";
},
{
name = top;
position = "{152.544, 581.7}";
},
{
name = topleft;
position = "{-14.636, 581.823}";
}
);
layerId = "A6C82697-316E-4547-A671-3FAC8B05BD53";
paths = (
{
closed = 1;
nodes = (
"267.539 0 LINE",
"267.539 581.7 LINE",
"37.549 581.7 LINE",
"37.549 0 LINE"
);
}
);
width = 305.0879;
}
);
unicode = 0049;
},
{
glyphname = IJ;
lastChange = "2017-08-14 18:56:15 +0000";
layers = (
{
anchors = (
{
name = top;
position = "{143.255, 581.7}";
}
);
layerId = "A6C82697-316E-4547-A671-3FAC8B05BD53";
paths = (
{
closed = 1;
nodes = (
"586.368 279.75 CURVE SMOOTH",
"586.368 581.7 LINE",
"356.378 581.7 LINE",
"356.378 267.22 LINE SMOOTH",
"356.378 197.719 OFFCURVE",
"331.673 167.909 OFFCURVE",
"266.637 167.909 CURVE SMOOTH",
"218.97 167.909 OFFCURVE",
"154.537 186.068 OFFCURVE",
"96.875 221.34 CURVE",
"13.727 63.929 LINE",
"78.153 18.99 OFFCURVE",
"170.491 -9.174 OFFCURVE",
"277.628 -9.174 CURVE SMOOTH",
"462.732 -9.174 OFFCURVE",
"586.368 94.215 OFFCURVE"
);
},
{
closed = 1;
nodes = (
"262.463 284.893 LINE",
"262.463 581.7 LINE",
"32.473 581.7 LINE",
"32.473 284.893 LINE"
);
}
);
width = 618.84053;
}
);
unicode = 0132;
},
{
glyphname = J;
lastChange = "2017-08-14 18:56:15 +0000";
layers = (
{
anchors = (
{
name = top;
position = "{254.742, 581.7}";
}
);
layerId = "A6C82697-316E-4547-A671-3FAC8B05BD53";
paths = (
{
closed = 1;
nodes = (
"466.753 233.749 CURVE SMOOTH",
"466.753 581.7 LINE",
"41.745 581.7 LINE",
"41.745 414.161 LINE",
"239.723 414.161 LINE",
"239.723 223.958 LINE SMOOTH",
"239.723 184.612 OFFCURVE",
"219.97 165.046 OFFCURVE",
"185.959 165.046 CURVE SMOOTH",
"156.757 165.046 OFFCURVE",
"130.237 179.107 OFFCURVE",
"99.075 213.82 CURVE",
"-24.236 72.141 LINE",
"27.781 14.892 OFFCURVE",
"108.278 -14.9 OFFCURVE",
"205.828 -14.9 CURVE SMOOTH",
"375.269 -14.9 OFFCURVE",
"466.753 66.669 OFFCURVE"
);
}
);
width = 499.22628;
}
);
unicode = 004A;
},
{
glyphname = K;
lastChange = "2017-08-14 18:56:15 +0000";
layers = (
{
anchors = (
{
name = bottom;
position = "{326.83, 0}";
},
{
name = top;
position = "{326.83, 581.7}";
}
);
layerId = "A6C82697-316E-4547-A671-3FAC8B05BD53";
paths = (
{
closed = 1;
nodes = (
"298.203 183.891 LINE",
"425.741 310.424 LINE",
"673.629 581.7 LINE",
"423.907 581.7 LINE",
"230.616 364.56 LINE",
"243.44 120.701 LINE"
);
},
{
closed = 1;
nodes = (
"263.593 0 LINE",
"263.593 581.7 LINE",
"37.549 581.7 LINE",
"37.549 0 LINE"
);
},
{
closed = 1;
nodes = (
"684.209 0 LINE",
"411.082 366.084 LINE",
"262.263 213.075 LINE",
"418.704 0 LINE"
);
}
);
width = 657.30138;
}
);
unicode = 004B;
},
{
glyphname = L;
lastChange = "2017-08-14 18:56:15 +0000";
layers = (
{
anchors = (
{
name = bottom;
position = "{289.483, 0}";
},
{
name = center;
position = "{152.544, 337.336}";
},
{
name = dot;
position = "{415.64, 380.465}";
},
{
name = top;
position = "{152.544, 581.7}";
},
{
name = topright;
position = "{354.628, 581.7}";
}
);
layerId = "A6C82697-316E-4547-A671-3FAC8B05BD53";
paths = (
{
closed = 1;
nodes = (
"520.691 0 LINE",
"520.691 172.311 LINE",
"267.539 172.311 LINE",
"267.539 581.7 LINE",
"37.549 581.7 LINE",
"37.549 0 LINE"
);
}
);
width = 527.17812;
}
);
unicode = 004C;
},
{
glyphname = M;
lastChange = "2017-08-14 18:56:15 +0000";
layers = (
{
anchors = (
{
name = bottom;
position = "{402.415, 0}";
},
{
name = top;
position = "{402.415, 581.7}";
}
);
layerId = "A6C82697-316E-4547-A671-3FAC8B05BD53";
paths = (
{
closed = 1;
nodes = (
"246.824 0 LINE",
"246.824 276.052 LINE",
"206.657 276.052 LINE",
"351.963 47.91 LINE",
"452.867 47.91 LINE",
"590.422 276.052 LINE",
"558.006 276.052 LINE",
"559.979 0 LINE",
"769.254 0 LINE",
"767.281 581.7 LINE",
"578.3 581.7 LINE",
"356.614 217.358 LINE",
"455.967 217.358 LINE",
"226.53 581.7 LINE",
"37.549 581.7 LINE",
"37.549 0 LINE"
);
}
);
width = 806.80311;
}
);
unicode = 004D;
},
{
glyphname = N;
lastChange = "2017-08-14 18:56:15 +0000";
layers = (
{
anchors = (
{
name = bottom;
position = "{339.249, 0}";
},
{
name = top;
position = "{339.249, 581.7}";
}
);
layerId = "A6C82697-316E-4547-A671-3FAC8B05BD53";
paths = (
{
closed = 1;
nodes = (
"261.62 0 LINE",
"261.62 323.032 LINE",
"174.386 323.032 LINE",
"451.969 0 LINE",
"640.95 0 LINE",
"640.95 581.7 LINE",
"416.878 581.7 LINE",
"416.878 258.668 LINE",
"504.113 258.668 LINE",
"226.53 581.7 LINE",
"37.549 581.7 LINE",
"37.549 0 LINE"
);
}
);
width = 678.49876;
}
);
unicode = 004E;
},
{
glyphname = Eng;
lastChange = "2017-08-14 18:56:15 +0000";
layers = (
{
layerId = "A6C82697-316E-4547-A671-3FAC8B05BD53";
paths = (
{
closed = 1;
nodes = (
"261.62 0 LINE",
"261.62 323.032 LINE",
"174.386 323.032 LINE",
"451.969 0 LINE",
"504.113 258.668 LINE",
"226.53 581.7 LINE",
"37.549 581.7 LINE",
"37.549 0 LINE"
);
},
{
closed = 1;
nodes = (
"640.95 78.261 CURVE SMOOTH",
"640.95 581.7 LINE",
"416.878 581.7 LINE",
"416.878 68.47 LINE SMOOTH",
"416.878 29.124 OFFCURVE",
"397.126 9.559 OFFCURVE",
"363.115 9.559 CURVE SMOOTH",
"348.709 9.559 OFFCURVE",
"335.013 12.167 OFFCURVE",
"317.661 20.157 CURVE",
"213.092 -133.93 LINE",
"261.164 -160.638 OFFCURVE",
"317.986 -170.388 OFFCURVE",
"382.984 -170.388 CURVE SMOOTH",
"552.424 -170.388 OFFCURVE",
"640.95 -88.819 OFFCURVE"
);
}
);
width = 678.49876;
}
);
unicode = 014A;
},
{
glyphname = O;
lastChange = "2017-08-14 18:56:15 +0000";
layers = (
{
anchors = (
{
name = bottom;
position = "{359.547, 0}";
},
{
name = center;
position = "{359.547, 290.85}";
},
{
name = ogonek;
position = "{473.716, 0}";
},
{
name = top;
position = "{359.547, 581.7}";
},
{
name = topleft;
position = "{25.253, 581.7}";
},
{
name = topright;
position = "{488.326, 581.7}";
}
);
layerId = "A6C82697-316E-4547-A671-3FAC8B05BD53";
paths = (
{
closed = 1;
nodes = (
"698.772 290.85 CURVE SMOOTH",
"698.772 468.256 OFFCURVE",
"555.665 596.6 OFFCURVE",
"359.547 596.6 CURVE SMOOTH",
"163.429 596.6 OFFCURVE",
"20.321 468.256 OFFCURVE",
"20.321 290.85 CURVE SMOOTH",
"20.321 113.444 OFFCURVE",
"163.429 -14.9 OFFCURVE",
"359.547 -14.9 CURVE SMOOTH",
"555.665 -14.9 OFFCURVE",
"698.772 113.444 OFFCURVE"
);
},
{
closed = 1;
nodes = (
"252.284 290.85 CURVE SMOOTH",
"252.284 371.31 OFFCURVE",
"300.831 416.654 OFFCURVE",
"359.547 416.654 CURVE SMOOTH",
"418.262 416.654 OFFCURVE",
"466.809 371.31 OFFCURVE",
"466.809 290.85 CURVE SMOOTH",
"466.809 210.39 OFFCURVE",
"418.262 165.046 OFFCURVE",
"359.547 165.046 CURVE SMOOTH",
"300.831 165.046 OFFCURVE",
"252.284 210.39 OFFCURVE"
);
}
);
width = 719.09322;
}
);
unicode = 004F;
},
{
glyphname = Ohorn;
lastChange = "2017-08-14 18:56:15 +0000";
layers = (
{
anchors = (
{
name = bottom;
position = "{359.547, 0}";
},
{
name = top;
position = "{359.547, 581.7}";
}
);
layerId = "A6C82697-316E-4547-A671-3FAC8B05BD53";
paths = (
{
closed = 1;
nodes = (
"698.772 290.85 CURVE SMOOTH",
"698.772 384.836 OFFCURVE",
"660.394 460.663 OFFCURVE",
"597.763 512.588 CURVE",
"343.116 470.964 LINE",
"393.297 464.9 OFFCURVE",
"442.779 455.727 OFFCURVE",
"503.808 455.727 CURVE SMOOTH",
"631.664 455.727 OFFCURVE",
"712.432 517.385 OFFCURVE",
"712.432 622.567 CURVE SMOOTH",
"712.432 662.307 OFFCURVE",
"699.886 694.165 OFFCURVE",
"679.023 719.374 CURVE",
"535.559 677.413 LINE",
"545.851 666.396 OFFCURVE",
"552.479 649.069 OFFCURVE",
"552.479 631.28 CURVE SMOOTH",
"552.479 602.755 OFFCURVE",
"530.901 586.044 OFFCURVE",
"501.835 586.044 CURVE SMOOTH",
"470.66 586.044 OFFCURVE",
"427.37 596.6 OFFCURVE",
"369.411 596.6 CURVE SMOOTH",
"163.429 596.6 OFFCURVE",
"20.321 468.256 OFFCURVE",
"20.321 290.85 CURVE SMOOTH",
"20.321 113.444 OFFCURVE",
"163.429 -14.9 OFFCURVE",
"359.547 -14.9 CURVE SMOOTH",
"555.665 -14.9 OFFCURVE",
"698.772 113.444 OFFCURVE"
);
},
{
closed = 1;
nodes = (
"252.284 290.85 CURVE SMOOTH",
"252.284 371.557 OFFCURVE",
"300.831 416.654 OFFCURVE",
"359.547 416.654 CURVE SMOOTH",
"418.262 416.654 OFFCURVE",
"466.809 371.557 OFFCURVE",
"466.809 290.85 CURVE SMOOTH",
"466.809 210.143 OFFCURVE",
"418.262 165.046 OFFCURVE",
"359.547 165.046 CURVE SMOOTH",
"300.831 165.046 OFFCURVE",
"252.284 210.143 OFFCURVE"
);
}
);
width = 719.09322;
}
);
unicode = 01A0;
},
{
glyphname = OE;
lastChange = "2017-08-14 18:56:15 +0000";
layers = (
{
anchors = (
{
name = bottom;
position = "{557.761, 0}";
},
{
name = top;
position = "{557.761, 581.7}";
}
);
layerId = "A6C82697-316E-4547-A671-3FAC8B05BD53";
paths = (
{
closed = 1;
nodes = (
"503.082 0 LINE",
"503.082 173.266 LINE",
"368.007 173.266 LINE SMOOTH",
"299.981 173.266 OFFCURVE",
"252.284 212.422 OFFCURVE",
"252.284 290.973 CURVE SMOOTH",
"252.284 369.525 OFFCURVE",
"299.981 408.434 OFFCURVE",
"368.007 408.434 CURVE SMOOTH",
"503.082 408.434 LINE",
"503.082 581.7 LINE",
"358.142 581.7 LINE SMOOTH",
"158.212 581.7 OFFCURVE",
"20.321 473.151 OFFCURVE",
"20.321 290.973 CURVE SMOOTH",
"20.321 108.795 OFFCURVE",
"158.212 0 OFFCURVE",
"358.142 0 CURVE SMOOTH"
);
},
{
closed = 1;
nodes = (
"953.401 0 LINE",
"953.401 167.539 LINE",
"670.783 167.539 LINE",
"670.783 214.991 LINE",
"908.56 214.991 LINE",
"908.56 374.895 LINE",
"670.783 374.895 LINE",
"670.783 414.161 LINE",
"942.684 414.161 LINE",
"942.684 581.7 LINE",
"444.739 581.7 LINE",
"444.739 0 LINE"
);
}
);
width = 974.29081;
}
);
unicode = 0152;
},
{
glyphname = P;
lastChange = "2017-08-14 18:56:15 +0000";
layers = (
{
layerId = "A6C82697-316E-4547-A671-3FAC8B05BD53";
paths = (
{
closed = 1;
nodes = (
"267.539 0 LINE",
"267.539 229.825 LINE",
"165.227 134.541 LINE",
"336.694 134.541 LINE SMOOTH",
"504.894 134.541 OFFCURVE",
"612.748 221.4 OFFCURVE",
"612.748 358.12 CURVE SMOOTH",
"612.748 494.84 OFFCURVE",
"504.894 581.7 OFFCURVE",
"336.694 581.7 CURVE SMOOTH",
"37.549 581.7 LINE",
"37.549 0 LINE"
);
},
{
closed = 1;
nodes = (
"267.539 511.477 LINE",
"165.227 410.343 LINE",
"321.617 410.343 LINE SMOOTH",
"362.704 410.343 OFFCURVE",
"380.785 390.259 OFFCURVE",
"380.785 358.12 CURVE SMOOTH",
"380.785 325.982 OFFCURVE",
"362.704 305.897 OFFCURVE",
"321.617 305.897 CURVE SMOOTH",
"165.227 305.897 LINE",
"267.539 204.763 LINE"
);
}
);
width = 633.21238;
}
);
unicode = 0050;
},
{
glyphname = Thorn;
lastChange = "2017-08-14 18:56:15 +0000";
layers = (
{
layerId = "A6C82697-316E-4547-A671-3FAC8B05BD53";
paths = (
{
closed = 1;
nodes = (
"336.694 83.059 LINE",
"504.894 83.059 OFFCURVE",
"612.748 169.919 OFFCURVE",
"612.748 306.639 CURVE SMOOTH",
"612.748 443.359 OFFCURVE",
"504.894 530.219 OFFCURVE",
"336.694 530.219 CURVE SMOOTH",
"221.454 530.219 LINE",
"221.454 358.862 LINE",
"321.617 358.862 LINE SMOOTH",
"362.704 358.862 OFFCURVE",
"380.785 338.777 OFFCURVE",
"380.785 306.639 CURVE SMOOTH",
"380.785 274.5 OFFCURVE",
"362.704 254.416 OFFCURVE",
"321.617 254.416 CURVE SMOOTH",
"221.454 254.416 LINE",
"221.454 83.059 LINE"
);
},
{
closed = 1;
nodes = (
"267.539 0 LINE",
"267.539 582.778 LINE",
"37.549 582.778 LINE",
"37.549 0 LINE"
);
}
);
width = 633.21238;
}
);
unicode = 00DE;
},
{
glyphname = Q;
lastChange = "2017-08-14 18:56:15 +0000";
layers = (
{
anchors = (
{
name = top;
position = "{360.533, 581.7}";
}
);
layerId = "A6C82697-316E-4547-A671-3FAC8B05BD53";
paths = (
{
closed = 1;
nodes = (
"698.772 290.85 CURVE SMOOTH",
"698.772 468.256 OFFCURVE",
"555.665 596.6 OFFCURVE",
"359.547 596.6 CURVE SMOOTH",
"163.429 596.6 OFFCURVE",
"20.321 468.256 OFFCURVE",
"20.321 290.85 CURVE SMOOTH",
"20.321 113.444 OFFCURVE",
"163.429 -14.9 OFFCURVE",
"359.547 -14.9 CURVE SMOOTH",
"555.665 -14.9 OFFCURVE",
"698.772 113.444 OFFCURVE"
);
},
{
closed = 1;
nodes = (
"732.044 -78.064 CURVE",
"633.393 34.737 LINE",
"610.404 12.982 OFFCURVE",
"583.466 0.55 OFFCURVE",
"558.072 0.55 CURVE SMOOTH",
"525.49 0.55 OFFCURVE",
"512.07 13.994 OFFCURVE",
"475.257 75.365 CURVE",
"238.218 18.718 LINE",
"364.523 -116.446 OFFCURVE",
"432.902 -153.627 OFFCURVE",
"553.14 -153.627 CURVE SMOOTH",
"627.153 -153.627 OFFCURVE",
"689.466 -127.249 OFFCURVE"
);
},
{
closed = 1;
nodes = (
"252.284 290.85 CURVE SMOOTH",
"252.284 371.557 OFFCURVE",
"300.831 416.654 OFFCURVE",
"359.547 416.654 CURVE SMOOTH",
"418.262 416.654 OFFCURVE",
"466.809 371.557 OFFCURVE",
"466.809 290.85 CURVE SMOOTH",
"466.809 210.143 OFFCURVE",
"418.262 165.046 OFFCURVE",
"359.547 165.046 CURVE SMOOTH",
"300.831 165.046 OFFCURVE",
"252.284 210.143 OFFCURVE"
);
}
);
width = 719.09322;
}
);
unicode = 0051;
},
{
glyphname = R;
lastChange = "2017-08-14 18:56:15 +0000";
layers = (
{
anchors = (
{
name = bottom;
position = "{322.46, 0}";
},
{
name = top;
position = "{322.46, 581.7}";
}
);
layerId = "A6C82697-316E-4547-A671-3FAC8B05BD53";
paths = (
{
closed = 1;
nodes = (
"267.539 0 LINE",
"263.593 229.825 LINE",
"165.227 138.358 LINE",
"336.694 138.358 LINE SMOOTH",
"504.894 138.358 OFFCURVE",
"612.748 221.4 OFFCURVE",
"612.748 358.12 CURVE SMOOTH",
"612.748 494.84 OFFCURVE",
"504.894 581.7 OFFCURVE",
"336.694 581.7 CURVE SMOOTH",
"37.549 581.7 LINE",
"37.549 0 LINE"
);
},
{
closed = 1;
nodes = (
"626.14 0 LINE",
"480.2 212.028 LINE",
"237.102 212.028 LINE",
"381.069 0 LINE"
);
},
{
closed = 1;
nodes = (
"267.539 511.477 LINE",
"165.227 410.343 LINE",
"321.617 410.343 LINE SMOOTH",
"362.704 410.343 OFFCURVE",
"380.785 390.259 OFFCURVE",
"380.785 358.12 CURVE SMOOTH",
"380.785 325.982 OFFCURVE",
"362.704 305.897 OFFCURVE",
"321.617 305.897 CURVE SMOOTH",
"165.227 305.897 LINE",
"263.593 204.763 LINE"
);
}
);
width = 634.34263;
}
);
unicode = 0052;
},
{
glyphname = S;
lastChange = "2017-08-14 18:56:15 +0000";
layers = (
{
anchors = (
{
name = bottom;
position = "{279.879, 0}";
},
{
name = top;
position = "{279.879, 581.7}";
}
);
layerId = "A6C82697-316E-4547-A671-3FAC8B05BD53";
paths = (
{
closed = 1;
nodes = (
"559.008 188.743 CURVE SMOOTH",
"559.008 403.758 OFFCURVE",
"239.751 353.61 OFFCURVE",
"239.751 404.656 CURVE SMOOTH",
"239.751 416.826 OFFCURVE",
"251.903 427.152 OFFCURVE",
"299.323 427.152 CURVE SMOOTH",
"350.648 427.152 OFFCURVE",
"404.655 413.395 OFFCURVE",
"464.855 385.051 CURVE",
"533.347 546.279 LINE",
"468.5 580.597 OFFCURVE",
"383.629 596.6 OFFCURVE",
"301.437 596.6 CURVE SMOOTH",
"110.411 596.6 OFFCURVE",
"12.72 505.799 OFFCURVE",
"12.72 393.08 CURVE SMOOTH",
"12.72 175.819 OFFCURVE",
"331.977 226.552 OFFCURVE",
"331.977 171.564 CURVE SMOOTH",
"331.977 159.271 OFFCURVE",
"317.852 154.548 OFFCURVE",
"273.107 154.548 CURVE SMOOTH",
"210.915 154.548 OFFCURVE",
"136.607 173.348 OFFCURVE",
"77.681 204.153 CURVE",
"4.678 41.6 LINE",
"67.128 7.718 OFFCURVE",
"169.906 -14.9 OFFCURVE",
"270.994 -14.9 CURVE SMOOTH",
"461.738 -14.9 OFFCURVE",
"559.008 78.056 OFFCURVE"
);
}
);
width = 563.68641;
}
);
unicode = 0053;
},
{
glyphname = Germandbls;
lastChange = "2017-08-14 18:56:15 +0000";
layers = (
{
layerId = "A6C82697-316E-4547-A671-3FAC8B05BD53";
paths = (
{
closed = 1;
nodes = (
"666.453 177.686 CURVE SMOOTH",
"666.453 298.37 OFFCURVE",
"553.675 370.148 OFFCURVE",
"436.506 370.148 CURVE SMOOTH",
"411.691 370.148 OFFCURVE",
"391.948 367.655 OFFCURVE",
"374.604 363.87 CURVE",
"461.27 248.667 LINE",
"602.024 415.995 LINE",
"602.024 542.865 LINE",
"543.797 577.026 OFFCURVE",
"443.849 597.094 OFFCURVE",
"369.26 597.094 CURVE SMOOTH",
"152.304 597.094 OFFCURVE",
"32.473 485.979 OFFCURVE",
"32.473 310.136 CURVE SMOOTH",
"32.473 0 LINE",
"262.463 0 LINE",
"262.463 305.611 LINE SMOOTH",
"262.463 381.735 OFFCURVE",
"297.878 427.646 OFFCURVE",
"372.22 427.646 CURVE SMOOTH",
"425.668 427.646 OFFCURVE",
"466.146 411.857 OFFCURVE",
"510.138 388.901 CURVE",
"494.92 528.672 LINE",
"300.19 300.419 LINE",
"338.664 211.725 LINE",
"351.782 216.464 OFFCURVE",
"368.849 219.788 OFFCURVE",
"387.043 219.788 CURVE SMOOTH",
"421.064 219.788 OFFCURVE",
"434.49 208.104 OFFCURVE",
"434.49 192.002 CURVE SMOOTH",
"434.49 175.776 OFFCURVE",
"420.924 164.092 OFFCURVE",
"383.522 164.092 CURVE SMOOTH",
"363.91 164.092 OFFCURVE",
"336.41 170.616 OFFCURVE",
"318.072 178.77 CURVE",
"287.63 3.596 LINE",
"322.175 -8.376 OFFCURVE",
"366.161 -14.9 OFFCURVE",
"422.98 -14.9 CURVE SMOOTH",
"555.507 -14.9 OFFCURVE",
"666.453 57.002 OFFCURVE"
);
}
);
width = 682.9724;
}
);
},
{
glyphname = Schwa;
lastChange = "2017-08-14 18:56:15 +0000";
layers = (
{
anchors = (
{
name = bottom;
position = "{346.014, 0}";
},
{
name = top;
position = "{346.014, 581.7}";
}
);
layerId = "A6C82697-316E-4547-A671-3FAC8B05BD53";
paths = (
{
closed = 1;
nodes = (
"671.988 290.727 CURVE SMOOTH",
"671.988 471.119 OFFCURVE",
"530.853 596.6 OFFCURVE",
"327.83 596.6 CURVE SMOOTH",
"215.754 596.6 OFFCURVE",
"102.413 544.7 OFFCURVE",
"46.156 483.017 CURVE",
"181.726 348.388 LINE",
"214.733 390.86 OFFCURVE",
"283.821 416.654 OFFCURVE",
"325.857 416.654 CURVE SMOOTH",
"395.564 416.654 OFFCURVE",
"440.025 369.648 OFFCURVE",
"440.025 300.271 CURVE SMOOTH",
"440.025 254.706 LINE SMOOTH",
"440.025 185.205 OFFCURVE",
"413.741 147.867 OFFCURVE",
"346.154 147.867 CURVE SMOOTH",
"279.972 147.867 OFFCURVE",
"252.284 185.329 OFFCURVE",
"252.284 254.583 CURVE",
"178.438 199.383 LINE",
"463.984 199.383 LINE",
"463.984 335.427 LINE",
"20.321 335.427 LINE",
"20.321 300.394 LINE SMOOTH",
"20.321 108.672 OFFCURVE",
"152.434 -14.9 OFFCURVE",
"346.154 -14.9 CURVE SMOOTH",
"534.939 -14.9 OFFCURVE",
"671.988 107.561 OFFCURVE"
);
}
);
width = 692.30886;
}
);
},
{
glyphname = T;
lastChange = "2017-08-14 18:56:15 +0000";
layers = (
{
anchors = (
{
name = bottom;
position = "{284.085, 0}";
},
{
name = center;
position = "{284.085, 256.705}";
},
{
name = top;
position = "{284.085, 581.7}";
}
);
layerId = "A6C82697-316E-4547-A671-3FAC8B05BD53";
paths = (
{
closed = 1;
nodes = (
"399.08 0 LINE",
"399.08 409.389 LINE",
"564.786 409.389 LINE",
"564.786 581.7 LINE",
"3.384 581.7 LINE",
"3.384 409.389 LINE",
"169.09 409.389 LINE",
"169.09 0 LINE"
);
}
);
width = 568.1702;
}
);
unicode = 0054;
},
{
glyphname = U;
lastChange = "2017-08-14 18:56:15 +0000";
layers = (
{
anchors = (
{
name = bottom;
position = "{332.903, 0}";
},
{
name = ogonek;
position = "{529.716, 0}";
},
{
name = top;
position = "{332.903, 581.7}";
},
{
name = topright;
position = "{536.946, 581.7}";
}
);
layerId = "A6C82697-316E-4547-A671-3FAC8B05BD53";
paths = (
{
closed = 1;
nodes = (
"629.387 264.48 CURVE SMOOTH",
"629.387 581.7 LINE",
"403.342 581.7 LINE",
"403.342 271.037 LINE SMOOTH",
"403.342 191.993 OFFCURVE",
"375.678 165.046 OFFCURVE",
"332.903 165.046 CURVE SMOOTH",
"290.127 165.046 OFFCURVE",
"262.463 191.993 OFFCURVE",
"262.463 271.037 CURVE SMOOTH",
"262.463 581.7 LINE",
"32.473 581.7 LINE",
"32.473 264.48 LINE SMOOTH",
"32.473 88.489 OFFCURVE",
"142.299 -14.9 OFFCURVE",
"330.93 -14.9 CURVE SMOOTH",
"519.561 -14.9 OFFCURVE",
"629.387 88.489 OFFCURVE"
);
}
);
width = 661.85963;
}
);
unicode = 0055;
},
{
glyphname = V;
lastChange = "2017-08-14 18:56:15 +0000";
layers = (
{
layerId = "A6C82697-316E-4547-A671-3FAC8B05BD53";
paths = (
{
closed = 1;
nodes = (
"453.646 0 LINE",
"701.393 581.7 LINE",
"475.77 581.7 LINE",
"274.248 102.056 LINE",
"421.795 102.056 LINE",
"227.178 581.7 LINE",
"-20.147 581.7 LINE",
"227.601 0 LINE"
);
}
);
width = 681.24656;
}
);
unicode = 0056;
},
{
glyphname = W;
lastChange = "2017-08-14 18:56:15 +0000";
layers = (
{
anchors = (
{
name = bottom;
position = "{538.159, 0}";
},
{
name = top;
position = "{538.159, 581.7}";
}
);
layerId = "A6C82697-316E-4547-A671-3FAC8B05BD53";
paths = (
{
closed = 1;
nodes = (
"448.275 0 LINE",
"575.363 378.264 LINE",
"508.847 378.264 LINE",
"628.043 0 LINE",
"874.803 0 LINE",
"1070.52 581.7 LINE",
"849.548 581.7 LINE",
"687.514 102.056 LINE",
"807.441 102.056 LINE",
"656.114 581.7 LINE",
"438.947 581.7 LINE",
"274.796 102.056 LINE",
"399.515 102.056 LINE",
"245.372 581.7 LINE",
"5.798 581.7 LINE",
"201.516 0 LINE"
);
}
);
width = 1076.3184;
}
);
unicode = 0057;
},
{
glyphname = X;
lastChange = "2017-08-14 18:56:15 +0000";
layers = (
{
layerId = "A6C82697-316E-4547-A671-3FAC8B05BD53";
paths = (
{
closed = 1;
nodes = (
"250.578 0 LINE",
"383.17 217.238 LINE",
"276.491 216.283 LINE",
"413.029 0 LINE",
"675.856 0 LINE",
"401.916 378.589 LINE",
"401.916 223.055 LINE",
"663.868 581.7 LINE",
"416.684 581.7 LINE",
"281.283 372.954 LINE",
"391.908 373.908 LINE",
"252.561 581.7 LINE",
"-5.333 581.7 LINE",
"256.198 214.959 LINE",
"257.184 370.461 LINE",
"-11.402 0 LINE"
);
}
);
width = 664.45346;
}
);
unicode = 0058;
},
{
glyphname = Y;
lastChange = "2017-08-14 18:56:15 +0000";
layers = (
{
anchors = (
{
name = bottom;
position = "{332.732, 0}";
},
{
name = top;
position = "{332.732, 581.7}";
}
);
layerId = "A6C82697-316E-4547-A671-3FAC8B05BD53";
paths = (
{
closed = 1;
nodes = (
"447.727 0 LINE",
"447.727 221.218 LINE",
"397.134 88.498 LINE",
"693.502 581.7 LINE",
"468.865 581.7 LINE",
"268.189 248.863 LINE",
"416.017 248.863 LINE",
"217.314 581.7 LINE",
"-28.038 581.7 LINE",
"270.302 88.498 LINE",
"217.737 221.218 LINE",
"217.737 0 LINE"
);
}
);
width = 665.46359;
}
);
unicode = 0059;
},
{
glyphname = Z;
lastChange = "2017-08-14 18:56:15 +0000";
layers = (
{
anchors = (
{
name = bottom;
position = "{302.152, 0}";
},
{
name = top;
position = "{303.557, 581.7}";
}
);
layerId = "A6C82697-316E-4547-A671-3FAC8B05BD53";
paths = (
{
closed = 1;
nodes = (
"581.583 0 LINE",
"581.583 172.311 LINE",
"226.633 172.311 LINE",
"255.099 94.914 LINE",
"567.204 446.117 LINE",
"567.204 582.654 LINE",
"33.706 582.654 LINE",
"33.706 410.343 LINE",
"365.115 410.343 LINE",
"336.649 487.74 LINE",
"24.544 136.537 LINE",
"24.544 0 LINE"
);
}
);
width = 587.94292;
}
);
unicode = 005A;
},
{
glyphname = A.ss01;
lastChange = "2017-08-14 18:56:15 +0000";
layers = (
{
anchors = (
{
name = bottom;
position = "{334.173, 0}";
},
{
name = ogonek;
position = "{635.874, 0}";
},
{
name = top;
position = "{334.173, 581.7}";
},
{
name = topleft;
position = "{37.529, 581.7}";
}
);
layerId = "A6C82697-316E-4547-A671-3FAC8B05BD53";
paths = (
{
closed = 1;
nodes = (
"262.463 0 LINE",
"262.463 324.609 LINE SMOOTH",
"262.463 387.799 OFFCURVE",
"293.371 416.654 OFFCURVE",
"334.173 416.654 CURVE SMOOTH",
"374.976 416.654 OFFCURVE",
"405.884 387.799 OFFCURVE",
"405.884 324.609 CURVE SMOOTH",
"405.884 0 LINE",
"635.874 0 LINE",
"635.874 305.767 LINE SMOOTH",
"635.874 490.348 OFFCURVE",
"511.953 596.6 OFFCURVE",
"334.173 596.6 CURVE SMOOTH",
"156.393 596.6 OFFCURVE",
"32.473 490.348 OFFCURVE",
"32.473 305.767 CURVE SMOOTH",
"32.473 0 LINE"
);
},
{
closed = 1;
nodes = (
"487.48 106.065 LINE",
"487.48 273.604 LINE",
"176.499 273.604 LINE",
"176.499 106.065 LINE"
);
}
);
width = 668.34676;
}
);
},
{
glyphname = E.ss01;
lastChange = "2017-08-14 18:56:15 +0000";
layers = (
{
anchors = (
{
name = bottom;
position = "{322.727, 0}";
},
{
name = ogonek;
position = "{557.186, 0}";
},
{
name = top;
position = "{322.727, 581.7}";
},
{
name = topleft;
position = "{-12.509, 581.7}";
}
);
layerId = "A6C82697-316E-4547-A671-3FAC8B05BD53";
paths = (
{
closed = 1;
nodes = (
"596.797 32.549 CURVE",
"530.84 194.148 LINE",
"476.843 169.563 OFFCURVE",
"403.803 154.548 OFFCURVE",
"350.906 154.548 CURVE SMOOTH",
"275.013 154.548 OFFCURVE",
"248.482 167.03 OFFCURVE",
"248.482 185.23 CURVE SMOOTH",
"248.482 199.334 OFFCURVE",
"259.236 211.174 OFFCURVE",
"294.388 211.174 CURVE SMOOTH",
"489.499 211.174 LINE",
"489.499 374.895 LINE",
"310.311 374.895 LINE SMOOTH",
"278.547 374.895 OFFCURVE",
"272.876 384.21 OFFCURVE",
"272.876 396.807 CURVE SMOOTH",
"272.876 415.871 OFFCURVE",
"298.841 427.152 OFFCURVE",
"362.609 427.152 CURVE SMOOTH",
"411.968 427.152 OFFCURVE",
"462.31 419.122 OFFCURVE",
"520.116 397.919 CURVE",
"581.843 560.102 LINE",
"520.376 582.136 OFFCURVE",
"438.04 596.6 OFFCURVE",
"353.872 596.6 CURVE SMOOTH",
"136.778 596.6 OFFCURVE",
"40.913 507.461 OFFCURVE",
"40.913 411 CURVE SMOOTH",
"40.913 339.015 OFFCURVE",
"97.458 274.749 OFFCURVE",
"219.275 274.749 CURVE",
"214.904 322.773 LINE",
"87.309 322.773 OFFCURVE",
"16.519 253.949 OFFCURVE",
"16.519 170.083 CURVE SMOOTH",
"16.519 62.202 OFFCURVE",
"127.606 -14.9 OFFCURVE",
"342.168 -14.9 CURVE SMOOTH",
"434.385 -14.9 OFFCURVE",
"531.244 3.686 OFFCURVE"
);
}
);
width = 599.3453;
}
);
},
{
glyphname = F.ss01;
lastChange = "2017-08-14 18:56:15 +0000";
layers = (
{
layerId = "A6C82697-316E-4547-A671-3FAC8B05BD53";
paths = (
{
closed = 1;
nodes = (
"262.463 0 LINE",
"262.463 327.423 LINE SMOOTH",
"262.463 390.843 OFFCURVE",
"303.927 416.654 OFFCURVE",
"369.952 416.654 CURVE SMOOTH",
"395.072 416.654 OFFCURVE",
"430.193 410.162 OFFCURVE",
"461.361 395.179 CURVE",
"526.613 563.089 LINE",
"483.748 583.674 OFFCURVE",
"419.877 596.6 OFFCURVE",
"350.224 596.6 CURVE SMOOTH",
"149.756 596.6 OFFCURVE",
"32.473 499.859 OFFCURVE",
"32.473 322.281 CURVE SMOOTH",
"32.473 0 LINE"
);
},
{
closed = 1;
nodes = (
"456.121 173.557 LINE",
"456.121 341.096 LINE",
"173.259 341.096 LINE",
"173.259 173.557 LINE"
);
}
);
width = 532.96307;
}
);
},
{
glyphname = G.ss01;
lastChange = "2017-08-14 18:56:15 +0000";
layers = (
{
anchors = (
{
name = bottom;
position = "{347.983, 2.863}";
},
{
name = top;
position = "{361.794, 582.654}";
}
);
layerId = "A6C82697-316E-4547-A671-3FAC8B05BD53";
paths = (
{
closed = 1;
nodes = (
"561.741 168.165 CURVE",
"464.08 224.747 LINE",
"446.715 182.094 OFFCURVE",
"403.127 161.229 OFFCURVE",
"353.059 161.229 CURVE SMOOTH",
"294.779 161.229 OFFCURVE",
"252.284 194.601 OFFCURVE",
"252.284 279.397 CURVE SMOOTH",
"252.284 366.785 OFFCURVE",
"296.885 412.836 OFFCURVE",
"371.949 412.836 CURVE SMOOTH",
"420.75 412.836 OFFCURVE",
"460.244 390.86 OFFCURVE",
"494.66 349.713 CURVE",
"641.926 474.921 LINE",
"580.315 550.55 OFFCURVE",
"482.898 592.783 OFFCURVE",
"360.112 592.783 CURVE SMOOTH",
"161.456 592.783 OFFCURVE",
"20.321 467.302 OFFCURVE",
"20.321 279.397 CURVE SMOOTH",
"20.321 89.806 OFFCURVE",
"152.728 -14.9 OFFCURVE",
"320.507 -14.9 CURVE SMOOTH",
"439.064 -14.9 OFFCURVE",
"523.801 34.597 OFFCURVE"
);
},
{
closed = 1;
nodes = (
"622.197 0 LINE",
"622.197 306.03 LINE",
"422.646 306.03 LINE",
"422.646 97.416 LINE",
"472.955 74.05 LINE",
"472.955 0 LINE"
);
}
);
width = 649.87181;
}
);
},
{
glyphname = I.ss01;
lastChange = "2017-08-14 18:56:15 +0000";
layers = (
{
anchors = (
{
name = bottom;
position = "{224.868, 0}";
},
{
name = ogonek;
position = "{339.864, 0}";
},
{
name = top;
position = "{224.868, 581.7}";
},
{
name = topleft;
position = "{-20.712, 581.7}";
}
);
layerId = "A6C82697-316E-4547-A671-3FAC8B05BD53";
paths = (
{
closed = 1;
nodes = (
"339.864 17.854 LINE",
"339.864 564.8 LINE",
"109.873 564.8 LINE",
"109.873 17.854 LINE"
);
},
{
closed = 1;
nodes = (
"421.812 0 LINE",
"421.812 167.539 LINE",
"27.925 167.539 LINE",
"27.925 0 LINE"
);
},
{
closed = 1;
nodes = (
"421.812 414.161 LINE",
"421.812 581.7 LINE",
"27.925 581.7 LINE",
"27.925 414.161 LINE"
);
}
);
width = 449.73697;
}
);
},
{
glyphname = IJ.ss01;
lastChange = "2017-08-14 18:56:15 +0000";
layers = (
{
anchors = (
{
name = top;
position = "{143.255, 581.7}";
}
);
layerId = "A6C82697-316E-4547-A671-3FAC8B05BD53";
paths = (
{
closed = 1;
nodes = (
"586.368 196.65 CURVE SMOOTH",
"586.368 581.7 LINE",
"356.378 581.7 LINE",
"356.378 184.12 LINE SMOOTH",
"356.378 114.619 OFFCURVE",
"331.673 84.809 OFFCURVE",
"266.637 84.809 CURVE SMOOTH",
"218.97 84.809 OFFCURVE",
"154.537 102.968 OFFCURVE",
"96.875 138.24 CURVE",
"13.727 -19.171 LINE",
"78.153 -64.11 OFFCURVE",
"170.491 -92.274 OFFCURVE",
"277.628 -92.274 CURVE SMOOTH",
"462.732 -92.274 OFFCURVE",
"586.368 11.115 OFFCURVE"
);
},
{
closed = 1;
nodes = (
"262.463 201.793 LINE",
"262.463 581.7 LINE",
"32.473 581.7 LINE",
"32.473 201.793 LINE"
);
}
);
width = 618.84053;
}
);
},
{
glyphname = J.ss01;
lastChange = "2017-08-14 18:56:15 +0000";
layers = (
{
anchors = (
{
name = top;
position = "{254.742, 581.7}";
}
);
layerId = "A6C82697-316E-4547-A671-3FAC8B05BD53";
paths = (
{
closed = 1;
nodes = (
"466.753 150.649 CURVE SMOOTH",
"466.753 581.7 LINE",
"41.745 581.7 LINE",
"41.745 414.161 LINE",
"239.723 414.161 LINE",
"239.723 140.858 LINE SMOOTH",
"239.723 101.512 OFFCURVE",
"219.97 81.946 OFFCURVE",
"185.959 81.946 CURVE SMOOTH",
"156.757 81.946 OFFCURVE",
"130.237 96.008 OFFCURVE",
"99.075 130.72 CURVE",
"-24.236 -10.959 LINE",
"27.781 -68.208 OFFCURVE",
"108.278 -98 OFFCURVE",
"205.828 -98 CURVE SMOOTH",
"375.269 -98 OFFCURVE",
"466.753 -16.431 OFFCURVE"
);
}
);
width = 499.22628;
}
);
},
{
glyphname = M.ss01;
lastChange = "2017-08-14 18:56:15 +0000";
layers = (
{
anchors = (
{
name = bottom;
position = "{494.054, 0}";
},
{
name = top;
position = "{494.054, 581.7}";
}
);
layerId = "A6C82697-316E-4547-A671-3FAC8B05BD53";
paths = (
{
closed = 1;
nodes = (
"950.559 0 LINE",
"950.559 351.077 LINE SMOOTH",
"950.559 511.065 OFFCURVE",
"869.771 596.6 OFFCURVE",
"735.692 596.6 CURVE SMOOTH",
"601.613 596.6 OFFCURVE",
"509.268 508.202 OFFCURVE",
"509.268 354.409 CURVE SMOOTH",
"509.268 245.598 LINE",
"609.049 245.598 LINE",
"609.049 339.353 LINE SMOOTH",
"609.049 398.017 OFFCURVE",
"637.268 416.654 OFFCURVE",
"667.768 416.654 CURVE SMOOTH",
"698.128 416.654 OFFCURVE",
"720.569 398.848 OFFCURVE",
"720.569 344.52 CURVE SMOOTH",
"720.569 0 LINE"
);
},
{
closed = 1;
nodes = (
"267.539 0 LINE",
"267.539 440.939 LINE",
"260.634 466.519 LINE",
"260.634 581.7 LINE",
"37.549 581.7 LINE",
"37.549 0 LINE"
);
},
{
closed = 1;
nodes = (
"609.049 0 LINE",
"609.049 351.077 LINE SMOOTH",
"609.049 511.065 OFFCURVE",
"534.18 596.6 OFFCURVE",
"411.938 596.6 CURVE SMOOTH",
"273.913 596.6 OFFCURVE",
"208.908 498.658 OFFCURVE",
"208.908 345.235 CURVE SMOOTH",
"208.908 249.3 LINE",
"267.539 249.3 LINE",
"267.539 339.353 LINE SMOOTH",
"267.539 398.017 OFFCURVE",
"295.758 416.654 OFFCURVE",
"326.258 416.654 CURVE SMOOTH",
"356.618 416.654 OFFCURVE",
"379.059 398.848 OFFCURVE",
"379.059 344.52 CURVE SMOOTH",
"379.059 0 LINE"
);
}
);
width = 983.03168;
}
);
},
{
glyphname = N.ss01;
lastChange = "2017-08-14 18:56:15 +0000";
layers = (
{
anchors = (
{
name = bottom;
position = "{338.26, 0}";
},
{
name = top;
position = "{337.979, 581.7}";
}
);
layerId = "A6C82697-316E-4547-A671-3FAC8B05BD53";
paths = (
{
closed = 1;
nodes = (
"638.409 0 LINE",
"638.409 334.457 LINE SMOOTH",
"638.409 502.755 OFFCURVE",
"558.176 596.6 OFFCURVE",
"418.726 596.6 CURVE SMOOTH",
"279.276 596.6 OFFCURVE",
"199.043 490.348 OFFCURVE",
"199.043 327.381 CURVE SMOOTH",
"199.043 249.3 LINE",
"267.539 249.3 LINE",
"267.539 322.733 LINE SMOOTH",
"267.539 387.799 OFFCURVE",
"303.095 416.654 OFFCURVE",
"340.938 416.654 CURVE SMOOTH",
"380.754 416.654 OFFCURVE",
"408.418 390.538 OFFCURVE",
"408.418 327.9 CURVE SMOOTH",
"408.418 0 LINE"
);
},
{
closed = 1;
nodes = (
"267.539 0 LINE",
"267.539 440.939 LINE",
"260.634 466.519 LINE",
"260.634 581.7 LINE",
"37.549 581.7 LINE",
"37.549 0 LINE"
);
}
);
width = 670.88137;
}
);
},
{
glyphname = Eng.ss01;
lastChange = "2017-08-14 18:56:15 +0000";
layers = (
{
layerId = "A6C82697-316E-4547-A671-3FAC8B05BD53";
paths = (
{
closed = 1;
nodes = (
"638.409 78.261 CURVE SMOOTH",
"638.409 334.457 LINE SMOOTH",
"638.409 502.755 OFFCURVE",
"558.176 596.6 OFFCURVE",
"418.726 596.6 CURVE SMOOTH",
"279.276 596.6 OFFCURVE",
"199.043 490.348 OFFCURVE",
"199.043 327.381 CURVE SMOOTH",
"199.043 249.3 LINE",
"267.539 249.3 LINE",
"267.539 322.733 LINE SMOOTH",
"267.539 387.799 OFFCURVE",
"303.095 416.654 OFFCURVE",
"340.938 416.654 CURVE SMOOTH",
"380.754 416.654 OFFCURVE",
"408.418 390.538 OFFCURVE",
"408.418 327.9 CURVE SMOOTH",
"408.418 68.47 LINE SMOOTH",
"408.418 29.124 OFFCURVE",
"388.666 9.559 OFFCURVE",
"354.655 9.559 CURVE SMOOTH",
"340.249 9.559 OFFCURVE",
"326.553 12.167 OFFCURVE",
"309.201 20.157 CURVE",
"204.632 -133.93 LINE",
"252.704 -160.638 OFFCURVE",
"309.526 -170.388 OFFCURVE",
"374.524 -170.388 CURVE SMOOTH",
"543.964 -170.388 OFFCURVE",
"638.409 -88.819 OFFCURVE"
);
},
{
closed = 1;
nodes = (
"267.539 0 LINE",
"267.539 440.939 LINE",
"260.634 466.519 LINE",
"260.634 581.7 LINE",
"37.549 581.7 LINE",
"37.549 0 LINE"
);
}
);
width = 670.88137;
}
);
},
{
glyphname = Q.ss01;
lastChange = "2017-08-14 18:56:15 +0000";
layers = (
{
layerId = "A6C82697-316E-4547-A671-3FAC8B05BD53";
paths = (
{
closed = 1;
nodes = (
"698.772 290.85 CURVE SMOOTH",
"698.772 468.256 OFFCURVE",
"555.665 596.6 OFFCURVE",
"359.547 596.6 CURVE SMOOTH",
"163.429 596.6 OFFCURVE",
"20.321 468.256 OFFCURVE",
"20.321 290.85 CURVE SMOOTH",
"20.321 113.444 OFFCURVE",
"163.429 -14.9 OFFCURVE",
"359.547 -14.9 CURVE SMOOTH",
"555.665 -14.9 OFFCURVE",
"698.772 113.444 OFFCURVE"
);
},
{
closed = 1;
nodes = (
"474.542 -112.185 LINE",
"474.542 23.737 LINE",
"464.677 86.571 LINE",
"464.677 275.339 LINE",
"253.429 275.339 LINE",
"253.429 86.571 LINE",
"244.552 23.737 LINE",
"244.552 -112.185 LINE"
);
},
{
closed = 1;
nodes = (
"252.284 290.85 CURVE SMOOTH",
"252.284 371.557 OFFCURVE",
"300.831 416.654 OFFCURVE",
"359.547 416.654 CURVE SMOOTH",
"418.262 416.654 OFFCURVE",
"466.809 371.557 OFFCURVE",
"466.809 290.85 CURVE SMOOTH",
"466.809 206.326 OFFCURVE",
"432.073 165.046 OFFCURVE",
"359.547 165.046 CURVE SMOOTH",
"287.021 165.046 OFFCURVE",
"252.284 206.326 OFFCURVE"
);
}
);
width = 719.09322;
}
);
},
{
glyphname = Schwa.ss01;
lastChange = "2017-08-14 18:56:15 +0000";
layers = (
{
anchors = (
{
name = bottom;
position = "{346.154, 0}";
},
{
name = top;
position = "{346.154, 581.7}";
}
);
layerId = "A6C82697-316E-4547-A671-3FAC8B05BD53";
paths = (
{
closed = 1;
nodes = (
"671.988 290.727 CURVE SMOOTH",
"671.988 471.119 OFFCURVE",
"530.853 596.6 OFFCURVE",
"327.83 596.6 CURVE SMOOTH",
"215.754 596.6 OFFCURVE",
"102.413 544.7 OFFCURVE",
"46.156 483.017 CURVE",
"181.726 348.388 LINE",
"214.733 390.86 OFFCURVE",
"283.821 416.654 OFFCURVE",
"325.857 416.654 CURVE SMOOTH",
"395.564 416.654 OFFCURVE",
"440.025 369.648 OFFCURVE",
"440.025 300.271 CURVE SMOOTH",
"440.025 254.706 LINE SMOOTH",
"440.025 185.205 OFFCURVE",
"413.741 147.867 OFFCURVE",
"346.154 147.867 CURVE SMOOTH",
"261.822 147.867 OFFCURVE",
"239.364 194.831 OFFCURVE",
"256.952 274.204 CURVE",
"182.826 142.406 LINE",
"499.913 270.66 LINE",
"452.561 390.726 LINE",
"26.678 223.003 LINE",
"57.565 76.518 OFFCURVE",
"179.095 -14.9 OFFCURVE",
"346.154 -14.9 CURVE SMOOTH",
"534.939 -14.9 OFFCURVE",
"671.988 107.561 OFFCURVE"
);
}
);
width = 692.30886;
}
);
},
{
glyphname = T.ss01;
lastChange = "2017-08-14 18:56:15 +0000";
layers = (
{
anchors = (
{
name = bottom;
position = "{298.882, 0}";
},
{
name = center;
position = "{297.895, 243.13}";
},
{
name = top;
position = "{303.814, 582.778}";
}
);
layerId = "A6C82697-316E-4547-A671-3FAC8B05BD53";
paths = (
{
closed = 1;
nodes = (
"299.022 419.517 CURVE SMOOTH",
"396.579 419.517 OFFCURVE",
"469.198 397.171 OFFCURVE",
"540.543 358.36 CURVE",
"616.081 516.726 LINE",
"528.669 568.651 OFFCURVE",
"415.606 596.6 OFFCURVE",
"299.022 596.6 CURVE SMOOTH",
"182.438 596.6 OFFCURVE",
"69.095 568.651 OFFCURVE",
"-18.318 516.726 CURVE",
"57.22 358.36 LINE",
"128.424 397.171 OFFCURVE",
"201.465 419.517 OFFCURVE"
);
},
{
closed = 1;
nodes = (
"413.877 0 LINE",
"413.877 493.22 LINE",
"183.887 493.22 LINE",
"183.887 0 LINE"
);
}
);
width = 597.76328;
}
);
},
{
glyphname = U.ss01;
lastChange = "2017-08-14 18:56:15 +0000";
layers = (
{
anchors = (
{
name = bottom;
position = "{332.903, 0}";
},
{
name = ogonek;
position = "{530.743, 0}";
},
{
name = top;
position = "{332.903, 581.7}";
},
{
name = topright;
position = "{530.599, 581.823}";
}
);
layerId = "A6C82697-316E-4547-A671-3FAC8B05BD53";
paths = (
{
closed = 1;
nodes = (
"471.838 254.319 CURVE SMOOTH",
"471.838 332.4 LINE",
"403.342 332.4 LINE",
"403.342 258.967 LINE SMOOTH",
"403.342 193.901 OFFCURVE",
"367.787 165.046 OFFCURVE",
"329.943 165.046 CURVE SMOOTH",
"290.127 165.046 OFFCURVE",
"262.463 191.162 OFFCURVE",
"262.463 253.8 CURVE SMOOTH",
"262.463 581.7 LINE",
"32.473 581.7 LINE",
"32.473 247.243 LINE SMOOTH",
"32.473 78.945 OFFCURVE",
"112.706 -14.9 OFFCURVE",
"262.02 -14.9 CURVE SMOOTH",
"391.605 -14.9 OFFCURVE",
"471.838 91.352 OFFCURVE"
);
},
{
closed = 1;
nodes = (
"633.333 0 LINE",
"633.333 581.7 LINE",
"403.342 581.7 LINE",
"403.342 140.761 LINE",
"410.247 115.181 LINE",
"410.247 0 LINE"
);
}
);
width = 670.88137;
}
);
},
{
glyphname = W.ss01;
lastChange = "2017-08-14 18:56:15 +0000";
layers = (
{
anchors = (
{
name = top;
position = "{488.978, 581.7}";
}
);
layerId = "A6C82697-316E-4547-A671-3FAC8B05BD53";
paths = (
{
closed = 1;
nodes = (
"528.295 66.267 CURVE",
"449.661 66.267 LINE",
"495.047 16.579 OFFCURVE",
"564.135 -14.9 OFFCURVE",
"659.733 -14.9 CURVE SMOOTH",
"839.188 -14.9 OFFCURVE",
"945.483 80.302 OFFCURVE",
"945.483 248.6 CURVE SMOOTH",
"945.483 581.7 LINE",
"715.493 581.7 LINE",
"715.493 255.158 LINE SMOOTH",
"715.493 184.053 OFFCURVE",
"693.333 165.046 OFFCURVE",
"659.733 165.046 CURVE SMOOTH",
"626.133 165.046 OFFCURVE",
"603.973 184.053 OFFCURVE",
"603.973 255.158 CURVE SMOOTH",
"603.973 581.7 LINE",
"373.983 581.7 LINE",
"373.983 255.158 LINE SMOOTH",
"373.983 184.053 OFFCURVE",
"351.823 165.046 OFFCURVE",
"318.223 165.046 CURVE SMOOTH",
"284.623 165.046 OFFCURVE",
"262.463 184.053 OFFCURVE",
"262.463 255.158 CURVE SMOOTH",
"262.463 581.7 LINE",
"32.473 581.7 LINE",
"32.473 248.6 LINE SMOOTH",
"32.473 80.302 OFFCURVE",
"138.768 -14.9 OFFCURVE",
"318.223 -14.9 CURVE SMOOTH",
"413.821 -14.9 OFFCURVE",
"482.909 16.579 OFFCURVE"
);
}
);
width = 977.95568;
}
);
},
{
glyphname = Y.ss01;
lastChange = "2017-08-14 18:56:15 +0000";
layers = (
{
anchors = (
{
name = bottom;
position = "{560.47, 0}";
},
{
name = top;
position = "{328.673, 581.7}";
}
);
layerId = "A6C82697-316E-4547-A671-3FAC8B05BD53";
paths = (
{
closed = 1;
nodes = (
"629.102 190.924 CURVE SMOOTH",
"629.102 581.7 LINE",
"399.112 581.7 LINE",
"399.112 178.393 LINE SMOOTH",
"399.112 108.893 OFFCURVE",
"374.407 79.083 OFFCURVE",
"300.912 79.083 CURVE SMOOTH",
"247.734 79.083 OFFCURVE",
"184.705 95.637 OFFCURVE",
"127.746 126.467 CURVE",
"45.019 -31.191 LINE",
"109.024 -71.688 OFFCURVE",
"199.395 -98 OFFCURVE",
"311.903 -98 CURVE SMOOTH",
"505.466 -98 OFFCURVE",
"629.102 5.389 OFFCURVE"
);
},
{
closed = 1;
nodes = (
"467.608 391.952 CURVE SMOOTH",
"467.608 470.034 LINE",
"399.112 470.034 LINE",
"399.112 396.601 LINE SMOOTH",
"399.112 331.535 OFFCURVE",
"363.557 312.224 OFFCURVE",
"325.713 312.224 CURVE SMOOTH",
"278.006 312.224 OFFCURVE",
"258.233 337.385 OFFCURVE",
"258.233 391.434 CURVE SMOOTH",
"258.233 581.7 LINE",
"28.243 581.7 LINE",
"28.243 375.332 LINE SMOOTH",
"28.243 217.533 OFFCURVE",
"107.489 132.277 OFFCURVE",
"257.79 132.277 CURVE SMOOTH",
"387.375 132.277 OFFCURVE",
"467.608 228.986 OFFCURVE"
);
}
);
width = 661.57537;
}
);
},
{
glyphname = Z.ss01;
lastChange = "2017-08-14 18:56:15 +0000";
layers = (
{
anchors = (
{
name = bottom;
position = "{307.084, 0}";
},
{
name = top;
position = "{308.489, 581.7}";
}
);
layerId = "A6C82697-316E-4547-A671-3FAC8B05BD53";
paths = (
{
closed = 1;
nodes = (
"585.813 0 LINE",
"585.813 167.539 LINE",
"230.863 167.539 LINE",
"262.289 114.002 LINE",
"573.123 460.433 LINE",
"573.123 582.654 LINE",
"39.625 582.654 LINE",
"39.625 415.115 LINE",
"371.034 415.115 LINE",
"339.608 468.652 LINE",
"28.774 122.221 LINE",
"28.774 0 LINE"
);
},
{
closed = 1;
nodes = (
"563.267 217.855 LINE",
"562.284 370.559 LINE",
"368.756 370.559 LINE",
"309.57 372.032 LINE",
"38.493 372.032 LINE",
"39.476 219.327 LINE",
"257.236 219.327 LINE",
"316.423 217.855 LINE"
);
}
);
width = 596.40292;
}
);
},
{
glyphname = a;
lastChange = "2017-08-14 18:56:15 +0000";
layers = (
{
anchors = (
{
name = bottom;
position = "{244.35, 0}";
},
{
name = ogonek;
position = "{446.658, 0}";
},
{
name = top;
position = "{268.443, 458.259}";
}
);
layerId = "A6C82697-316E-4547-A671-3FAC8B05BD53";
paths = (
{
closed = 1;
nodes = (
"507.817 0 LINE",
"507.817 238.761 LINE SMOOTH",
"507.817 397.901 OFFCURVE",
"410.41 467.433 OFFCURVE",
"242.799 467.433 CURVE SMOOTH",
"170.892 467.433 OFFCURVE",
"85.6 450.138 OFFCURVE",
"29.349 417.762 CURVE",
"98.407 277.284 LINE",
"127.599 297.746 OFFCURVE",
"172.584 309.438 OFFCURVE",
"205.174 309.438 CURVE SMOOTH",
"265.116 309.438 OFFCURVE",
"287.691 288.547 OFFCURVE",
"287.691 251.291 CURVE SMOOTH",
"287.691 100.115 LINE",
"303.474 77.399 LINE",
"303.474 0 LINE"
);
},
{
closed = 1;
nodes = (
"314.893 89.279 CURVE",
"287.691 151.62 LINE",
"280.628 127.627 OFFCURVE",
"261.856 118.28 OFFCURVE",
"245.32 118.28 CURVE SMOOTH",
"226.246 118.28 OFFCURVE",
"214.943 130.367 OFFCURVE",
"214.943 144.602 CURVE SMOOTH",
"214.943 164.719 OFFCURVE",
"229.198 173.819 OFFCURVE",
"260.116 173.819 CURVE SMOOTH",
"307.848 173.819 LINE",
"307.848 275.505 LINE",
"224.464 275.505 LINE SMOOTH",
"78.123 275.505 OFFCURVE",
"7.641 227.216 OFFCURVE",
"7.641 135.181 CURVE SMOOTH",
"7.641 56.203 OFFCURVE",
"64.323 -9.174 OFFCURVE",
"178.242 -9.174 CURVE SMOOTH",
"255.8 -9.174 OFFCURVE",
"301.069 22.215 OFFCURVE"
);
}
);
width = 539.85797;
}
);
unicode = 0061;
},
{
glyphname = ae;
lastChange = "2017-08-14 18:56:15 +0000";
layers = (
{
anchors = (
{
name = top;
position = "{397.754, 458.259}";
}
);
layerId = "A6C82697-316E-4547-A671-3FAC8B05BD53";
paths = (
{
closed = 1;
nodes = (
"432.707 124.856 CURVE",
"332.93 124.609 LINE",
"384.241 25.877 OFFCURVE",
"481.528 -9.174 OFFCURVE",
"582.483 -9.174 CURVE SMOOTH",
"676.091 -9.174 OFFCURVE",
"742.781 15.88 OFFCURVE",
"789.448 64.324 CURVE",
"676.988 176.171 LINE",
"646.528 157.066 OFFCURVE",
"627.471 147.867 OFFCURVE",
"589.388 147.867 CURVE SMOOTH",
"536.334 147.867 OFFCURVE",
"507.817 172.748 OFFCURVE",
"507.817 222.864 CURVE SMOOTH",
"507.817 254.82 LINE SMOOTH",
"507.817 298.165 OFFCURVE",
"529.706 322.799 OFFCURVE",
"565.422 322.799 CURVE SMOOTH",
"601.139 322.799 OFFCURVE",
"622.888 298.165 OFFCURVE",
"622.888 254.82 CURVE",
"663.195 278.491 LINE",
"493.582 278.491 LINE",
"493.582 176.806 LINE",
"821.452 176.806 LINE",
"823.425 191.83 OFFCURVE",
"825.398 211.749 OFFCURVE",
"825.398 228.681 CURVE SMOOTH",
"825.398 386.982 OFFCURVE",
"702.464 467.433 OFFCURVE",
"568.382 467.433 CURVE SMOOTH",
"487.018 467.433 OFFCURVE",
"411.725 437.155 OFFCURVE",
"363.232 386.134 CURVE",
"449.617 387.245 LINE",
"405.224 442.848 OFFCURVE",
"330.084 467.433 OFFCURVE",
"238.853 467.433 CURVE SMOOTH",
"168.919 467.433 OFFCURVE",
"85.6 450.138 OFFCURVE",
"29.349 417.762 CURVE",
"98.407 277.284 LINE",
"127.599 297.746 OFFCURVE",
"172.584 309.438 OFFCURVE",
"205.174 309.438 CURVE SMOOTH",
"265.116 309.438 OFFCURVE",
"287.691 288.547 OFFCURVE",
"287.691 251.291 CURVE SMOOTH",
"287.691 165.953 LINE SMOOTH",
"287.691 136.859 OFFCURVE",
"274.405 118.28 OFFCURVE",
"247.293 118.28 CURVE SMOOTH",
"225.259 118.28 OFFCURVE",
"214.943 130.367 OFFCURVE",
"214.943 145.556 CURVE SMOOTH",
"214.943 166.751 OFFCURVE",
"229.198 176.806 OFFCURVE",
"260.116 176.806 CURVE SMOOTH",
"302.631 176.806 LINE",
"302.631 278.491 LINE",
"224.464 278.491 LINE SMOOTH",
"78.123 278.491 OFFCURVE",
"7.641 231.157 OFFCURVE",
"7.641 137.09 CURVE SMOOTH",
"7.641 56.203 OFFCURVE",
"87.011 -9.174 OFFCURVE",
"216.713 -9.174 CURVE SMOOTH",
"311.605 -9.174 OFFCURVE",
"386.903 13.379 OFFCURVE"
);
}
);
width = 838.5298;
}
);
unicode = 00E6;
},
{
glyphname = b;
lastChange = "2017-08-14 18:56:15 +0000";
layers = (
{
layerId = "A6C82697-316E-4547-A671-3FAC8B05BD53";
paths = (
{
closed = 1;
nodes = (
"577.222 229.545 CURVE SMOOTH",
"577.222 378.639 OFFCURVE",
"475.144 467.433 OFFCURVE",
"355.012 467.433 CURVE SMOOTH",
"235.866 467.433 OFFCURVE",
"187.621 395.819 OFFCURVE",
"187.621 229.545 CURVE SMOOTH",
"187.621 60.408 OFFCURVE",
"227.975 -9.174 OFFCURVE",
"355.012 -9.174 CURVE SMOOTH",
"475.144 -9.174 OFFCURVE",
"577.222 80.451 OFFCURVE"
);
},
{
closed = 1;
nodes = (
"242.447 0 LINE",
"242.447 47.179 LINE",
"244.837 229.422 LINE",
"253.297 411.664 LINE",
"253.297 616.602 LINE",
"33.172 616.602 LINE",
"33.172 0 LINE"
);
},
{
closed = 1;
nodes = (
"249.352 229.545 CURVE SMOOTH",
"249.352 279.661 OFFCURVE",
"273.92 301.803 OFFCURVE",
"304.704 301.803 CURVE SMOOTH",
"335.488 301.803 OFFCURVE",
"360.056 279.661 OFFCURVE",
"360.056 229.545 CURVE SMOOTH",
"360.056 179.429 OFFCURVE",
"335.488 156.457 OFFCURVE",
"304.704 156.457 CURVE SMOOTH",
"273.92 156.457 OFFCURVE",
"249.352 179.429 OFFCURVE"
);
}
);
width = 590.35402;
}
);
unicode = 0062;
},
{
glyphname = c;
lastChange = "2017-08-14 18:56:15 +0000";
layers = (
{
anchors = (
{
name = bottom;
position = "{264.928, 0}";
},
{
name = top;
position = "{272.82, 458.259}";
}
);
layerId = "A6C82697-316E-4547-A671-3FAC8B05BD53";
paths = (
{
closed = 1;
nodes = (
"523.473 135.074 CURVE",
"358.731 215.301 LINE",
"341.66 173.29 OFFCURVE",
"317.956 156.457 OFFCURVE",
"289.175 156.457 CURVE SMOOTH",
"257.825 156.457 OFFCURVE",
"230.298 178.598 OFFCURVE",
"230.298 229.545 CURVE SMOOTH",
"230.298 279.661 OFFCURVE",
"257.825 301.803 OFFCURVE",
"289.175 301.803 CURVE SMOOTH",
"317.956 301.803 OFFCURVE",
"341.66 284.969 OFFCURVE",
"358.731 242.958 CURVE",
"523.473 323.185 LINE",
"495.127 412.67 OFFCURVE",
"408.005 467.433 OFFCURVE",
"290.161 467.433 CURVE SMOOTH",
"128.315 467.433 OFFCURVE",
"13.132 368.972 OFFCURVE",
"13.132 229.545 CURVE SMOOTH",
"13.132 89.164 OFFCURVE",
"128.315 -9.174 OFFCURVE",
"290.161 -9.174 CURVE SMOOTH",
"408.005 -9.174 OFFCURVE",
"495.127 45.589 OFFCURVE"
);
}
);
width = 518.28328;
}
);
unicode = 0063;
},
{
glyphname = d;
lastChange = "2017-08-14 18:56:15 +0000";
layers = (
{
anchors = (
{
name = bottom;
position = "{324.837, 0}";
},
{
name = center;
position = "{411.718, 533.074}";
},
{
name = topright;
position = "{620.081, 616.602}";
}
);
layerId = "A6C82697-316E-4547-A671-3FAC8B05BD53";
paths = (
{
closed = 1;
nodes = (
"407.665 229.545 CURVE SMOOTH",
"407.665 395.819 OFFCURVE",
"359.42 467.433 OFFCURVE",
"240.274 467.433 CURVE SMOOTH",
"120.142 467.433 OFFCURVE",
"18.064 378.639 OFFCURVE",
"18.064 229.545 CURVE SMOOTH",
"18.064 80.451 OFFCURVE",
"120.142 -9.174 OFFCURVE",
"240.274 -9.174 CURVE SMOOTH",
"367.311 -9.174 OFFCURVE",
"407.665 60.408 OFFCURVE"
);
},
{
closed = 1;
nodes = (
"235.23 229.545 CURVE SMOOTH",
"235.23 279.661 OFFCURVE",
"259.798 301.803 OFFCURVE",
"290.582 301.803 CURVE SMOOTH",
"321.367 301.803 OFFCURVE",
"345.934 279.661 OFFCURVE",
"345.934 229.545 CURVE SMOOTH",
"345.934 179.429 OFFCURVE",
"321.367 156.457 OFFCURVE",
"290.582 156.457 CURVE SMOOTH",
"259.798 156.457 OFFCURVE",
"235.23 179.429 OFFCURVE"
);
},
{
closed = 1;
nodes = (
"562.115 0 LINE",
"562.115 616.602 LINE",
"341.989 616.602 LINE",
"341.989 411.664 LINE",
"350.449 229.422 LINE",
"352.84 47.179 LINE",
"352.84 0 LINE"
);
}
);
width = 595.2862;
}
);
unicode = 0064;
},
{
glyphname = e;
lastChange = "2017-08-14 18:56:15 +0000";
layers = (
{
anchors = (
{
name = bottom;
position = "{285.366, 0}";
},
{
name = ogonek;
position = "{482.183, 0}";
},
{
name = top;
position = "{285.366, 458.259}";
}
);
layerId = "A6C82697-316E-4547-A671-3FAC8B05BD53";
paths = (
{
closed = 1;
nodes = (
"512.916 64.324 CURVE",
"400.456 176.171 LINE",
"369.996 157.066 OFFCURVE",
"350.939 147.867 OFFCURVE",
"310.883 147.867 CURVE SMOOTH",
"255.856 147.867 OFFCURVE",
"227.339 172.748 OFFCURVE",
"227.339 222.864 CURVE SMOOTH",
"227.339 254.82 LINE SMOOTH",
"227.339 298.165 OFFCURVE",
"249.228 322.799 OFFCURVE",
"286.918 322.799 CURVE SMOOTH",
"324.607 322.799 OFFCURVE",
"346.356 298.165 OFFCURVE",
"346.356 254.82 CURVE",
"432.039 280.647 LINE",
"196.896 280.647 LINE",
"196.896 178.962 LINE",
"544.92 178.962 LINE",
"546.893 193.985 OFFCURVE",
"548.866 213.904 OFFCURVE",
"548.866 228.928 CURVE SMOOTH",
"548.866 386.982 OFFCURVE",
"425.932 467.433 OFFCURVE",
"284.945 467.433 CURVE SMOOTH",
"130.428 467.433 OFFCURVE",
"13.132 369.095 OFFCURVE",
"13.132 229.545 CURVE SMOOTH",
"13.132 92.858 OFFCURVE",
"125.359 -9.174 OFFCURVE",
"303.978 -9.174 CURVE SMOOTH",
"399.559 -9.174 OFFCURVE",
"466.249 15.88 OFFCURVE"
);
}
);
width = 561.99779;
}
);
unicode = 0065;
},
{
glyphname = f;
lastChange = "2017-08-14 18:56:15 +0000";
layers = (
{
layerId = "A6C82697-316E-4547-A671-3FAC8B05BD53";
paths = (
{
closed = 1;
nodes = (
"276.835 0 LINE",
"276.835 318.735 LINE",
"269.93 406.137 LINE",
"269.93 418.735 LINE SMOOTH",
"269.93 451.72 OFFCURVE",
"286.576 464.917 OFFCURVE",
"308.311 464.917 CURVE SMOOTH",
"321.433 464.917 OFFCURVE",
"334.835 460.548 OFFCURVE",
"346.542 456.459 CURVE",
"397.843 604.573 LINE",
"368.661 618.667 OFFCURVE",
"321.998 625.776 OFFCURVE",
"279.845 625.776 CURVE SMOOTH",
"137.196 625.776 OFFCURVE",
"56.709 545.219 OFFCURVE",
"56.709 420.026 CURVE SMOOTH",
"56.709 0 LINE"
);
},
{
closed = 1;
nodes = (
"362.739 274.495 LINE",
"362.739 429.627 LINE",
"-3.23 429.627 LINE",
"-3.23 274.495 LINE"
);
}
);
width = 376.54613;
}
);
unicode = 0066;
},
{
glyphname = g;
lastChange = "2017-08-14 18:56:15 +0000";
layers = (
{
anchors = (
{
name = top;
position = "{300.029, 458.259}";
}
);
layerId = "A6C82697-316E-4547-A671-3FAC8B05BD53";
paths = (
{
closed = 1;
nodes = (
"567.191 98.353 CURVE SMOOTH",
"567.191 458.259 LINE",
"357.916 458.259 LINE",
"357.916 402.243 LINE",
"355.525 247.399 LINE",
"347.065 92.555 LINE",
"347.065 69.137 LINE SMOOTH",
"347.065 18.346 OFFCURVE",
"320.397 -12.393 OFFCURVE",
"251.556 -12.393 CURVE SMOOTH",
"206.561 -12.393 OFFCURVE",
"146.07 4.071 OFFCURVE",
"111.097 29.149 CURVE",
"38.094 -116.101 LINE",
"98.29 -152.385 OFFCURVE",
"181.897 -170.388 OFFCURVE",
"274.244 -170.388 CURVE SMOOTH",
"455.967 -170.388 OFFCURVE",
"567.191 -83.372 OFFCURVE"
);
},
{
closed = 1;
nodes = (
"398.931 247.399 CURVE SMOOTH",
"398.931 401.051 OFFCURVE",
"351.672 467.433 OFFCURVE",
"233.934 467.433 CURVE SMOOTH",
"118.169 467.433 OFFCURVE",
"13.132 383.872 OFFCURVE",
"13.132 247.399 CURVE SMOOTH",
"13.132 110.926 OFFCURVE",
"118.169 26.534 OFFCURVE",
"233.934 26.534 CURVE SMOOTH",
"351.672 26.534 OFFCURVE",
"398.931 93.623 OFFCURVE"
);
},
{
closed = 1;
nodes = (
"230.298 247.399 CURVE SMOOTH",
"230.298 281.076 OFFCURVE",
"255.852 301.803 OFFCURVE",
"284.242 301.803 CURVE SMOOTH",
"312.633 301.803 OFFCURVE",
"337.2 281.076 OFFCURVE",
"337.2 247.399 CURVE SMOOTH",
"337.2 213.722 OFFCURVE",
"312.633 192.165 OFFCURVE",
"284.242 192.165 CURVE SMOOTH",
"255.852 192.165 OFFCURVE",
"230.298 213.722 OFFCURVE"
);
}
);
width = 600.3622;
}
);
unicode = 0067;
},
{
glyphname = h;
lastChange = "2017-08-14 18:56:15 +0000";
layers = (
{
anchors = (
{
name = bottom;
position = "{303.139, 0}";
},
{
name = center;
position = "{184.555, 533.074}";
},
{
name = top;
position = "{143.235, 616.602}";
},
{
name = topright;
position = "{273.776, 458.259}";
}
);
layerId = "A6C82697-316E-4547-A671-3FAC8B05BD53";
paths = (
{
closed = 1;
nodes = (
"566.625 0 LINE",
"566.625 260.136 LINE SMOOTH",
"566.625 407.017 OFFCURVE",
"481.19 467.433 OFFCURVE",
"374.734 467.433 CURVE SMOOTH",
"277.711 467.433 OFFCURVE",
"193.259 409.608 OFFCURVE",
"173.53 284.308 CURVE",
"253.297 210.605 LINE",
"253.297 271.746 OFFCURVE",
"280.253 288.441 OFFCURVE",
"306.529 288.441 CURVE SMOOTH",
"330.542 288.441 OFFCURVE",
"346.5 272.018 OFFCURVE",
"346.5 222.914 CURVE SMOOTH",
"346.5 0 LINE"
);
},
{
closed = 1;
nodes = (
"253.297 0 LINE",
"253.297 616.602 LINE",
"33.172 616.602 LINE",
"33.172 0 LINE"
);
}
);
width = 598.66681;
}
);
unicode = 0068;
},
{
glyphname = idotless;
lastChange = "2017-08-14 18:56:15 +0000";
layers = (
{
anchors = (
{
name = bottom;
position = "{143.235, 0}";
},
{
name = ogonek;
position = "{252.311, 0}";
},
{
name = top;
position = "{143.235, 458.259}";
}
);
layerId = "A6C82697-316E-4547-A671-3FAC8B05BD53";
paths = (
{
closed = 1;
nodes = (
"252.311 0 LINE",
"252.311 458.259 LINE",
"33.172 458.259 LINE",
"33.172 0 LINE"
);
}
);
width = 285.48269;
}
);
},
{
glyphname = jdotless;
lastChange = "2017-08-14 18:56:15 +0000";
layers = (
{
anchors = (
{
name = top;
position = "{149.437, 458.259}";
}
);
layerId = "A6C82697-316E-4547-A671-3FAC8B05BD53";
paths = (
{
closed = 1;
nodes = (
"259.5 35.362 CURVE SMOOTH",
"259.5 458.259 LINE",
"39.375 458.259 LINE",
"39.375 36.653 LINE SMOOTH",
"39.375 3.668 OFFCURVE",
"24.702 -9.529 OFFCURVE",
"7.477 -9.529 CURVE SMOOTH",
"-5.223 -9.529 OFFCURVE",
"-18.626 -6.115 OFFCURVE",
"-30.332 -1.071 CURVE",
"-81.634 -149.185 LINE",
"-50.479 -163.279 OFFCURVE",
"-5.788 -170.388 OFFCURVE",
"40.875 -170.388 CURVE SMOOTH",
"178.733 -170.388 OFFCURVE",
"259.5 -89.831 OFFCURVE"
);
}
);
width = 292.672;
}
);
},
{
glyphname = k;
lastChange = "2017-08-14 18:56:15 +0000";
layers = (
{
anchors = (
{
name = bottom;
position = "{275.505, 0}";
},
{
name = top;
position = "{143.235, 616.602}";
},
{
name = topright;
position = "{269.546, 458.259}";
}
);
layerId = "A6C82697-316E-4547-A671-3FAC8B05BD53";
paths = (
{
closed = 1;
nodes = (
"291.983 148.257 LINE",
"401.204 233.627 LINE",
"616.215 458.259 LINE",
"356.909 458.259 LINE",
"222.715 317.802 LINE",
"217.782 66.892 LINE"
);
},
{
closed = 1;
nodes = (
"253.297 0 LINE",
"253.297 616.602 LINE",
"33.172 616.602 LINE",
"33.172 0 LINE"
);
},
{
closed = 1;
nodes = (
"630.74 0 LINE",
"385.982 305.544 LINE",
"251.115 143.822 LINE",
"365.095 0 LINE"
);
}
);
width = 602.41798;
}
);
unicode = 006B;
},
{
glyphname = kgreenlandic;
lastChange = "2017-08-14 18:56:15 +0000";
layers = (
{
anchors = (
{
name = bottom;
position = "{280.982, 0}";
},
{
name = top;
position = "{280.982, 458.259}";
}
);
layerId = "A6C82697-316E-4547-A671-3FAC8B05BD53";
paths = (
{
closed = 1;
nodes = (
"291.983 148.257 LINE",
"401.204 233.627 LINE",
"616.215 458.259 LINE",
"356.909 458.259 LINE",
"222.715 317.802 LINE",
"217.782 66.892 LINE"
);
},
{
closed = 1;
nodes = (
"253.297 0 LINE",
"253.297 458.259 LINE",
"33.172 458.259 LINE",
"33.172 0 LINE"
);
},
{
closed = 1;
nodes = (
"630.74 0 LINE",
"385.982 305.544 LINE",
"251.115 143.822 LINE",
"365.095 0 LINE"
);
}
);
width = 602.41798;
}
);
unicode = 0138;
},
{
glyphname = l;
lastChange = "2017-08-14 18:56:15 +0000";
layers = (
{
anchors = (
{
name = bottom;
position = "{143.235, 0}";
},
{
name = center;
position = "{143.235, 309.938}";
},
{
name = dot;
position = "{375.108, 309.938}";
},
{
name = top;
position = "{143.235, 616.602}";
},
{
name = topright;
position = "{308.304, 616.602}";
}
);
layerId = "A6C82697-316E-4547-A671-3FAC8B05BD53";
paths = (
{
closed = 1;
nodes = (
"253.297 0 LINE",
"253.297 616.602 LINE",
"33.172 616.602 LINE",
"33.172 0 LINE"
);
}
);
width = 286.46913;
}
);
unicode = 006C;
},
{
glyphname = m;
lastChange = "2017-08-14 18:56:15 +0000";
layers = (
{
anchors = (
{
name = bottom;
position = "{436.546, 0}";
}
);
layerId = "A6C82697-316E-4547-A671-3FAC8B05BD53";
paths = (
{
closed = 1;
nodes = (
"843.866 0 LINE",
"843.866 260.136 LINE SMOOTH",
"843.866 407.017 OFFCURVE",
"761.955 467.433 OFFCURVE",
"657.051 467.433 CURVE SMOOTH",
"564.258 467.433 OFFCURVE",
"487.557 412.471 OFFCURVE",
"458.95 319.712 CURVE",
"548.582 220.149 LINE",
"548.582 273.655 OFFCURVE",
"567.927 288.441 OFFCURVE",
"588.846 288.441 CURVE SMOOTH",
"608.489 288.441 OFFCURVE",
"623.741 272.018 OFFCURVE",
"623.741 222.914 CURVE SMOOTH",
"623.741 0 LINE"
);
},
{
closed = 1;
nodes = (
"253.297 0 LINE",
"253.297 326.788 LINE",
"242.447 368.222 LINE",
"242.447 458.259 LINE",
"33.172 458.259 LINE",
"33.172 0 LINE"
);
},
{
closed = 1;
nodes = (
"548.582 0 LINE",
"548.582 260.136 LINE SMOOTH",
"548.582 404.154 OFFCURVE",
"466.671 467.433 OFFCURVE",
"365.712 467.433 CURVE SMOOTH",
"273.06 467.433 OFFCURVE",
"192.272 409.608 OFFCURVE",
"173.53 284.308 CURVE",
"253.297 220.149 LINE",
"253.297 273.655 OFFCURVE",
"272.642 288.441 OFFCURVE",
"293.562 288.441 CURVE SMOOTH",
"315.177 288.441 OFFCURVE",
"328.456 272.018 OFFCURVE",
"328.456 222.914 CURVE SMOOTH",
"328.456 0 LINE"
);
}
);
width = 875.90778;
}
);
unicode = 006D;
},
{
glyphname = n;
lastChange = "2017-08-14 18:56:15 +0000";
layers = (
{
anchors = (
{
name = bottom;
position = "{303.139, 0}";
},
{
name = top;
position = "{303.139, 458.259}";
}
);
layerId = "A6C82697-316E-4547-A671-3FAC8B05BD53";
paths = (
{
closed = 1;
nodes = (
"566.625 0 LINE",
"566.625 260.136 LINE SMOOTH",
"566.625 407.017 OFFCURVE",
"481.19 467.433 OFFCURVE",
"374.734 467.433 CURVE SMOOTH",
"277.711 467.433 OFFCURVE",
"193.259 409.608 OFFCURVE",
"173.53 284.308 CURVE",
"253.297 210.605 LINE",
"253.297 271.746 OFFCURVE",
"280.253 288.441 OFFCURVE",
"306.529 288.441 CURVE SMOOTH",
"330.542 288.441 OFFCURVE",
"346.5 272.018 OFFCURVE",
"346.5 222.914 CURVE SMOOTH",
"346.5 0 LINE"
);
},
{
closed = 1;
nodes = (
"253.297 0 LINE",
"253.297 326.788 LINE",
"242.447 368.222 LINE",
"242.447 458.259 LINE",
"33.172 458.259 LINE",
"33.172 0 LINE"
);
}
);
width = 598.66681;
}
);
unicode = 006E;
},
{
glyphname = eng;
lastChange = "2017-08-14 18:56:15 +0000";
layers = (
{
layerId = "A6C82697-316E-4547-A671-3FAC8B05BD53";
paths = (
{
closed = 1;
nodes = (
"566.625 35.362 CURVE SMOOTH",
"566.625 260.136 LINE SMOOTH",
"566.625 407.017 OFFCURVE",
"481.19 467.433 OFFCURVE",
"374.734 467.433 CURVE SMOOTH",
"277.711 467.433 OFFCURVE",
"193.259 409.608 OFFCURVE",
"173.53 284.308 CURVE",
"253.297 210.605 LINE",
"253.297 271.746 OFFCURVE",
"280.253 288.441 OFFCURVE",
"306.529 288.441 CURVE SMOOTH",
"330.542 288.441 OFFCURVE",
"346.5 272.018 OFFCURVE",
"346.5 222.914 CURVE SMOOTH",
"346.5 36.653 LINE SMOOTH",
"346.5 3.668 OFFCURVE",
"331.827 -9.529 OFFCURVE",
"314.602 -9.529 CURVE SMOOTH",
"301.902 -9.529 OFFCURVE",
"288.5 -6.115 OFFCURVE",
"276.793 -1.071 CURVE",
"225.491 -149.185 LINE",
"256.646 -163.279 OFFCURVE",
"301.337 -170.388 OFFCURVE",
"348 -170.388 CURVE SMOOTH",
"485.858 -170.388 OFFCURVE",
"566.625 -89.831 OFFCURVE"
);
},
{
closed = 1;
nodes = (
"253.297 0 LINE",
"253.297 326.788 LINE",
"242.447 368.222 LINE",
"242.447 458.259 LINE",
"33.172 458.259 LINE",
"33.172 0 LINE"
);
}
);
width = 598.66681;
}
);
unicode = 014B;
},
{
glyphname = o;
lastChange = "2017-08-14 18:56:15 +0000";
layers = (
{
anchors = (
{
name = bottom;
position = "{282.691, 0}";
},
{
name = center;
position = "{282.691, 229.545}";
},
{
name = ogonek;
position = "{392.085, 0}";
},
{
name = top;
position = "{282.691, 458.259}";
},
{
name = topright;
position = "{354.779, 458.136}";
}
);
layerId = "A6C82697-316E-4547-A671-3FAC8B05BD53";
paths = (
{
closed = 1;
nodes = (
"558.169 229.545 CURVE SMOOTH",
"558.169 369.095 OFFCURVE",
"444.959 467.433 OFFCURVE",
"285.65 467.433 CURVE SMOOTH",
"126.342 467.433 OFFCURVE",
"13.132 369.095 OFFCURVE",
"13.132 229.545 CURVE SMOOTH",
"13.132 89.995 OFFCURVE",
"126.342 -9.174 OFFCURVE",
"285.65 -9.174 CURVE SMOOTH",
"444.959 -9.174 OFFCURVE",
"558.169 89.995 OFFCURVE"
);
},
{
closed = 1;
nodes = (
"230.298 229.545 CURVE SMOOTH",
"230.298 279.661 OFFCURVE",
"254.866 301.803 OFFCURVE",
"285.65 301.803 CURVE SMOOTH",
"316.434 301.803 OFFCURVE",
"341.002 279.661 OFFCURVE",
"341.002 229.545 CURVE SMOOTH",
"341.002 179.429 OFFCURVE",
"316.434 156.457 OFFCURVE",
"285.65 156.457 CURVE SMOOTH",
"254.866 156.457 OFFCURVE",
"230.298 179.429 OFFCURVE"
);
}
);
width = 571.3004;
}
);
unicode = 006F;
},
{
glyphname = oe;
lastChange = "2017-08-14 18:56:15 +0000";
layers = (
{
anchors = (
{
name = bottom;
position = "{450.079, 0}";
},
{
name = top;
position = "{450.079, 458.259}";
}
);
layerId = "A6C82697-316E-4547-A671-3FAC8B05BD53";
paths = (
{
closed = 1;
nodes = (
"532.662 229.545 CURVE SMOOTH",
"532.662 369.095 OFFCURVE",
"439.181 467.433 OFFCURVE",
"281.704 467.433 CURVE SMOOTH",
"126.342 467.433 OFFCURVE",
"13.132 369.095 OFFCURVE",
"13.132 229.545 CURVE SMOOTH",
"13.132 89.995 OFFCURVE",
"126.342 -9.174 OFFCURVE",
"281.704 -9.174 CURVE SMOOTH",
"439.181 -9.174 OFFCURVE",
"532.662 89.995 OFFCURVE"
);
},
{
closed = 1;
nodes = (
"230.298 229.545 CURVE SMOOTH",
"230.298 279.661 OFFCURVE",
"254.866 301.803 OFFCURVE",
"285.65 301.803 CURVE SMOOTH",
"316.434 301.803 OFFCURVE",
"341.002 279.661 OFFCURVE",
"341.002 229.545 CURVE SMOOTH",
"341.002 179.429 OFFCURVE",
"316.434 156.457 OFFCURVE",
"285.65 156.457 CURVE SMOOTH",
"254.866 156.457 OFFCURVE",
"230.298 179.429 OFFCURVE"
);
},
{
closed = 1;
nodes = (
"839.8 64.324 CURVE",
"727.34 176.171 LINE",
"696.881 157.066 OFFCURVE",
"677.824 147.867 OFFCURVE",
"639.74 147.867 CURVE SMOOTH",
"586.686 147.867 OFFCURVE",
"558.169 172.748 OFFCURVE",
"558.169 222.864 CURVE SMOOTH",
"558.169 254.82 LINE SMOOTH",
"558.169 298.165 OFFCURVE",
"580.058 322.799 OFFCURVE",
"615.775 322.799 CURVE SMOOTH",
"651.491 322.799 OFFCURVE",
"673.24 298.165 OFFCURVE",
"673.24 254.82 CURVE",
"713.547 278.491 LINE",
"543.934 278.491 LINE",
"543.934 176.806 LINE",
"871.805 176.806 LINE",
"873.778 191.83 OFFCURVE",
"875.75 211.749 OFFCURVE",
"875.75 228.681 CURVE SMOOTH",
"875.75 386.982 OFFCURVE",
"752.816 467.433 OFFCURVE",
"618.734 467.433 CURVE SMOOTH",
"464.217 467.433 OFFCURVE",
"360.731 369.095 OFFCURVE",
"360.731 229.545 CURVE SMOOTH",
"360.731 92.858 OFFCURVE",
"464.08 -9.174 OFFCURVE",
"632.835 -9.174 CURVE SMOOTH",
"726.443 -9.174 OFFCURVE",
"793.133 15.88 OFFCURVE"
);
}
);
width = 888.88203;
}
);
unicode = 0153;
},
{
glyphname = ohorn;
lastChange = "2017-08-14 18:56:15 +0000";
layers = (
{
anchors = (
{
name = bottom;
position = "{285.65, 0}";
},
{
name = top;
position = "{285.65, 458.259}";
}
);
layerId = "A6C82697-316E-4547-A671-3FAC8B05BD53";
paths = (
{
closed = 1;
nodes = (
"558.169 229.545 CURVE SMOOTH",
"558.169 328.187 OFFCURVE",
"502.473 405.47 OFFCURVE",
"412.801 443.392 CURVE",
"262.585 339.395 LINE",
"291.623 332.961 OFFCURVE",
"329.676 328.188 OFFCURVE",
"368.856 328.188 CURVE SMOOTH",
"488.533 328.188 OFFCURVE",
"572.397 391.476 OFFCURVE",
"572.397 499.003 CURVE SMOOTH",
"572.397 538.743 OFFCURVE",
"557.878 570.6 OFFCURVE",
"537.015 595.81 CURVE",
"393.551 553.849 LINE",
"403.843 542.832 OFFCURVE",
"412.444 525.504 OFFCURVE",
"412.444 507.716 CURVE SMOOTH",
"412.444 476.969 OFFCURVE",
"399.606 458.506 OFFCURVE",
"375.901 458.506 CURVE SMOOTH",
"356.005 458.506 OFFCURVE",
"330.207 467.433 OFFCURVE",
"288.609 467.433 CURVE SMOOTH",
"126.342 467.433 OFFCURVE",
"13.132 369.095 OFFCURVE",
"13.132 229.545 CURVE SMOOTH",
"13.132 89.995 OFFCURVE",
"126.342 -9.174 OFFCURVE",
"285.65 -9.174 CURVE SMOOTH",
"444.959 -9.174 OFFCURVE",
"558.169 89.995 OFFCURVE"
);
},
{
closed = 1;
nodes = (
"230.298 229.545 CURVE SMOOTH",
"230.298 279.661 OFFCURVE",
"254.866 301.803 OFFCURVE",
"285.65 301.803 CURVE SMOOTH",
"316.434 301.803 OFFCURVE",
"341.002 279.661 OFFCURVE",
"341.002 229.545 CURVE SMOOTH",
"341.002 179.429 OFFCURVE",
"316.434 156.457 OFFCURVE",
"285.65 156.457 CURVE SMOOTH",
"254.866 156.457 OFFCURVE",
"230.298 179.429 OFFCURVE"
);
}
);
width = 571.3004;
}
);
unicode = 01A1;
},
{
glyphname = p;
lastChange = "2017-08-14 18:56:15 +0000";
layers = (
{
anchors = (
{
name = bottom;
position = "{356.985, 0}";
},
{
name = top;
position = "{305.69, 458.259}";
}
);
layerId = "A6C82697-316E-4547-A671-3FAC8B05BD53";
paths = (
{
closed = 1;
nodes = (
"577.222 228.714 CURVE SMOOTH",
"577.222 377.808 OFFCURVE",
"475.144 467.433 OFFCURVE",
"355.012 467.433 CURVE SMOOTH",
"227.975 467.433 OFFCURVE",
"187.621 397.851 OFFCURVE",
"187.621 228.714 CURVE SMOOTH",
"187.621 62.441 OFFCURVE",
"235.866 -9.174 OFFCURVE",
"355.012 -9.174 CURVE SMOOTH",
"475.144 -9.174 OFFCURVE",
"577.222 79.62 OFFCURVE"
);
},
{
closed = 1;
nodes = (
"253.297 -161.214 LINE",
"253.297 46.595 LINE",
"244.837 228.837 LINE",
"242.447 411.08 LINE",
"242.447 458.259 LINE",
"33.172 458.259 LINE",
"33.172 -161.214 LINE"
);
},
{
closed = 1;
nodes = (
"249.352 228.714 CURVE SMOOTH",
"249.352 278.83 OFFCURVE",
"273.92 301.803 OFFCURVE",
"304.704 301.803 CURVE SMOOTH",
"335.488 301.803 OFFCURVE",
"360.056 278.83 OFFCURVE",
"360.056 228.714 CURVE SMOOTH",
"360.056 178.598 OFFCURVE",
"335.488 156.457 OFFCURVE",
"304.704 156.457 CURVE SMOOTH",
"273.92 156.457 OFFCURVE",
"249.352 178.598 OFFCURVE"
);
}
);
width = 590.35402;
}
);
unicode = 0070;
},
{
glyphname = thorn;
lastChange = "2017-08-14 18:56:15 +0000";
layers = (
{
anchors = (
{
name = bottom;
position = "{355.012, 0}";
},
{
name = top;
position = "{355.012, 458.259}";
}
);
layerId = "A6C82697-316E-4547-A671-3FAC8B05BD53";
paths = (
{
closed = 1;
nodes = (
"577.222 228.714 CURVE SMOOTH",
"577.222 377.808 OFFCURVE",
"475.144 467.433 OFFCURVE",
"355.012 467.433 CURVE SMOOTH",
"227.975 467.433 OFFCURVE",
"187.621 397.851 OFFCURVE",
"187.621 228.714 CURVE SMOOTH",
"187.621 62.441 OFFCURVE",
"235.866 -9.174 OFFCURVE",
"355.012 -9.174 CURVE SMOOTH",
"475.144 -9.174 OFFCURVE",
"577.222 79.62 OFFCURVE"
);
},
{
closed = 1;
nodes = (
"253.297 -161.214 LINE",
"253.297 46.595 LINE",
"244.837 228.837 LINE",
"242.447 411.08 LINE",
"242.447 616.602 LINE",
"33.172 616.602 LINE",
"33.172 -161.214 LINE"
);
},
{
closed = 1;
nodes = (
"249.352 228.714 CURVE SMOOTH",
"249.352 278.83 OFFCURVE",
"273.92 301.803 OFFCURVE",
"304.704 301.803 CURVE SMOOTH",
"335.488 301.803 OFFCURVE",
"360.056 278.83 OFFCURVE",
"360.056 228.714 CURVE SMOOTH",
"360.056 178.598 OFFCURVE",
"335.488 156.457 OFFCURVE",
"304.704 156.457 CURVE SMOOTH",
"273.92 156.457 OFFCURVE",
"249.352 178.598 OFFCURVE"
);
}
);
width = 590.35402;
}
);
unicode = 00FE;
},
{
glyphname = q;
lastChange = "2017-08-14 18:56:15 +0000";
layers = (
{
anchors = (
{
name = bottom;
position = "{235.342, 0}";
},
{
name = top;
position = "{285.65, 458.259}";
}
);
layerId = "A6C82697-316E-4547-A671-3FAC8B05BD53";
paths = (
{
closed = 1;
nodes = (
"402.733 228.714 CURVE SMOOTH",
"402.733 397.851 OFFCURVE",
"362.379 467.433 OFFCURVE",
"235.342 467.433 CURVE SMOOTH",
"115.21 467.433 OFFCURVE",
"13.132 377.808 OFFCURVE",
"13.132 228.714 CURVE SMOOTH",
"13.132 79.62 OFFCURVE",
"115.21 -9.174 OFFCURVE",
"235.342 -9.174 CURVE SMOOTH",
"354.488 -9.174 OFFCURVE",
"402.733 62.441 OFFCURVE"
);
},
{
closed = 1;
nodes = (
"230.298 228.714 CURVE SMOOTH",
"230.298 278.83 OFFCURVE",
"254.866 301.803 OFFCURVE",
"285.65 301.803 CURVE SMOOTH",
"316.434 301.803 OFFCURVE",
"341.002 278.83 OFFCURVE",
"341.002 228.714 CURVE SMOOTH",
"341.002 178.598 OFFCURVE",
"316.434 156.457 OFFCURVE",
"285.65 156.457 CURVE SMOOTH",
"254.866 156.457 OFFCURVE",
"230.298 178.598 OFFCURVE"
);
},
{
closed = 1;
nodes = (
"557.182 -161.214 LINE",
"557.182 458.259 LINE",
"347.907 458.259 LINE",
"347.907 411.08 LINE",
"345.517 228.837 LINE",
"337.057 46.595 LINE",
"337.057 -161.214 LINE"
);
}
);
width = 590.35402;
}
);
unicode = 0071;
},
{
glyphname = r;
lastChange = "2017-08-14 18:56:15 +0000";
layers = (
{
anchors = (
{
name = bottom;
position = "{143.235, 0}";
},
{
name = top;
position = "{209.798, 458.259}";
}
);
layerId = "A6C82697-316E-4547-A671-3FAC8B05BD53";
paths = (
{
closed = 1;
nodes = (
"253.297 0 LINE",
"253.297 326.788 LINE",
"242.447 368.222 LINE",
"242.447 458.259 LINE",
"33.172 458.259 LINE",
"33.172 0 LINE"
);
},
{
closed = 1;
nodes = (
"340.058 282.838 CURVE SMOOTH",
"355.56 282.838 OFFCURVE",
"369.089 281.884 OFFCURVE",
"388.537 279.02 CURVE",
"386.564 467.433 LINE",
"270.943 467.433 OFFCURVE",
"193.259 406.005 OFFCURVE",
"193.259 272.518 CURVE",
"253.297 197.614 LINE",
"253.297 263.741 OFFCURVE",
"290.395 282.838 OFFCURVE"
);
}
);
width = 395.04477;
}
);
unicode = 0072;
},
{
glyphname = s;
lastChange = "2017-08-14 18:56:15 +0000";
layers = (
{
anchors = (
{
name = bottom;
position = "{246.58, 0}";
},
{
name = top;
position = "{246.58, 458.259}";
}
);
layerId = "A6C82697-316E-4547-A671-3FAC8B05BD53";
paths = (
{
closed = 1;
nodes = (
"486.8 150.855 CURVE SMOOTH",
"486.8 335.805 OFFCURVE",
"226.774 279.618 OFFCURVE",
"226.774 312.053 CURVE SMOOTH",
"226.774 315.452 OFFCURVE",
"233.99 322.799 OFFCURVE",
"277.019 322.799 CURVE SMOOTH",
"314.25 322.799 OFFCURVE",
"361.064 316.308 OFFCURVE",
"410.547 290.793 CURVE",
"470.021 431.025 LINE",
"413.493 455.708 OFFCURVE",
"343.987 467.433 OFFCURVE",
"274.06 467.433 CURVE SMOOTH",
"98.139 467.433 OFFCURVE",
"23.417 393.557 OFFCURVE",
"23.417 307.281 CURVE SMOOTH",
"23.417 121.162 OFFCURVE",
"284.29 178.181 OFFCURVE",
"284.29 146.083 CURVE SMOOTH",
"284.29 140.068 OFFCURVE",
"277.919 135.46 OFFCURVE",
"239.394 135.46 CURVE SMOOTH",
"186.932 135.46 OFFCURVE",
"123.766 148.69 OFFCURVE",
"77.668 173.834 CURVE",
"18.194 33.602 LINE",
"67.957 8.121 OFFCURVE",
"153.534 -9.174 OFFCURVE",
"234.462 -9.174 CURVE SMOOTH",
"414.897 -9.174 OFFCURVE",
"486.8 66.735 OFFCURVE"
);
}
);
width = 506.12457;
}
);
unicode = 0073;
},
{
glyphname = germandbls;
lastChange = "2017-08-14 18:56:15 +0000";
layers = (
{
layerId = "A6C82697-316E-4547-A671-3FAC8B05BD53";
paths = (
{
closed = 1;
nodes = (
"593.701 179.348 CURVE SMOOTH",
"593.701 291.936 OFFCURVE",
"506.145 353.8 OFFCURVE",
"354.872 353.8 CURVE",
"309.061 263.535 LINE",
"424.1 263.535 OFFCURVE",
"539.56 330.171 OFFCURVE",
"539.56 438.604 CURVE SMOOTH",
"539.56 542.454 OFFCURVE",
"452.997 625.776 OFFCURVE",
"295.247 625.776 CURVE SMOOTH",
"154.688 625.776 OFFCURVE",
"33.172 544.272 OFFCURVE",
"33.172 387.789 CURVE SMOOTH",
"33.172 0 LINE",
"253.297 0 LINE",
"253.297 417.499 LINE SMOOTH",
"253.297 445.17 OFFCURVE",
"269.542 462.054 OFFCURVE",
"296.093 462.054 CURVE SMOOTH",
"318.274 462.054 OFFCURVE",
"334.231 444.43 OFFCURVE",
"334.231 417.607 CURVE SMOOTH",
"334.231 391.927 OFFCURVE",
"314.605 374.673 OFFCURVE",
"287.767 372.765 CURVE",
"287.767 212.861 LINE",
"330.635 212.861 LINE SMOOTH",
"362.964 212.861 OFFCURVE",
"376.534 203.579 OFFCURVE",
"376.534 185.074 CURVE SMOOTH",
"376.534 165.615 OFFCURVE",
"360.567 156.457 OFFCURVE",
"338.667 156.457 CURVE SMOOTH",
"320.329 156.457 OFFCURVE",
"304.108 159.657 OFFCURVE",
"287.606 166.058 CURVE",
"266.747 4.246 LINE",
"289.168 -4.064 OFFCURVE",
"336.112 -9.174 OFFCURVE",
"372.206 -9.174 CURVE SMOOTH",
"507.128 -9.174 OFFCURVE",
"593.701 59.832 OFFCURVE"
);
}
);
width = 606.8324;
}
);
unicode = 00DF;
},
{
glyphname = t;
lastChange = "2017-08-14 18:56:15 +0000";
layers = (
{
anchors = (
{
name = bottom;
position = "{236.438, 0}";
},
{
name = center;
position = "{180.178, 211.214}";
},
{
name = top;
position = "{166.772, 561.706}";
},
{
name = topright;
position = "{309.438, 616.602}";
}
);
layerId = "A6C82697-316E-4547-A671-3FAC8B05BD53";
paths = (
{
closed = 1;
nodes = (
"397.843 13.938 CURVE",
"346.542 162.052 LINE",
"334.835 155.099 OFFCURVE",
"321.433 151.685 OFFCURVE",
"308.311 151.685 CURVE SMOOTH",
"291.508 151.685 OFFCURVE",
"276.835 164.882 OFFCURVE",
"276.835 188.323 CURVE SMOOTH",
"276.835 561.706 LINE",
"56.709 561.706 LINE",
"56.709 187.032 LINE SMOOTH",
"56.709 52.295 OFFCURVE",
"137.477 -9.174 OFFCURVE",
"274.913 -9.174 CURVE SMOOTH",
"321.998 -9.174 OFFCURVE",
"366.689 -2.065 OFFCURVE"
);
},
{
closed = 1;
nodes = (
"362.739 274.495 LINE",
"362.739 429.627 LINE",
"-3.23 429.627 LINE",
"-3.23 274.495 LINE"
);
}
);
width = 399.27138;
}
);
unicode = 0074;
},
{
glyphname = u;
lastChange = "2017-08-14 18:56:15 +0000";
layers = (
{
anchors = (
{
name = bottom;
position = "{297.076, 0}";
},
{
name = ogonek;
position = "{562.111, 0}";
},
{
name = top;
position = "{297.076, 458.259}";
},
{
name = topright;
position = "{451.908, 458.259}";
}
);
layerId = "A6C82697-316E-4547-A671-3FAC8B05BD53";
paths = (
{
closed = 1;
nodes = (
"421.753 173.951 CURVE",
"341.985 247.654 LINE",
"341.985 186.513 OFFCURVE",
"315.595 169.818 OFFCURVE",
"295.381 169.818 CURVE SMOOTH",
"268.97 169.818 OFFCURVE",
"252.167 186.241 OFFCURVE",
"252.167 244.889 CURVE SMOOTH",
"252.167 458.259 LINE",
"32.041 458.259 LINE",
"32.041 207.667 LINE SMOOTH",
"32.041 55.06 OFFCURVE",
"118.323 -9.174 OFFCURVE",
"229.149 -9.174 CURVE SMOOTH",
"320.109 -9.174 OFFCURVE",
"402.024 48.651 OFFCURVE"
);
},
{
closed = 1;
nodes = (
"562.111 0 LINE",
"562.111 458.259 LINE",
"341.985 458.259 LINE",
"341.985 131.471 LINE",
"352.836 90.037 LINE",
"352.836 0 LINE"
);
}
);
width = 595.28281;
}
);
unicode = 0075;
},
{
glyphname = v;
lastChange = "2017-08-14 18:56:15 +0000";
layers = (
{
anchors = (
{
name = bottom;
position = "{281.962, 0}";
},
{
name = top;
position = "{281.962, 458.259}";
}
);
layerId = "A6C82697-316E-4547-A671-3FAC8B05BD53";
paths = (
{
closed = 1;
nodes = (
"395.97 0 LINE",
"579.562 458.259 LINE",
"371.695 458.259 LINE",
"228.269 96.576 LINE",
"342.559 96.576 LINE",
"209.984 458.259 LINE",
"-15.639 458.259 LINE",
"167.953 0 LINE"
);
}
);
width = 563.92328;
}
);
unicode = 0076;
},
{
glyphname = w;
lastChange = "2017-08-14 18:56:15 +0000";
layers = (
{
anchors = (
{
name = bottom;
position = "{454.134, 0}";
},
{
name = top;
position = "{454.134, 458.259}";
}
);
layerId = "A6C82697-316E-4547-A671-3FAC8B05BD53";
paths = (
{
closed = 1;
nodes = (
"390.473 0 LINE",
"490.071 272.586 LINE",
"422.144 272.586 LINE",
"517.796 0 LINE",
"745.813 0 LINE",
"918.692 458.259 LINE",
"710.824 458.259 LINE",
"572.194 96.576 LINE",
"691.415 96.576 LINE",
"564.197 458.259 LINE",
"358.868 458.259 LINE",
"220.799 96.576 LINE",
"341.007 96.576 LINE",
"213.228 458.259 LINE",
"-10.423 458.259 LINE",
"162.456 0 LINE"
);
}
);
width = 908.26897;
}
);
unicode = 0077;
},
{
glyphname = x;
lastChange = "2017-08-14 18:56:15 +0000";
layers = (
{
layerId = "A6C82697-316E-4547-A671-3FAC8B05BD53";
paths = (
{
closed = 1;
nodes = (
"225.356 0 LINE",
"324.8 140.201 LINE",
"231.79 152.609 LINE",
"327.289 0 LINE",
"579.124 0 LINE",
"360.596 294.626 LINE",
"360.736 176.806 LINE",
"576.299 458.259 LINE",
"345.884 458.259 LINE",
"240.949 308.448 LINE",
"332.551 315.129 LINE",
"239.454 458.259 LINE",
"-8.577 458.259 LINE",
"206.28 165.814 LINE",
"212.058 289.023 LINE",
"-12.81 0 LINE"
);
}
);
width = 566.31408;
}
);
unicode = 0078;
},
{
glyphname = y;
lastChange = "2017-08-14 18:56:15 +0000";
layers = (
{
anchors = (
{
name = bottom;
position = "{471.823, 0}";
},
{
name = top;
position = "{275.19, 458.259}";
}
);
layerId = "A6C82697-316E-4547-A671-3FAC8B05BD53";
paths = (
{
closed = 1;
nodes = (
"389.329 -17.435 CURVE SMOOTH",
"579.562 458.259 LINE",
"371.695 458.259 LINE",
"231.229 94.667 LINE",
"216.148 74.534 LINE",
"201.756 38.134 LINE SMOOTH",
"192.015 12.447 OFFCURVE",
"177.763 -2.849 OFFCURVE",
"145.328 -2.849 CURVE SMOOTH",
"124.452 -2.849 OFFCURVE",
"97.945 4.137 OFFCURVE",
"80.175 16.659 CURVE",
"8.299 -129.299 LINE",
"40.865 -154.105 OFFCURVE",
"103.452 -170.388 OFFCURVE",
"156.319 -170.388 CURVE SMOOTH",
"262.179 -170.388 OFFCURVE",
"342.525 -132.927 OFFCURVE"
);
},
{
closed = 1;
nodes = (
"339.6 113.755 LINE",
"209.984 458.259 LINE",
"-15.639 458.259 LINE",
"185.007 -22.503 LINE"
);
}
);
width = 563.92328;
}
);
unicode = 0079;
},
{
glyphname = z;
lastChange = "2017-08-14 18:56:15 +0000";
layers = (
{
anchors = (
{
name = bottom;
position = "{250.255, 0}";
},
{
name = top;
position = "{251.66, 458.259}";
}
);
layerId = "A6C82697-316E-4547-A671-3FAC8B05BD53";
paths = (
{
closed = 1;
nodes = (
"482.299 0 LINE",
"482.299 155.132 LINE",
"202.106 155.132 LINE",
"236.919 87.155 LINE",
"472.151 336.038 LINE",
"472.151 458.259 LINE",
"30.322 458.259 LINE",
"30.322 303.127 LINE",
"293.74 303.127 LINE",
"258.365 371.104 LINE",
"23.133 122.221 LINE",
"23.133 0 LINE"
);
}
);
width = 493.31443;
}
);
unicode = 007A;
},
{
glyphname = a.ss01;
lastChange = "2017-08-14 18:56:15 +0000";
layers = (
{
anchors = (
{
name = bottom;
position = "{310.599, 0}";
},
{
name = ogonek;
position = "{557.182, 0}";
},
{
name = top;
position = "{310.599, 458.259}";
}
);
layerId = "A6C82697-316E-4547-A671-3FAC8B05BD53";
paths = (
{
closed = 1;
nodes = (
"402.733 229.545 CURVE SMOOTH",
"402.733 395.819 OFFCURVE",
"354.488 467.433 OFFCURVE",
"235.342 467.433 CURVE SMOOTH",
"115.21 467.433 OFFCURVE",
"13.132 378.639 OFFCURVE",
"13.132 229.545 CURVE SMOOTH",
"13.132 80.451 OFFCURVE",
"115.21 -9.174 OFFCURVE",
"235.342 -9.174 CURVE SMOOTH",
"362.379 -9.174 OFFCURVE",
"402.733 60.408 OFFCURVE"
);
},
{
closed = 1;
nodes = (
"230.298 229.545 CURVE SMOOTH",
"230.298 279.661 OFFCURVE",
"254.866 301.803 OFFCURVE",
"285.65 301.803 CURVE SMOOTH",
"316.434 301.803 OFFCURVE",
"341.002 279.661 OFFCURVE",
"341.002 229.545 CURVE SMOOTH",
"341.002 179.429 OFFCURVE",
"316.434 156.457 OFFCURVE",
"285.65 156.457 CURVE SMOOTH",
"254.866 156.457 OFFCURVE",
"230.298 179.429 OFFCURVE"
);
},
{
closed = 1;
nodes = (
"557.182 0 LINE",
"557.182 458.259 LINE",
"337.057 458.259 LINE",
"337.057 411.664 LINE",
"345.517 229.422 LINE",
"347.907 47.179 LINE",
"347.907 0 LINE"
);
}
);
width = 590.35402;
}
);
},
{
glyphname = ae.ss01;
lastChange = "2017-08-14 18:56:15 +0000";
layers = (
{
anchors = (
{
name = top;
position = "{392.979, 458.259}";
}
);
layerId = "A6C82697-316E-4547-A671-3FAC8B05BD53";
paths = (
{
closed = 1;
nodes = (
"432.707 124.856 CURVE",
"332.93 124.609 LINE",
"384.241 25.877 OFFCURVE",
"481.528 -9.174 OFFCURVE",
"582.483 -9.174 CURVE SMOOTH",
"676.091 -9.174 OFFCURVE",
"742.781 15.88 OFFCURVE",
"789.448 64.324 CURVE",
"676.988 176.171 LINE",
"646.528 157.066 OFFCURVE",
"627.471 147.867 OFFCURVE",
"589.388 147.867 CURVE SMOOTH",
"536.334 147.867 OFFCURVE",
"507.817 172.748 OFFCURVE",
"507.817 222.864 CURVE SMOOTH",
"507.817 254.82 LINE SMOOTH",
"507.817 298.165 OFFCURVE",
"531.679 322.799 OFFCURVE",
"568.526 322.799 CURVE SMOOTH",
"602.55 322.799 OFFCURVE",
"624.292 298.165 OFFCURVE",
"623.169 260.786 CURVE",
"697.86 307.733 LINE",
"478.361 265.392 LINE",
"477.377 162.629 LINE",
"825.539 228.706 LINE",
"826.803 386.982 OFFCURVE",
"703.875 467.433 OFFCURVE",
"571.485 467.433 CURVE SMOOTH",
"486.878 467.433 OFFCURVE",
"411.725 437.155 OFFCURVE",
"363.232 386.134 CURVE",
"449.617 387.245 LINE",
"405.224 442.848 OFFCURVE",
"330.084 467.433 OFFCURVE",
"238.853 467.433 CURVE SMOOTH",
"168.919 467.433 OFFCURVE",
"85.6 450.138 OFFCURVE",
"29.349 417.762 CURVE",
"98.407 277.284 LINE",
"127.599 297.746 OFFCURVE",
"172.584 309.438 OFFCURVE",
"205.174 309.438 CURVE SMOOTH",
"265.116 309.438 OFFCURVE",
"287.691 288.547 OFFCURVE",
"287.691 251.291 CURVE SMOOTH",
"287.691 165.953 LINE SMOOTH",
"287.691 136.859 OFFCURVE",
"274.405 118.28 OFFCURVE",
"247.293 118.28 CURVE SMOOTH",
"225.259 118.28 OFFCURVE",
"214.943 130.367 OFFCURVE",
"214.943 145.556 CURVE SMOOTH",
"214.943 166.751 OFFCURVE",
"229.198 176.806 OFFCURVE",
"260.116 176.806 CURVE SMOOTH",
"302.631 176.806 LINE",
"302.631 278.491 LINE",
"224.464 278.491 LINE SMOOTH",
"78.123 278.491 OFFCURVE",
"7.641 231.157 OFFCURVE",
"7.641 137.09 CURVE SMOOTH",
"7.641 56.203 OFFCURVE",
"87.011 -9.174 OFFCURVE",
"216.713 -9.174 CURVE SMOOTH",
"311.605 -9.174 OFFCURVE",
"386.903 13.379 OFFCURVE"
);
}
);
width = 838.67024;
}
);
},
{
glyphname = e.ss01;
lastChange = "2017-08-14 18:56:15 +0000";
layers = (
{
anchors = (
{
name = bottom;
position = "{285.647, 0}";
},
{
name = ogonek;
position = "{384.79, 0}";
},
{
name = top;
position = "{285.647, 458.259}";
}
);
layerId = "A6C82697-316E-4547-A671-3FAC8B05BD53";
paths = (
{
closed = 1;
nodes = (
"512.916 64.324 CURVE",
"400.456 176.171 LINE",
"369.996 157.066 OFFCURVE",
"350.939 147.867 OFFCURVE",
"310.883 147.867 CURVE SMOOTH",
"255.856 147.867 OFFCURVE",
"227.339 172.748 OFFCURVE",
"227.339 222.864 CURVE SMOOTH",
"227.339 254.82 LINE SMOOTH",
"227.339 298.165 OFFCURVE",
"251.201 322.799 OFFCURVE",
"290.021 322.799 CURVE SMOOTH",
"326.018 322.799 OFFCURVE",
"347.76 298.165 OFFCURVE",
"346.637 260.786 CURVE",
"421.328 307.733 LINE",
"197.883 265.392 LINE",
"196.9 162.629 LINE",
"549.007 228.706 LINE",
"550.271 386.982 OFFCURVE",
"427.343 467.433 OFFCURVE",
"289.034 467.433 CURVE SMOOTH",
"131.414 467.433 OFFCURVE",
"13.132 369.095 OFFCURVE",
"13.132 229.545 CURVE SMOOTH",
"13.132 92.858 OFFCURVE",
"125.359 -9.174 OFFCURVE",
"303.978 -9.174 CURVE SMOOTH",
"399.559 -9.174 OFFCURVE",
"466.249 15.88 OFFCURVE"
);
}
);
width = 562.13823;
}
);
},
{
glyphname = f.ss01;
lastChange = "2017-08-14 18:56:15 +0000";
layers = (
{
layerId = "A6C82697-316E-4547-A671-3FAC8B05BD53";
paths = (
{
closed = 1;
nodes = (
"253.297 0 LINE",
"253.297 318.735 LINE",
"246.392 406.137 LINE",
"246.392 418.735 LINE SMOOTH",
"246.392 451.72 OFFCURVE",
"263.038 464.917 OFFCURVE",
"284.774 464.917 CURVE SMOOTH",
"297.895 464.917 OFFCURVE",
"311.298 460.548 OFFCURVE",
"323.004 456.459 CURVE",
"374.306 604.573 LINE",
"345.124 618.667 OFFCURVE",
"298.46 625.776 OFFCURVE",
"256.308 625.776 CURVE SMOOTH",
"113.658 625.776 OFFCURVE",
"33.172 545.219 OFFCURVE",
"33.172 420.026 CURVE SMOOTH",
"33.172 0 LINE"
);
},
{
closed = 1;
nodes = (
"339.202 274.495 LINE",
"339.202 429.627 LINE",
"155.072 429.627 LINE",
"155.072 274.495 LINE"
);
}
);
width = 353.00872;
}
);
},
{
glyphname = l.ss01;
lastChange = "2017-08-14 18:56:15 +0000";
layers = (
{
anchors = (
{
name = bottom;
position = "{202.592, 0}";
},
{
name = center;
position = "{143.235, 309.938}";
},
{
name = dot;
position = "{375.108, 309.938}";
},
{
name = top;
position = "{143.235, 616.602}";
},
{
name = topright;
position = "{308.585, 616.602}";
}
);
layerId = "A6C82697-316E-4547-A671-3FAC8B05BD53";
paths = (
{
closed = 1;
nodes = (
"330.314 2.954 CURVE",
"321.857 160.118 LINE",
"314.665 155.963 OFFCURVE",
"300.423 151.685 OFFCURVE",
"288.576 151.685 CURVE SMOOTH",
"267.546 151.685 OFFCURVE",
"253.297 163.928 OFFCURVE",
"253.297 188.323 CURVE SMOOTH",
"253.297 616.602 LINE",
"33.172 616.602 LINE",
"33.172 177.487 LINE SMOOTH",
"33.172 53.25 OFFCURVE",
"114.22 -9.174 OFFCURVE",
"242.073 -9.174 CURVE SMOOTH",
"272.097 -9.174 OFFCURVE",
"298.882 -5.85 OFFCURVE"
);
}
);
width = 341.0209;
}
);
},
{
glyphname = oe.ss01;
lastChange = "2017-08-14 18:56:15 +0000";
layers = (
{
anchors = (
{
name = bottom;
position = "{446.414, 0}";
},
{
name = top;
position = "{446.414, 458.259}";
}
);
layerId = "A6C82697-316E-4547-A671-3FAC8B05BD53";
paths = (
{
closed = 1;
nodes = (
"532.662 229.545 CURVE SMOOTH",
"532.662 369.095 OFFCURVE",
"439.181 467.433 OFFCURVE",
"281.704 467.433 CURVE SMOOTH",
"126.342 467.433 OFFCURVE",
"13.132 369.095 OFFCURVE",
"13.132 229.545 CURVE SMOOTH",
"13.132 89.995 OFFCURVE",
"126.342 -9.174 OFFCURVE",
"281.704 -9.174 CURVE SMOOTH",
"439.181 -9.174 OFFCURVE",
"532.662 89.995 OFFCURVE"
);
},
{
closed = 1;
nodes = (
"230.298 229.545 CURVE SMOOTH",
"230.298 279.661 OFFCURVE",
"254.866 301.803 OFFCURVE",
"285.65 301.803 CURVE SMOOTH",
"316.434 301.803 OFFCURVE",
"341.002 279.661 OFFCURVE",
"341.002 229.545 CURVE SMOOTH",
"341.002 179.429 OFFCURVE",
"316.434 156.457 OFFCURVE",
"285.65 156.457 CURVE SMOOTH",
"254.866 156.457 OFFCURVE",
"230.298 179.429 OFFCURVE"
);
},
{
closed = 1;
nodes = (
"843.746 64.324 CURVE",
"731.286 176.171 LINE",
"700.826 157.066 OFFCURVE",
"681.769 147.867 OFFCURVE",
"641.713 147.867 CURVE SMOOTH",
"586.686 147.867 OFFCURVE",
"558.169 172.748 OFFCURVE",
"558.169 222.864 CURVE SMOOTH",
"558.169 254.82 LINE SMOOTH",
"558.169 298.165 OFFCURVE",
"582.031 322.799 OFFCURVE",
"620.851 322.799 CURVE SMOOTH",
"656.848 322.799 OFFCURVE",
"678.59 298.165 OFFCURVE",
"677.467 260.786 CURVE",
"752.158 307.733 LINE",
"528.713 265.392 LINE",
"527.73 162.629 LINE",
"879.837 228.706 LINE",
"881.101 386.982 OFFCURVE",
"758.173 467.433 OFFCURVE",
"619.864 467.433 CURVE SMOOTH",
"464.217 467.433 OFFCURVE",
"360.591 369.095 OFFCURVE",
"360.591 229.545 CURVE SMOOTH",
"360.591 92.858 OFFCURVE",
"464.08 -9.174 OFFCURVE",
"634.808 -9.174 CURVE SMOOTH",
"730.389 -9.174 OFFCURVE",
"797.079 15.88 OFFCURVE"
);
}
);
width = 892.96821;
}
);
},
{
glyphname = t.ss01;
lastChange = "2017-08-14 18:56:15 +0000";
layers = (
{
anchors = (
{
name = bottom;
position = "{211.771, 0}";
},
{
name = center;
position = "{155.51, 211.214}";
},
{
name = top;
position = "{142.104, 561.706}";
},
{
name = topright;
position = "{289.703, 616.602}";
}
);
layerId = "A6C82697-316E-4547-A671-3FAC8B05BD53";
paths = (
{
closed = 1;
nodes = (
"373.176 13.938 CURVE",
"321.874 162.052 LINE",
"310.167 155.099 OFFCURVE",
"296.765 151.685 OFFCURVE",
"283.643 151.685 CURVE SMOOTH",
"266.84 151.685 OFFCURVE",
"252.167 164.882 OFFCURVE",
"252.167 188.323 CURVE SMOOTH",
"252.167 561.706 LINE",
"32.041 561.706 LINE",
"32.041 187.032 LINE SMOOTH",
"32.041 52.295 OFFCURVE",
"112.809 -9.174 OFFCURVE",
"250.245 -9.174 CURVE SMOOTH",
"297.33 -9.174 OFFCURVE",
"342.021 -2.065 OFFCURVE"
);
},
{
closed = 1;
nodes = (
"338.072 274.495 LINE",
"338.072 429.627 LINE",
"153.942 429.627 LINE",
"153.942 274.495 LINE"
);
}
);
width = 374.60372;
}
);
},
{
glyphname = w.ss01;
lastChange = "2017-08-14 18:56:15 +0000";
layers = (
{
anchors = (
{
name = bottom;
position = "{432.313, 0}";
},
{
name = top;
position = "{432.313, 458.259}";
}
);
layerId = "A6C82697-316E-4547-A671-3FAC8B05BD53";
paths = (
{
closed = 1;
nodes = (
"480.367 98.231 CURVE",
"384.258 98.231 LINE",
"429.364 13.412 OFFCURVE",
"500.421 -9.174 OFFCURVE",
"582.349 -9.174 CURVE SMOOTH",
"739.26 -9.174 OFFCURVE",
"832.584 68.422 OFFCURVE",
"832.584 205.199 CURVE SMOOTH",
"832.584 458.259 LINE",
"612.458 458.259 LINE",
"612.458 219.515 LINE SMOOTH",
"612.458 176.697 OFFCURVE",
"599.604 160.274 OFFCURVE",
"577.417 160.274 CURVE SMOOTH",
"555.23 160.274 OFFCURVE",
"542.376 176.697 OFFCURVE",
"542.376 218.898 CURVE SMOOTH",
"542.376 458.259 LINE",
"322.25 458.259 LINE",
"322.25 218.898 LINE SMOOTH",
"322.25 176.697 OFFCURVE",
"309.396 160.274 OFFCURVE",
"287.209 160.274 CURVE SMOOTH",
"265.021 160.274 OFFCURVE",
"252.167 176.697 OFFCURVE",
"252.167 219.515 CURVE SMOOTH",
"252.167 458.259 LINE",
"32.041 458.259 LINE",
"32.041 205.199 LINE SMOOTH",
"32.041 68.422 OFFCURVE",
"125.365 -9.174 OFFCURVE",
"282.276 -9.174 CURVE SMOOTH",
"365.191 -9.174 OFFCURVE",
"435.262 13.412 OFFCURVE"
);
}
);
width = 864.62552;
}
);
},
{
glyphname = y.ss01;
lastChange = "2017-08-14 18:56:15 +0000";
layers = (
{
anchors = (
{
name = bottom;
position = "{604.853, 0}";
},
{
name = top;
position = "{300.036, 458.259}";
}
);
layerId = "A6C82697-316E-4547-A671-3FAC8B05BD53";
paths = (
{
closed = 1;
nodes = (
"565.07 98.353 CURVE SMOOTH",
"565.07 458.259 LINE",
"344.945 458.259 LINE",
"344.945 69.137 LINE SMOOTH",
"344.945 18.346 OFFCURVE",
"317.154 -12.393 OFFCURVE",
"246.206 -12.393 CURVE SMOOTH",
"200.087 -12.393 OFFCURVE",
"138.754 4.071 OFFCURVE",
"102.797 29.149 CURVE",
"29.794 -116.101 LINE",
"90.833 -152.385 OFFCURVE",
"175.283 -170.388 OFFCURVE",
"268.754 -170.388 CURVE SMOOTH",
"452.723 -170.388 OFFCURVE",
"565.07 -83.372 OFFCURVE"
);
},
{
closed = 1;
nodes = (
"424.712 209.659 CURVE",
"344.945 283.362 LINE",
"344.945 222.221 OFFCURVE",
"318.555 205.526 OFFCURVE",
"298.34 205.526 CURVE SMOOTH",
"271.93 205.526 OFFCURVE",
"255.127 221.949 OFFCURVE",
"255.127 280.597 CURVE SMOOTH",
"255.127 458.259 LINE",
"35 458.259 LINE",
"35 243.375 LINE SMOOTH",
"35 90.768 OFFCURVE",
"121.283 26.534 OFFCURVE",
"232.109 26.534 CURVE SMOOTH",
"323.069 26.534 OFFCURVE",
"404.984 84.359 OFFCURVE"
);
}
);
width = 598.24212;
}
);
},
{
glyphname = z.ss01;
lastChange = "2017-08-14 18:56:15 +0000";
layers = (
{
anchors = (
{
name = bottom;
position = "{260.822, 0}";
},
{
name = top;
position = "{260.822, 458.259}";
}
);
layerId = "A6C82697-316E-4547-A671-3FAC8B05BD53";
paths = (
{
closed = 1;
nodes = (
"491.462 0 LINE",
"491.462 138.907 LINE",
"211.268 138.907 LINE",
"246.081 87.155 LINE",
"481.313 336.038 LINE",
"481.313 458.259 LINE",
"39.485 458.259 LINE",
"39.485 319.352 LINE",
"302.902 319.352 LINE",
"267.527 371.104 LINE",
"32.295 122.221 LINE",
"32.295 0 LINE"
);
},
{
closed = 1;
nodes = (
"500.519 166.464 LINE",
"499.536 294.354 LINE",
"331.074 294.354 LINE",
"271.887 295.827 LINE",
"30.986 295.827 LINE",
"31.969 167.937 LINE",
"206.493 167.937 LINE",
"265.68 166.464 LINE"
);
}
);
width = 511.63879;
}
);
},
{
glyphname = a.sc;
lastChange = "2017-08-14 18:56:15 +0000";
layers = (
{
anchors = (
{
name = bottom;
position = "{280.711, 0}";
},
{
name = ogonek;
position = "{533.511, 0}";
},
{
name = top;
position = "{288.462, 486.48}";
},
{
name = topleft;
position = "{85.727, 486.48}";
}
);
layerId = "A6C82697-316E-4547-A671-3FAC8B05BD53";
paths = (
{
closed = 1;
nodes = (
"192.94 0 LINE",
"287.616 285.907 LINE",
"374.966 0 LINE",
"596.643 0 LINE",
"400.498 486.48 LINE",
"186.572 486.48 LINE",
"-19.719 0 LINE"
);
},
{
closed = 1;
nodes = (
"420.729 46.076 LINE",
"420.729 186.769 LINE",
"140.553 186.769 LINE",
"140.553 46.076 LINE"
);
}
);
width = 577.91105;
}
);
},
{
glyphname = ae.sc;
lastChange = "2017-08-14 18:56:15 +0000";
layers = (
{
anchors = (
{
name = bottom;
position = "{593.958, 0}";
},
{
name = ogonek;
position = "{812.202, 6.648}";
},
{
name = top;
position = "{502.192, 486.48}";
}
);
layerId = "A6C82697-316E-4547-A671-3FAC8B05BD53";
paths = (
{
closed = 1;
nodes = (
"191.105 0 LINE",
"347.401 334.212 LINE",
"559.176 334.212 LINE",
"550.722 486.48 LINE",
"249.316 486.48 LINE",
"-23.527 0 LINE"
);
},
{
closed = 1;
nodes = (
"460.437 65.132 LINE",
"464.242 208.811 LINE",
"161.699 208.811 LINE",
"157.894 65.132 LINE"
);
},
{
closed = 1;
nodes = (
"819.248 0 LINE",
"819.248 150.236 LINE",
"565.143 150.236 LINE",
"565.143 167.073 LINE",
"792.45 167.073 LINE",
"792.45 317.433 LINE",
"565.143 317.433 LINE",
"565.143 336.12 LINE",
"813.888 336.12 LINE",
"813.888 486.48 LINE",
"356.855 486.48 LINE",
"356.855 0 LINE"
);
}
);
width = 862.24657;
}
);
},
{
glyphname = b.sc;
lastChange = "2017-08-14 18:56:15 +0000";
layers = (
{
layerId = "A6C82697-316E-4547-A671-3FAC8B05BD53";
paths = (
{
closed = 1;
nodes = (
"334.006 0 LINE",
"458.923 0 OFFCURVE",
"543.228 55.249 OFFCURVE",
"543.228 138.012 CURVE SMOOTH",
"543.228 196.98 OFFCURVE",
"505.155 246.873 OFFCURVE",
"449.59 260.909 CURVE",
"498.805 277.438 OFFCURVE",
"530.672 318.404 OFFCURVE",
"530.672 363.213 CURVE SMOOTH",
"530.672 436.341 OFFCURVE",
"446.935 486.48 OFFCURVE",
"318.223 486.48 CURVE SMOOTH",
"47.547 486.48 LINE",
"47.547 0 LINE"
);
},
{
closed = 1;
nodes = (
"254.849 179.233 LINE",
"306.526 179.233 LINE SMOOTH",
"317.715 179.233 OFFCURVE",
"327.048 172.626 OFFCURVE",
"327.048 163.657 CURVE SMOOTH",
"327.048 153.026 OFFCURVE",
"317.715 144.51 OFFCURVE",
"306.526 144.51 CURVE SMOOTH",
"254.849 144.51 LINE"
);
},
{
closed = 1;
nodes = (
"254.849 341.847 LINE",
"306.526 341.847 LINE SMOOTH",
"311.506 341.847 OFFCURVE",
"317.451 334.869 OFFCURVE",
"317.451 326.114 CURVE SMOOTH",
"317.451 316.528 OFFCURVE",
"311.506 308.596 OFFCURVE",
"306.526 308.596 CURVE SMOOTH",
"254.849 308.596 LINE"
);
}
);
width = 558.0622;
}
);
},
{
glyphname = c.sc;
lastChange = "2017-08-14 18:56:15 +0000";
layers = (
{
anchors = (
{
name = bottom;
position = "{263.123, 0}";
},
{
name = top;
position = "{289.339, 486.48}";
}
);
layerId = "A6C82697-316E-4547-A671-3FAC8B05BD53";
paths = (
{
closed = 1;
nodes = (
"508.422 94.191 CURVE",
"387.93 218.568 LINE",
"358.313 184.743 OFFCURVE",
"316.993 162.183 OFFCURVE",
"288.352 162.183 CURVE SMOOTH",
"249.105 162.183 OFFCURVE",
"222.835 196.049 OFFCURVE",
"222.835 247.95 CURVE SMOOTH",
"222.835 298.774 OFFCURVE",
"249.105 331.809 OFFCURVE",
"288.352 331.809 CURVE SMOOTH",
"319.952 331.809 OFFCURVE",
"362.118 304.353 OFFCURVE",
"387.93 262.894 CURVE",
"508.422 401.587 LINE",
"455.552 460.81 OFFCURVE",
"364.626 499.348 OFFCURVE",
"285.393 499.348 CURVE SMOOTH",
"123.399 499.348 OFFCURVE",
"9.614 394.766 OFFCURVE",
"9.614 245.087 CURVE SMOOTH",
"9.614 93.377 OFFCURVE",
"120.44 -13.946 OFFCURVE",
"277.502 -13.946 CURVE SMOOTH",
"357.721 -13.946 OFFCURVE",
"449.634 29.241 OFFCURVE"
);
}
);
width = 503.51043;
}
);
},
{
glyphname = d.sc;
lastChange = "2017-08-14 18:56:15 +0000";
layers = (
{
anchors = (
{
name = bottom;
position = "{280.728, 0}";
},
{
name = center;
position = "{152.986, 244.133}";
},
{
name = top;
position = "{273.96, 486.48}";
}
);
layerId = "A6C82697-316E-4547-A671-3FAC8B05BD53";
paths = (
{
closed = 1;
nodes = (
"271.717 0 LINE",
"449.493 0 OFFCURVE",
"557.36 92.422 OFFCURVE",
"557.36 244.256 CURVE SMOOTH",
"557.36 395.013 OFFCURVE",
"452.453 486.48 OFFCURVE",
"279.608 486.48 CURVE SMOOTH",
"47.547 486.48 LINE",
"47.547 0 LINE"
);
},
{
closed = 1;
nodes = (
"255.835 332.303 LINE",
"275.662 332.303 LINE SMOOTH",
"320.829 332.303 OFFCURVE",
"345.266 299.021 OFFCURVE",
"345.266 242.347 CURVE SMOOTH",
"345.266 185.551 OFFCURVE",
"325.761 154.054 OFFCURVE",
"285.386 154.054 CURVE SMOOTH",
"255.835 154.054 LINE"
);
}
);
width = 566.97396;
}
);
},
{
glyphname = e.sc;
lastChange = "2017-08-14 18:56:15 +0000";
layers = (
{
anchors = (
{
name = bottom;
position = "{278.18, 0}";
},
{
name = ogonek;
position = "{509.8, 0}";
},
{
name = top;
position = "{275.502, 486.48}";
},
{
name = topleft;
position = "{4.672, 486.48}";
}
);
layerId = "A6C82697-316E-4547-A671-3FAC8B05BD53";
paths = (
{
closed = 1;
nodes = (
"509.8 0 LINE",
"509.8 150.236 LINE",
"255.835 150.236 LINE",
"255.835 167.073 LINE",
"483.002 167.073 LINE",
"483.002 317.433 LINE",
"255.835 317.433 LINE",
"255.835 336.12 LINE",
"504.439 336.12 LINE",
"504.439 486.48 LINE",
"47.547 486.48 LINE",
"47.547 0 LINE"
);
}
);
width = 552.79838;
}
);
},
{
glyphname = f.sc;
lastChange = "2017-08-14 18:56:15 +0000";
layers = (
{
layerId = "A6C82697-316E-4547-A671-3FAC8B05BD53";
paths = (
{
closed = 1;
nodes = (
"255.835 0 LINE",
"255.835 138.169 LINE",
"473.548 138.169 LINE",
"473.548 288.406 LINE",
"255.835 288.406 LINE",
"255.835 336.12 LINE",
"484.276 336.12 LINE",
"483.289 486.48 LINE",
"47.547 486.48 LINE",
"47.547 0 LINE"
);
}
);
width = 510.21751;
}
);
},
{
glyphname = g.sc;
lastChange = "2017-08-14 18:56:15 +0000";
layers = (
{
anchors = (
{
name = bottom;
position = "{292.569, 0}";
},
{
name = top;
position = "{306.379, 486.48}";
}
);
layerId = "A6C82697-316E-4547-A671-3FAC8B05BD53";
paths = (
{
closed = 1;
nodes = (
"518.146 50.411 CURVE",
"400.754 191.968 LINE",
"366.064 170.427 OFFCURVE",
"319.952 153.593 OFFCURVE",
"300.049 153.593 CURVE SMOOTH",
"254.037 153.593 OFFCURVE",
"222.835 189.492 OFFCURVE",
"222.835 243.055 CURVE SMOOTH",
"222.835 295.911 OFFCURVE",
"253.05 331.809 OFFCURVE",
"298.217 331.809 CURVE SMOOTH",
"333.762 331.809 OFFCURVE",
"379.874 311.034 OFFCURVE",
"411.604 281.028 CURVE",
"528.151 419.721 LINE",
"472.322 467.491 OFFCURVE",
"380.409 499.348 OFFCURVE",
"299.203 499.348 CURVE SMOOTH",
"129.318 499.348 OFFCURVE",
"9.614 393.811 OFFCURVE",
"9.614 243.055 CURVE SMOOTH",
"9.614 92.422 OFFCURVE",
"123.399 -13.946 OFFCURVE",
"285.393 -13.946 CURVE SMOOTH",
"358.707 -13.946 OFFCURVE",
"459.358 14.094 OFFCURVE"
);
},
{
closed = 1;
nodes = (
"518.146 50.411 LINE",
"518.146 263.007 LINE",
"340.437 263.007 LINE",
"340.437 50.411 LINE"
);
}
);
width = 552.29079;
}
);
},
{
glyphname = h.sc;
lastChange = "2017-08-14 18:56:15 +0000";
layers = (
{
anchors = (
{
name = bottom;
position = "{305.396, 0}";
},
{
name = center;
position = "{304.409, 393.597}";
},
{
name = top;
position = "{314.274, 486.48}";
}
);
layerId = "A6C82697-316E-4547-A671-3FAC8B05BD53";
paths = (
{
closed = 1;
nodes = (
"255.835 0 LINE",
"255.835 160.178 LINE",
"354.251 160.178 LINE",
"354.251 0 LINE",
"561.412 0 LINE",
"561.412 486.48 LINE",
"354.251 486.48 LINE",
"354.251 310.415 LINE",
"255.835 310.415 LINE",
"255.835 486.48 LINE",
"47.547 486.48 LINE",
"47.547 0 LINE"
);
}
);
width = 608.95925;
}
);
},
{
glyphname = i.sc;
lastChange = "2017-08-14 18:56:15 +0000";
layers = (
{
anchors = (
{
name = bottom;
position = "{150.989, 0}";
},
{
name = ogonek;
position = "{206.798, 0}";
},
{
name = top;
position = "{150.989, 486.48}";
},
{
name = topleft;
position = "{3.969, 486.48}";
}
);
layerId = "A6C82697-316E-4547-A671-3FAC8B05BD53";
paths = (
{
closed = 1;
nodes = (
"255.133 0 LINE",
"255.133 486.48 LINE",
"46.845 486.48 LINE",
"46.845 0 LINE"
);
}
);
width = 301.978;
}
);
},
{
glyphname = j.sc;
lastChange = "2017-08-14 18:56:15 +0000";
layers = (
{
anchors = (
{
name = top;
position = "{242.337, 486.48}";
}
);
layerId = "A6C82697-316E-4547-A671-3FAC8B05BD53";
paths = (
{
closed = 1;
nodes = (
"418.257 172.337 CURVE",
"418.257 486.48 LINE",
"42.454 486.48 LINE",
"42.454 329.44 LINE",
"209.123 329.44 LINE",
"209.123 176.032 LINE",
"209.123 161.492 OFFCURVE",
"200.365 156.917 OFFCURVE",
"189.617 156.917 CURVE",
"170.005 156.917 OFFCURVE",
"129.963 171.966 OFFCURVE",
"87.388 210.899 CURVE",
"-5.484 81.997 LINE",
"51.606 24.222 OFFCURVE",
"121.386 -8.59 OFFCURVE",
"211.319 -8.59 CURVE",
"336.64 -8.59 OFFCURVE",
"418.257 57.034 OFFCURVE"
);
}
);
width = 454.95003;
}
);
},
{
glyphname = k.sc;
lastChange = "2017-08-14 18:56:15 +0000";
layers = (
{
anchors = (
{
name = bottom;
position = "{301.848, 0}";
},
{
name = top;
position = "{301.848, 486.48}";
}
);
layerId = "A6C82697-316E-4547-A671-3FAC8B05BD53";
paths = (
{
closed = 1;
nodes = (
"255.835 0 LINE",
"255.835 113.905 LINE",
"596.904 486.48 LINE",
"359.019 486.48 LINE",
"255.835 351.79 LINE",
"255.835 486.48 LINE",
"47.547 486.48 LINE",
"47.547 0 LINE"
);
},
{
closed = 1;
nodes = (
"606.213 0 LINE",
"413.733 317.951 LINE",
"274.358 159.833 LINE",
"358.464 0 LINE"
);
}
);
width = 587.90231;
}
);
},
{
glyphname = l.sc;
lastChange = "2017-08-14 18:56:15 +0000";
layers = (
{
anchors = (
{
name = bottom;
position = "{254.201, 0}";
},
{
name = center;
position = "{391.209, 303.175}";
},
{
name = top;
position = "{143.663, 486.48}";
},
{
name = topright;
position = "{323.59, 486.48}";
}
);
layerId = "A6C82697-316E-4547-A671-3FAC8B05BD53";
paths = (
{
closed = 1;
nodes = (
"460.009 0 LINE",
"460.009 166.461 LINE",
"255.835 166.461 LINE",
"255.835 486.48 LINE",
"47.547 486.48 LINE",
"47.547 0 LINE"
);
}
);
width = 460.85849;
}
);
},
{
glyphname = m.sc;
lastChange = "2017-08-14 18:56:15 +0000";
layers = (
{
anchors = (
{
name = bottom;
position = "{359.108, 0}";
}
);
layerId = "A6C82697-316E-4547-A671-3FAC8B05BD53";
paths = (
{
closed = 1;
nodes = (
"228.215 0 LINE",
"228.215 211.34 LINE",
"290.339 45.919 LINE",
"427.738 45.919 LINE",
"490.001 211.34 LINE",
"490.001 0 LINE",
"670.67 0 LINE",
"670.67 486.48 LINE",
"454.202 486.48 LINE",
"358.968 271.948 LINE",
"263.874 486.48 LINE",
"47.547 486.48 LINE",
"47.547 0 LINE"
);
}
);
width = 718.21676;
}
);
},
{
glyphname = n.sc;
lastChange = "2017-08-14 18:56:15 +0000";
layers = (
{
anchors = (
{
name = bottom;
position = "{313.849, 0}";
},
{
name = top;
position = "{301.738, 486.48}";
}
);
layerId = "A6C82697-316E-4547-A671-3FAC8B05BD53";
paths = (
{
closed = 1;
nodes = (
"235.12 0 LINE",
"235.12 189.636 LINE",
"391.732 0 LINE",
"561.412 0 LINE",
"561.412 486.48 LINE",
"374.966 486.48 LINE",
"374.966 294.936 LINE",
"217.227 486.48 LINE",
"47.547 486.48 LINE",
"47.547 0 LINE"
);
}
);
width = 608.95925;
}
);
},
{
glyphname = eng.sc;
lastChange = "2017-08-14 18:56:15 +0000";
layers = (
{
anchors = (
{
name = bottom;
position = "{305.396, 0}";
},
{
name = top;
position = "{305.396, 486.48}";
}
);
layerId = "A6C82697-316E-4547-A671-3FAC8B05BD53";
paths = (
{
closed = 1;
nodes = (
"235.12 0 LINE",
"235.12 189.636 LINE",
"391.732 0 LINE",
"561.412 0 LINE",
"561.412 486.48 LINE",
"374.966 486.48 LINE",
"374.966 294.936 LINE",
"217.227 486.48 LINE",
"47.547 486.48 LINE",
"47.547 0 LINE"
);
},
{
closed = 1;
nodes = (
"561.412 0 CURVE",
"379.898 28.262 LINE",
"379.898 10.029 OFFCURVE",
"374.099 2.59 OFFCURVE",
"355.46 2.59 CURVE SMOOTH",
"346.699 2.59 OFFCURVE",
"330.331 3.323 OFFCURVE",
"303.399 5.158 CURVE",
"239.274 -147.604 LINE",
"276.635 -157.782 OFFCURVE",
"312.876 -162.917 OFFCURVE",
"355.46 -162.917 CURVE SMOOTH",
"472.89 -162.917 OFFCURVE",
"552.534 -103.973 OFFCURVE"
);
}
);
width = 608.95925;
}
);
},
{
glyphname = o.sc;
lastChange = "2017-08-14 18:56:15 +0000";
layers = (
{
anchors = (
{
name = bottom;
position = "{291.73, 0}";
},
{
name = center;
position = "{291.73, 244.009}";
},
{
name = ogonek;
position = "{480.069, 46.017}";
},
{
name = top;
position = "{291.73, 486.48}";
},
{
name = topleft;
position = "{21.294, 492.791}";
},
{
name = topright;
position = "{417.924, 486.48}";
}
);
layerId = "A6C82697-316E-4547-A671-3FAC8B05BD53";
paths = (
{
closed = 1;
nodes = (
"571.314 244.009 CURVE SMOOTH",
"571.314 394.766 OFFCURVE",
"455.696 499.348 OFFCURVE",
"291.73 499.348 CURVE SMOOTH",
"126.776 499.348 OFFCURVE",
"11.018 394.766 OFFCURVE",
"11.018 244.009 CURVE SMOOTH",
"11.018 92.422 OFFCURVE",
"126.776 -13.946 OFFCURVE",
"291.73 -13.946 CURVE SMOOTH",
"455.696 -13.946 OFFCURVE",
"571.314 93.377 OFFCURVE"
);
},
{
closed = 1;
nodes = (
"224.239 243.055 CURVE SMOOTH",
"224.239 296.865 OFFCURVE",
"257.274 331.933 OFFCURVE",
"294.689 331.933 CURVE SMOOTH",
"329.991 331.933 OFFCURVE",
"358.234 296.865 OFFCURVE",
"358.234 243.055 CURVE SMOOTH",
"358.234 190.323 OFFCURVE",
"329.991 153.47 OFFCURVE",
"294.689 153.47 CURVE SMOOTH",
"258.26 153.47 OFFCURVE",
"224.239 190.323 OFFCURVE"
);
}
);
width = 582.33225;
}
);
},
{
glyphname = p.sc;
lastChange = "2017-08-14 18:56:15 +0000";
layers = (
{
layerId = "A6C82697-316E-4547-A671-3FAC8B05BD53";
paths = (
{
closed = 1;
nodes = (
"255.835 0 LINE",
"255.835 114.818 LINE",
"301.437 114.818 LINE SMOOTH",
"433.968 114.818 OFFCURVE",
"509.82 185.642 OFFCURVE",
"509.82 307.561 CURVE SMOOTH",
"509.82 422.09 OFFCURVE",
"433.968 486.48 OFFCURVE",
"301.437 486.48 CURVE SMOOTH",
"47.547 486.48 LINE",
"47.547 0 LINE"
);
},
{
closed = 1;
nodes = (
"255.835 336.12 LINE",
"289.599 336.12 LINE SMOOTH",
"304.597 336.12 OFFCURVE",
"313.369 322.404 OFFCURVE",
"313.369 301.834 CURVE SMOOTH",
"313.369 279.602 OFFCURVE",
"304.597 265.178 OFFCURVE",
"289.599 265.178 CURVE SMOOTH",
"255.835 265.178 LINE"
);
}
);
width = 513.22758;
}
);
},
{
glyphname = thorn.sc;
lastChange = "2017-08-14 18:56:15 +0000";
layers = (
{
layerId = "A6C82697-316E-4547-A671-3FAC8B05BD53";
paths = (
{
closed = 1;
nodes = (
"309.739 63.362 LINE",
"435.094 63.362 OFFCURVE",
"521.517 140.9 OFFCURVE",
"521.517 254.812 CURVE SMOOTH",
"521.517 359.551 OFFCURVE",
"435.094 431.609 OFFCURVE",
"309.739 431.609 CURVE SMOOTH",
"217.502 431.609 LINE",
"245.687 280.295 LINE",
"300.861 280.295 LINE SMOOTH",
"300.792 280.295 OFFCURVE",
"307.45 264.761 OFFCURVE",
"307.45 248.255 CURVE SMOOTH",
"307.45 230.087 OFFCURVE",
"300.792 214.676 OFFCURVE",
"300.861 214.676 CURVE SMOOTH",
"245.546 214.676 LINE",
"245.546 63.362 LINE"
);
},
{
closed = 1;
nodes = (
"255.835 0 LINE",
"255.835 486.48 LINE",
"47.547 486.48 LINE",
"47.547 0 LINE"
);
}
);
width = 522.10551;
}
);
},
{
glyphname = q.sc;
lastChange = "2017-08-14 18:56:15 +0000";
layers = (
{
anchors = (
{
name = bottom;
position = "{293.285, 0}";
},
{
name = center;
position = "{290.325, 244.009}";
},
{
name = ogonek;
position = "{479.511, 0}";
},
{
name = top;
position = "{280.461, 486.48}";
},
{
name = topleft;
position = "{-15.615, 486.48}";
},
{
name = topright;
position = "{346.024, 507.633}";
}
);
layerId = "A6C82697-316E-4547-A671-3FAC8B05BD53";
paths = (
{
closed = 1;
nodes = (
"569.91 244.009 CURVE SMOOTH",
"569.91 394.766 OFFCURVE",
"454.292 499.348 OFFCURVE",
"290.325 499.348 CURVE SMOOTH",
"125.372 499.348 OFFCURVE",
"9.614 394.766 OFFCURVE",
"9.614 244.009 CURVE SMOOTH",
"9.614 92.422 OFFCURVE",
"125.372 -13.946 OFFCURVE",
"290.325 -13.946 CURVE SMOOTH",
"454.292 -13.946 OFFCURVE",
"569.91 93.377 OFFCURVE"
);
},
{
closed = 1;
nodes = (
"589.09 -78.097 CURVE",
"521.865 39.476 LINE",
"495.917 22.09 OFFCURVE",
"464.896 10.119 OFFCURVE",
"448.531 10.119 CURVE SMOOTH",
"430.045 10.119 OFFCURVE",
"416.493 27.167 OFFCURVE",
"418.154 45.038 CURVE",
"258.626 -2.156 LINE",
"275.285 -79.66 OFFCURVE",
"341.263 -132.729 OFFCURVE",
"425.983 -132.729 CURVE SMOOTH",
"481.949 -132.729 OFFCURVE",
"549.893 -109.428 OFFCURVE"
);
},
{
closed = 1;
nodes = (
"222.835 243.055 CURVE SMOOTH",
"222.835 296.865 OFFCURVE",
"255.869 331.933 OFFCURVE",
"293.285 331.933 CURVE SMOOTH",
"328.586 331.933 OFFCURVE",
"356.829 296.865 OFFCURVE",
"356.829 243.055 CURVE SMOOTH",
"356.829 190.323 OFFCURVE",
"328.586 153.47 OFFCURVE",
"293.285 153.47 CURVE SMOOTH",
"256.856 153.47 OFFCURVE",
"222.835 190.323 OFFCURVE"
);
}
);
width = 585.58258;
}
);
},
{
glyphname = r.sc;
lastChange = "2017-08-14 18:56:15 +0000";
layers = (
{
anchors = (
{
name = bottom;
position = "{283.256, 0}";
},
{
name = top;
position = "{261.829, 486.48}";
}
);
layerId = "A6C82697-316E-4547-A671-3FAC8B05BD53";
paths = (
{
closed = 1;
nodes = (
"255.835 0 LINE",
"255.835 114.818 LINE",
"310.314 114.818 LINE SMOOTH",
"449.751 114.818 OFFCURVE",
"530.395 185.642 OFFCURVE",
"530.395 307.561 CURVE SMOOTH",
"530.395 422.09 OFFCURVE",
"449.751 486.48 OFFCURVE",
"310.314 486.48 CURVE SMOOTH",
"47.547 486.48 LINE",
"47.547 0 LINE"
);
},
{
closed = 1;
nodes = (
"555.056 0 LINE",
"444.784 185.872 LINE",
"244.949 185.872 LINE",
"320.695 0 LINE"
);
},
{
closed = 1;
nodes = (
"255.835 336.12 LINE",
"310.314 336.12 LINE SMOOTH",
"324.326 336.12 OFFCURVE",
"332.957 322.404 OFFCURVE",
"332.957 301.834 CURVE SMOOTH",
"332.957 279.602 OFFCURVE",
"324.326 265.178 OFFCURVE",
"310.314 265.178 CURVE SMOOTH",
"255.835 265.178 LINE"
);
}
);
width = 554.66805;
}
);
},
{
glyphname = s.sc;
lastChange = "2017-08-14 18:56:15 +0000";
layers = (
{
anchors = (
{
name = bottom;
position = "{260.685, 0}";
},
{
name = top;
position = "{275.906, 486.48}";
}
);
layerId = "A6C82697-316E-4547-A671-3FAC8B05BD53";
paths = (
{
closed = 1;
nodes = (
"499.771 157.873 CURVE",
"499.631 337.155 OFFCURVE",
"248.208 308.917 OFFCURVE",
"248.208 348 CURVE",
"248.208 352.386 OFFCURVE",
"249.225 351.021 OFFCURVE",
"249.272 351.021 CURVE",
"294.672 351.021 OFFCURVE",
"382.351 314.696 OFFCURVE",
"435.355 286.162 CURVE",
"508.92 438.677 LINE",
"446.473 475.677 OFFCURVE",
"355.129 502.212 OFFCURVE",
"268.014 502.212 CURVE",
"127.606 502.212 OFFCURVE",
"37.1 435.016 OFFCURVE",
"37.1 327.957 CURVE",
"37.1 154.739 OFFCURVE",
"288.523 186.918 OFFCURVE",
"288.664 147.375 CURVE",
"288.664 140.035 OFFCURVE",
"284.403 140.108 OFFCURVE",
"278.293 140.108 CURVE",
"229.643 140.108 OFFCURVE",
"132.093 177.569 OFFCURVE",
"78.099 220.567 CURVE",
"2.983 69.713 LINE",
"77.13 17.418 OFFCURVE",
"183.983 -11.083 OFFCURVE",
"277.307 -11.083 CURVE",
"392.072 -11.083 OFFCURVE",
"499.771 37.486 OFFCURVE"
);
}
);
width = 525.16464;
}
);
},
{
glyphname = germandbls.sc;
lastChange = "2017-08-14 18:56:15 +0000";
layers = (
{
layerId = "A6C82697-316E-4547-A671-3FAC8B05BD53";
paths = (
{
closed = 1;
nodes = (
"234.833 0 LINE",
"234.833 236.63 LINE SMOOTH",
"234.833 298.914 OFFCURVE",
"268.549 337.075 OFFCURVE",
"330.047 337.075 CURVE SMOOTH",
"376.443 337.075 OFFCURVE",
"404.087 318.299 OFFCURVE",
"426.37 295.492 CURVE",
"406.361 425.842 LINE",
"292.278 286.366 LINE",
"292.278 190.407 LINE",
"300.313 190.407 LINE",
"326.58 190.407 OFFCURVE",
"341.126 182.508 OFFCURVE",
"341.126 168.52 CURVE SMOOTH",
"341.126 153.117 OFFCURVE",
"326.015 144.51 OFFCURVE",
"299.33 144.51 CURVE SMOOTH",
"281.4 144.51 LINE",
"281.4 0 LINE",
"339.774 0 LINE SMOOTH",
"488.924 0 OFFCURVE",
"557.306 60.112 OFFCURVE",
"557.306 145.614 CURVE SMOOTH",
"557.306 233.675 OFFCURVE",
"487.379 286.366 OFFCURVE",
"380.074 286.366 CURVE",
"431.232 213.279 LINE",
"506.559 312.457 LINE",
"506.559 447.547 LINE",
"450.596 478.82 OFFCURVE",
"381.378 495.07 OFFCURVE",
"309.331 495.07 CURVE SMOOTH",
"131.147 495.07 OFFCURVE",
"27.531 391.92 OFFCURVE",
"27.531 217.542 CURVE SMOOTH",
"27.531 0 LINE"
);
}
);
width = 566.07382;
}
);
},
{
glyphname = schwa.sc;
lastChange = "2017-08-14 18:56:15 +0000";
layers = (
{
layerId = "A6C82697-316E-4547-A671-3FAC8B05BD53";
paths = (
{
closed = 1;
nodes = (
"566.231 244.009 CURVE SMOOTH",
"566.231 394.766 OFFCURVE",
"451.884 499.348 OFFCURVE",
"291.301 499.348 CURVE SMOOTH",
"208.822 499.348 OFFCURVE",
"133.956 471.465 OFFCURVE",
"85.172 424.468 CURVE",
"217.502 288.761 LINE",
"240.073 320.981 OFFCURVE",
"263.36 331.933 OFFCURVE",
"293.274 331.933 CURVE SMOOTH",
"324.065 331.933 OFFCURVE",
"352.024 305.578 OFFCURVE",
"352.024 241.64 CURVE SMOOTH",
"352.024 189.031 OFFCURVE",
"336.745 153.47 OFFCURVE",
"292.288 153.47 CURVE SMOOTH",
"287.994 153.47 OFFCURVE",
"265.673 151.472 OFFCURVE",
"244.108 180.5 CURVE",
"356.394 180.5 LINE",
"362.173 284.094 LINE",
"18.345 284.094 LINE",
"18.345 100.057 OFFCURVE",
"122.827 -13.946 OFFCURVE",
"291.301 -13.946 CURVE SMOOTH",
"451.884 -13.946 OFFCURVE",
"566.231 93.377 OFFCURVE"
);
}
);
width = 583.73322;
}
);
},
{
glyphname = t.sc;
lastChange = "2017-08-14 18:56:15 +0000";
layers = (
{
anchors = (
{
name = bottom;
position = "{236.565, 0}";
},
{
name = center;
position = "{237.552, 197.49}";
},
{
name = top;
position = "{252.348, 486.48}";
}
);
layerId = "A6C82697-316E-4547-A671-3FAC8B05BD53";
paths = (
{
closed = 1;
nodes = (
"340.71 0 LINE",
"340.71 329.44 LINE",
"476.227 329.44 LINE",
"476.227 486.48 LINE",
"-1.123 486.48 LINE",
"-1.123 329.44 LINE",
"133.407 329.44 LINE",
"133.407 0 LINE"
);
}
);
width = 475.10344;
}
);
},
{
glyphname = u.sc;
lastChange = "2017-08-14 18:56:15 +0000";
layers = (
{
anchors = (
{
name = bottom;
position = "{280.447, 0}";
},
{
name = ogonek;
position = "{459.765, 46.017}";
},
{
name = top;
position = "{280.447, 486.48}";
},
{
name = topright;
position = "{459.238, 486.48}";
}
);
layerId = "A6C82697-316E-4547-A671-3FAC8B05BD53";
paths = (
{
closed = 1;
nodes = (
"526.884 203.2 CURVE SMOOTH",
"526.884 486.48 LINE",
"318.736 486.48 LINE",
"318.736 203.2 LINE SMOOTH",
"318.736 173.678 OFFCURVE",
"298.689 153.47 OFFCURVE",
"283.407 153.47 CURVE SMOOTH",
"266.011 153.47 OFFCURVE",
"241.173 174.632 OFFCURVE",
"241.173 203.2 CURVE SMOOTH",
"241.173 486.48 LINE",
"32.884 486.48 LINE",
"32.884 203.2 LINE SMOOTH",
"32.884 73.161 OFFCURVE",
"134.808 -13.946 OFFCURVE",
"282.42 -13.946 CURVE SMOOTH",
"429.046 -13.946 OFFCURVE",
"526.884 73.161 OFFCURVE"
);
}
);
width = 559.6273;
}
);
},
{
glyphname = v.sc;
lastChange = "2017-08-14 18:56:15 +0000";
layers = (
{
layerId = "A6C82697-316E-4547-A671-3FAC8B05BD53";
paths = (
{
closed = 1;
nodes = (
"382.451 0 LINE",
"569.284 486.48 LINE",
"357.471 486.48 LINE",
"281.407 209.039 LINE",
"204.356 486.48 LINE",
"-17.321 486.48 LINE",
"167.538 0 LINE"
);
}
);
width = 550.9761;
}
);
},
{
glyphname = w.sc;
lastChange = "2017-08-14 18:56:15 +0000";
layers = (
{
anchors = (
{
name = bottom;
position = "{419.442, 0}";
},
{
name = top;
position = "{419.442, 486.48}";
}
);
layerId = "A6C82697-316E-4547-A671-3FAC8B05BD53";
paths = (
{
closed = 1;
nodes = (
"365.946 0 LINE",
"419.442 241.667 LINE",
"470.119 0 LINE",
"683.199 0 LINE",
"852.536 486.48 LINE",
"640.723 486.48 LINE",
"583.987 209.039 LINE",
"524.432 486.48 LINE",
"322.483 486.48 LINE",
"264.761 209.039 LINE",
"206.192 486.48 LINE",
"-15.485 486.48 LINE",
"151.879 0 LINE"
);
}
);
width = 836.06456;
}
);
},
{
glyphname = x.sc;
lastChange = "2017-08-14 18:56:15 +0000";
layers = (
{
layerId = "A6C82697-316E-4547-A671-3FAC8B05BD53";
paths = (
{
closed = 1;
nodes = (
"224.931 0 LINE",
"280.831 94.201 LINE",
"339.551 0 LINE",
"588.567 0 LINE",
"414.147 255.306 LINE",
"573.058 486.48 LINE",
"327.847 486.48 LINE",
"280.831 402.219 LINE",
"233.535 486.48 LINE",
"-8.577 486.48 LINE",
"154.28 245.885 LINE",
"-18.307 0 LINE"
);
}
);
width = 569.27339;
}
);
},
{
glyphname = y.sc;
lastChange = "2017-08-14 18:56:15 +0000";
layers = (
{
anchors = (
{
name = bottom;
position = "{260.541, 0}";
},
{
name = top;
position = "{259.835, 486.48}";
}
);
layerId = "A6C82697-316E-4547-A671-3FAC8B05BD53";
paths = (
{
closed = 1;
nodes = (
"320.292 59.06 LINE",
"539.958 486.48 LINE",
"334.204 486.48 LINE",
"260.541 326.162 LINE",
"184.48 486.48 LINE",
"-22.4 486.48 LINE",
"198.817 59.06 LINE"
);
},
{
closed = 1;
nodes = (
"364.685 0 LINE",
"364.685 227.43 LINE",
"156.397 227.43 LINE",
"156.397 0 LINE"
);
}
);
width = 517.55741;
}
);
},
{
glyphname = z.sc;
lastChange = "2017-08-14 18:56:15 +0000";
layers = (
{
anchors = (
{
name = bottom;
position = "{264.768, 0}";
},
{
name = top;
position = "{265.052, 486.48}";
}
);
layerId = "A6C82697-316E-4547-A671-3FAC8B05BD53";
paths = (
{
closed = 1;
nodes = (
"503.874 0 LINE",
"503.874 152.145 LINE",
"301.733 152.145 LINE",
"498.236 363.214 LINE",
"498.236 486.48 LINE",
"32.994 486.48 LINE",
"32.994 334.212 LINE",
"220.192 334.212 LINE",
"24.674 123.266 LINE",
"24.674 0 LINE"
);
}
);
width = 529.11377;
}
);
},
{
glyphname = a.sc.ss01;
lastChange = "2017-08-14 18:56:15 +0000";
layers = (
{
anchors = (
{
name = bottom;
position = "{283.266, 0}";
},
{
name = ogonek;
position = "{485.313, 0}";
},
{
name = top;
position = "{283.266, 486.48}";
},
{
name = topleft;
position = "{5.25, 486.48}";
}
);
layerId = "A6C82697-316E-4547-A671-3FAC8B05BD53";
paths = (
{
closed = 1;
nodes = (
"241.032 0 LINE",
"241.032 88.745 LINE",
"324.373 88.745 LINE",
"324.373 0 LINE",
"531.675 0 LINE",
"531.675 281.248 LINE SMOOTH",
"531.675 411.534 OFFCURVE",
"431.864 499.348 OFFCURVE",
"280.307 499.348 CURVE SMOOTH",
"131.568 499.348 OFFCURVE",
"32.744 411.534 OFFCURVE",
"32.744 281.248 CURVE SMOOTH",
"32.744 0 LINE"
);
},
{
closed = 1;
nodes = (
"241.032 281.248 LINE",
"241.032 309.939 OFFCURVE",
"258.966 331.933 OFFCURVE",
"282.28 331.933 CURVE SMOOTH",
"305.453 331.933 OFFCURVE",
"324.373 309.939 OFFCURVE",
"324.373 281.248 CURVE SMOOTH",
"324.373 229.437 LINE",
"241.032 229.437 LINE"
);
}
);
width = 564.41904;
}
);
},
{
glyphname = e.sc.ss01;
lastChange = "2017-08-14 18:56:15 +0000";
layers = (
{
anchors = (
{
name = bottom;
position = "{271.405, 0}";
},
{
name = ogonek;
position = "{512.458, 46.017}";
},
{
name = top;
position = "{271.97, 486.48}";
},
{
name = topleft;
position = "{-6.457, 492.791}";
}
);
layerId = "A6C82697-316E-4547-A671-3FAC8B05BD53";
paths = (
{
closed = 1;
nodes = (
"512.458 46.017 CURVE",
"434.947 189.82 LINE",
"397.161 167.72 OFFCURVE",
"323.57 146.789 OFFCURVE",
"272.111 146.789 CURVE SMOOTH",
"244.861 146.789 OFFCURVE",
"223.403 153.24 OFFCURVE",
"223.403 163.657 CURVE SMOOTH",
"223.403 171.088 OFFCURVE",
"235.843 172.643 OFFCURVE",
"257.879 172.643 CURVE SMOOTH",
"411.948 172.643 LINE",
"411.948 315.368 LINE",
"257.879 315.368 LINE SMOOTH",
"251.633 315.368 OFFCURVE",
"237.648 316.956 OFFCURVE",
"237.648 326.699 CURVE SMOOTH",
"237.648 337.272 OFFCURVE",
"252.759 341.477 OFFCURVE",
"289.586 341.477 CURVE SMOOTH",
"333.715 341.477 OFFCURVE",
"384.471 330.427 OFFCURVE",
"428.594 313.19 CURVE",
"493.421 459.024 LINE",
"442.815 484.728 OFFCURVE",
"356.122 502.212 OFFCURVE",
"270.984 502.212 CURVE SMOOTH",
"126.068 502.212 OFFCURVE",
"41.197 452.228 OFFCURVE",
"41.197 366.66 CURVE SMOOTH",
"41.197 320.033 OFFCURVE",
"63.347 280.762 OFFCURVE",
"102.276 256.351 CURVE",
"39.666 230.862 OFFCURVE",
"8.21 189.838 OFFCURVE",
"8.21 133.24 CURVE SMOOTH",
"8.21 40.069 OFFCURVE",
"101.54 -13.946 OFFCURVE",
"252.523 -13.946 CURVE SMOOTH",
"351.193 -13.946 OFFCURVE",
"449.025 8.771 OFFCURVE"
);
}
);
width = 509.51533;
}
);
},
{
glyphname = f.sc.ss01;
lastChange = "2017-08-14 18:56:15 +0000";
layers = (
{
layerId = "A6C82697-316E-4547-A671-3FAC8B05BD53";
paths = (
{
closed = 1;
nodes = (
"245.122 0 LINE",
"245.122 300.781 LINE SMOOTH",
"245.122 318.093 OFFCURVE",
"257.267 328.485 OFFCURVE",
"275.204 328.485 CURVE SMOOTH",
"314.401 328.485 OFFCURVE",
"373.049 313.865 OFFCURVE",
"420.134 296.167 CURVE",
"466.359 460.843 LINE",
"417.723 481.28 OFFCURVE",
"334.414 495.07 OFFCURVE",
"254.629 495.07 CURVE SMOOTH",
"121.978 495.07 OFFCURVE",
"35.847 420.642 OFFCURVE",
"35.847 305.553 CURVE SMOOTH",
"35.847 0 LINE"
);
},
{
closed = 1;
nodes = (
"416.031 138.416 LINE",
"416.031 288.652 LINE",
"73.478 288.652 LINE",
"73.478 138.416 LINE"
);
}
);
width = 469.19159;
}
);
},
{
glyphname = g.sc.ss01;
lastChange = "2017-08-14 18:56:15 +0000";
layers = (
{
anchors = (
{
name = bottom;
position = "{301.447, 2.863}";
},
{
name = top;
position = "{305.392, 486.48}";
}
);
layerId = "A6C82697-316E-4547-A671-3FAC8B05BD53";
paths = (
{
closed = 1;
nodes = (
"465.019 118.972 CURVE",
"368.342 225.216 LINE",
"363.105 184.373 OFFCURVE",
"325.871 153.593 OFFCURVE",
"287.366 153.593 CURVE SMOOTH",
"249.105 153.593 OFFCURVE",
"223.821 189.492 OFFCURVE",
"223.821 243.055 CURVE SMOOTH",
"223.821 295.911 OFFCURVE",
"254.037 331.809 OFFCURVE",
"299.203 331.809 CURVE SMOOTH",
"334.749 331.809 OFFCURVE",
"380.861 311.034 OFFCURVE",
"412.591 281.028 CURVE",
"529.137 419.721 LINE",
"472.322 467.491 OFFCURVE",
"378.436 499.348 OFFCURVE",
"296.244 499.348 CURVE SMOOTH",
"129.318 499.348 OFFCURVE",
"10.6 393.811 OFFCURVE",
"10.6 243.055 CURVE SMOOTH",
"10.6 92.422 OFFCURVE",
"114.521 -13.946 OFFCURVE",
"262.705 -13.946 CURVE SMOOTH",
"342.924 -13.946 OFFCURVE",
"430.891 43.187 OFFCURVE"
);
},
{
closed = 1;
nodes = (
"519.133 0 LINE",
"519.133 261.929 LINE",
"341.424 261.929 LINE",
"341.424 88.834 LINE",
"368.903 67.377 LINE",
"368.903 0 LINE"
);
}
);
width = 556.52079;
}
);
},
{
glyphname = i.sc.ss01;
lastChange = "2017-08-14 18:56:15 +0000";
layers = (
{
anchors = (
{
name = bottom;
position = "{204.835, 0}";
},
{
name = ogonek;
position = "{259.658, 0}";
},
{
name = top;
position = "{204.835, 486.48}";
},
{
name = topleft;
position = "{-7.47, 486.48}";
}
);
layerId = "A6C82697-316E-4547-A671-3FAC8B05BD53";
paths = (
{
closed = 1;
nodes = (
"308.979 0 LINE",
"308.979 486.48 LINE",
"100.691 486.48 LINE",
"100.691 0 LINE"
);
},
{
closed = 1;
nodes = (
"374.426 0 LINE",
"374.426 150.236 LINE",
"34.258 150.236 LINE",
"34.258 0 LINE"
);
},
{
closed = 1;
nodes = (
"374.426 336.12 LINE",
"374.426 486.48 LINE",
"34.258 486.48 LINE",
"34.258 336.12 LINE"
);
}
);
width = 408.68398;
}
);
},
{
glyphname = j.sc.ss01;
lastChange = "2017-08-14 18:56:15 +0000";
layers = (
{
anchors = (
{
name = top;
position = "{224.855, 486.48}";
}
);
layerId = "A6C82697-316E-4547-A671-3FAC8B05BD53";
paths = (
{
closed = 1;
nodes = (
"414.305 102.994 CURVE",
"414.305 486.48 LINE",
"38.361 486.48 LINE",
"38.361 329.44 LINE",
"206.016 329.44 LINE",
"206.016 106.688 LINE",
"206.016 92.149 OFFCURVE",
"196.272 87.574 OFFCURVE",
"185.524 87.574 CURVE",
"165.912 87.574 OFFCURVE",
"125.87 102.623 OFFCURVE",
"83.295 141.556 CURVE",
"-9.577 12.654 LINE",
"47.513 -45.121 OFFCURVE",
"117.293 -77.933 OFFCURVE",
"208.212 -77.933 CURVE",
"332.547 -77.933 OFFCURVE",
"414.305 -12.309 OFFCURVE"
);
}
);
width = 460.01926;
}
);
},
{
glyphname = m.sc.ss01;
lastChange = "2017-08-14 18:56:15 +0000";
layers = (
{
anchors = (
{
name = bottom;
position = "{437.101, 0}";
},
{
name = top;
position = "{151.691, 486.48}";
}
);
layerId = "A6C82697-316E-4547-A671-3FAC8B05BD53";
paths = (
{
closed = 1;
nodes = (
"828.488 0 LINE",
"828.488 319.326 LINE SMOOTH",
"828.488 429.791 OFFCURVE",
"767.572 499.348 OFFCURVE",
"670.286 499.348 CURVE SMOOTH",
"566.79 499.348 OFFCURVE",
"503.049 411.937 OFFCURVE",
"503.049 271.671 CURVE",
"542.232 272.873 LINE",
"542.232 303.785 OFFCURVE",
"556.788 319.525 OFFCURVE",
"579.674 319.525 CURVE SMOOTH",
"607.623 319.525 OFFCURVE",
"618.367 301.473 OFFCURVE",
"618.367 269.82 CURVE SMOOTH",
"618.367 0 LINE"
);
},
{
closed = 1;
nodes = (
"255.835 0 LINE",
"255.835 485.032 LINE",
"47.547 485.032 LINE",
"47.547 0 LINE"
);
},
{
closed = 1;
nodes = (
"542.232 0 LINE",
"542.232 319.326 LINE SMOOTH",
"542.232 429.791 OFFCURVE",
"480.19 499.348 OFFCURVE",
"383.889 499.348 CURVE SMOOTH",
"279.547 499.348 OFFCURVE",
"216.652 411.937 OFFCURVE",
"216.652 271.671 CURVE",
"255.835 272.873 LINE",
"255.835 303.785 OFFCURVE",
"270.392 319.525 OFFCURVE",
"293.418 319.525 CURVE SMOOTH",
"321.226 319.525 OFFCURVE",
"330.984 301.473 OFFCURVE",
"330.984 269.82 CURVE SMOOTH",
"330.984 0 LINE"
);
}
);
width = 867.85555;
}
);
},
{
glyphname = n.sc.ss01;
lastChange = "2017-08-14 18:56:15 +0000";
layers = (
{
anchors = (
{
name = bottom;
position = "{296.093, 0}";
},
{
name = ogonek;
position = "{259.099, 6.648}";
},
{
name = top;
position = "{308.636, 486.48}";
}
);
layerId = "A6C82697-316E-4547-A671-3FAC8B05BD53";
paths = (
{
closed = 1;
nodes = (
"551.411 0 LINE",
"551.411 319.326 LINE SMOOTH",
"551.411 429.791 OFFCURVE",
"489.365 499.348 OFFCURVE",
"386.578 499.348 CURVE SMOOTH",
"282.089 499.348 OFFCURVE",
"216.793 411.937 OFFCURVE",
"216.793 271.671 CURVE",
"255.835 272.873 LINE",
"255.835 304.739 OFFCURVE",
"271.101 319.525 OFFCURVE",
"301.885 319.525 CURVE SMOOTH",
"327.443 319.525 OFFCURVE",
"341.29 300.519 OFFCURVE",
"341.29 269.82 CURVE SMOOTH",
"341.29 0 LINE"
);
},
{
closed = 1;
nodes = (
"255.835 0 LINE",
"255.835 485.032 LINE",
"47.547 485.032 LINE",
"47.547 0 LINE"
);
}
);
width = 590.91915;
}
);
},
{
glyphname = eng.sc.ss01;
lastChange = "2017-08-14 18:56:15 +0000";
layers = (
{
anchors = (
{
name = bottom;
position = "{297.08, 0}";
},
{
name = ogonek;
position = "{259.099, 6.648}";
},
{
name = top;
position = "{316.808, 486.48}";
}
);
layerId = "A6C82697-316E-4547-A671-3FAC8B05BD53";
paths = (
{
closed = 1;
nodes = (
"551.411 0 LINE",
"551.411 306.334 LINE",
"551.411 417.754 OFFCURVE",
"489.365 486.48 OFFCURVE",
"386.578 486.48 CURVE",
"282.089 486.85 OFFCURVE",
"216.793 399.9 OFFCURVE",
"216.793 258.803 CURVE",
"255.835 259.881 LINE",
"255.835 291.748 OFFCURVE",
"271.101 307.027 OFFCURVE",
"301.885 306.657 CURVE",
"327.443 306.657 OFFCURVE",
"341.29 287.651 OFFCURVE",
"341.29 256.829 CURVE",
"341.29 0 LINE"
);
},
{
closed = 1;
nodes = (
"551.411 0 CURVE",
"341.29 7.265 LINE",
"341.29 4.302 OFFCURVE",
"338.451 2.59 OFFCURVE",
"330.662 2.59 CURVE SMOOTH",
"323.874 2.59 OFFCURVE",
"311.452 3.323 OFFCURVE",
"289.452 5.158 CURVE",
"230.119 -147.604 LINE",
"266.634 -157.782 OFFCURVE",
"302.875 -162.917 OFFCURVE",
"345.459 -162.917 CURVE SMOOTH",
"462.889 -162.917 OFFCURVE",
"542.533 -103.973 OFFCURVE"
);
},
{
closed = 1;
nodes = (
"255.835 0 LINE",
"255.835 486.48 LINE",
"47.547 486.48 LINE",
"47.547 0 LINE"
);
}
);
width = 589.08671;
}
);
},
{
glyphname = q.sc.ss01;
lastChange = "2017-08-14 18:56:15 +0000";
layers = (
{
layerId = "A6C82697-316E-4547-A671-3FAC8B05BD53";
paths = (
{
closed = 1;
nodes = (
"569.91 244.009 CURVE SMOOTH",
"569.91 394.766 OFFCURVE",
"454.292 499.348 OFFCURVE",
"290.325 499.348 CURVE SMOOTH",
"125.372 499.348 OFFCURVE",
"9.614 394.766 OFFCURVE",
"9.614 244.009 CURVE SMOOTH",
"9.614 92.422 OFFCURVE",
"125.372 -13.946 OFFCURVE",
"290.325 -13.946 CURVE SMOOTH",
"454.292 -13.946 OFFCURVE",
"569.91 93.377 OFFCURVE"
);
},
{
closed = 1;
nodes = (
"345.148 -76.386 LINE",
"345.148 235.353 LINE",
"234.376 235.353 LINE",
"234.376 -76.386 LINE"
);
},
{
closed = 1;
nodes = (
"222.835 243.055 CURVE SMOOTH",
"222.835 296.865 OFFCURVE",
"255.869 331.933 OFFCURVE",
"293.285 331.933 CURVE SMOOTH",
"328.586 331.933 OFFCURVE",
"356.829 296.865 OFFCURVE",
"356.829 243.055 CURVE SMOOTH",
"356.829 190.323 OFFCURVE",
"328.586 153.47 OFFCURVE",
"293.285 153.47 CURVE SMOOTH",
"256.856 153.47 OFFCURVE",
"222.835 190.323 OFFCURVE"
);
}
);
width = 579.52353;
}
);
},
{
glyphname = schwa.sc.ss01;
lastChange = "2017-08-14 18:56:15 +0000";
layers = (
{
layerId = "A6C82697-316E-4547-A671-3FAC8B05BD53";
paths = (
{
closed = 1;
nodes = (
"554.38 244.009 CURVE SMOOTH",
"554.38 394.766 OFFCURVE",
"441.02 499.348 OFFCURVE",
"280.437 499.348 CURVE SMOOTH",
"197.111 499.348 OFFCURVE",
"122.105 471.465 OFFCURVE",
"73.462 424.468 CURVE",
"215.515 279.217 LINE",
"227.236 311.437 OFFCURVE",
"253.482 331.933 OFFCURVE",
"283.396 331.933 CURVE SMOOTH",
"313.201 331.933 OFFCURVE",
"340.314 305.702 OFFCURVE",
"340.314 241.146 CURVE SMOOTH",
"340.314 188.537 OFFCURVE",
"325.46 153.47 OFFCURVE",
"282.41 153.47 CURVE SMOOTH",
"272.498 153.47 OFFCURVE",
"258.788 155.272 OFFCURVE",
"247.492 167.475 CURVE",
"395.835 227.489 LINE",
"353.415 322.74 LINE",
"16.512 189.27 LINE",
"37.532 92.315 OFFCURVE",
"112.829 -13.946 OFFCURVE",
"281.424 -13.946 CURVE SMOOTH",
"441.02 -13.946 OFFCURVE",
"554.38 93.377 OFFCURVE"
);
}
);
width = 571.88245;
}
);
},
{
glyphname = t.sc.ss01;
lastChange = "2017-08-14 18:56:15 +0000";
layers = (
{
anchors = (
{
name = bottom;
position = "{250.523, 0}";
},
{
name = center;
position = "{249.536, 197.49}";
},
{
name = top;
position = "{254.328, 486.48}";
}
);
layerId = "A6C82697-316E-4547-A671-3FAC8B05BD53";
paths = (
{
closed = 1;
nodes = (
"249.536 336.705 CURVE SMOOTH",
"327.498 336.705 OFFCURVE",
"397.994 319.714 OFFCURVE",
"460.591 290.136 CURVE",
"509.776 435.97 LINE",
"433.79 476.755 OFFCURVE",
"343.706 499.348 OFFCURVE",
"249.536 499.348 CURVE SMOOTH",
"155.366 499.348 OFFCURVE",
"64.296 476.755 OFFCURVE",
"-9.858 436.925 CURVE",
"40.314 290.136 LINE",
"98.825 318.76 OFFCURVE",
"169.461 336.705 OFFCURVE"
);
},
{
closed = 1;
nodes = (
"354.526 0 LINE",
"354.526 404.558 LINE",
"146.378 404.558 LINE",
"146.378 0 LINE"
);
}
);
width = 499.91831;
}
);
},
{
glyphname = u.sc.ss01;
lastChange = "2017-08-14 18:56:15 +0000";
layers = (
{
anchors = (
{
name = bottom;
position = "{293.98, 0}";
},
{
name = ogonek;
position = "{493.064, 0}";
},
{
name = top;
position = "{293.98, 486.48}";
},
{
name = topright;
position = "{475.726, 486.48}";
}
);
layerId = "A6C82697-316E-4547-A671-3FAC8B05BD53";
paths = (
{
closed = 1;
nodes = (
"374.127 213.731 CURVE",
"335.084 212.53 LINE",
"335.084 180.663 OFFCURVE",
"319.818 165.877 OFFCURVE",
"289.034 165.877 CURVE SMOOTH",
"263.477 165.877 OFFCURVE",
"249.629 184.884 OFFCURVE",
"249.629 215.582 CURVE SMOOTH",
"249.629 486.48 LINE",
"39.508 486.48 LINE",
"39.508 166.077 LINE SMOOTH",
"39.508 55.611 OFFCURVE",
"101.554 -13.946 OFFCURVE",
"204.341 -13.946 CURVE SMOOTH",
"308.831 -13.946 OFFCURVE",
"374.127 73.465 OFFCURVE"
);
},
{
closed = 1;
nodes = (
"543.372 0 LINE",
"543.372 486.48 LINE",
"335.084 486.48 LINE",
"335.084 0 LINE"
);
}
);
width = 590.91915;
}
);
},
{
glyphname = w.sc.ss01;
lastChange = "2017-08-14 18:56:15 +0000";
layers = (
{
anchors = (
{
name = top;
position = "{417.366, 486.48}";
}
);
layerId = "A6C82697-316E-4547-A671-3FAC8B05BD53";
paths = (
{
closed = 1;
nodes = (
"418.212 60.589 CURVE",
"457.539 18.307 OFFCURVE",
"525.64 -13.946 OFFCURVE",
"593.752 -13.946 CURVE SMOOTH",
"711.76 -13.946 OFFCURVE",
"801.282 79.043 OFFCURVE",
"801.282 204.318 CURVE SMOOTH",
"801.282 486.48 LINE",
"593.134 486.48 LINE",
"593.134 204.318 LINE SMOOTH",
"593.134 175.866 OFFCURVE",
"578.444 152.639 OFFCURVE",
"559.367 152.639 CURVE SMOOTH",
"541.557 152.639 OFFCURVE",
"521.37 175.866 OFFCURVE",
"521.37 204.318 CURVE SMOOTH",
"521.37 486.48 LINE",
"313.081 486.48 LINE",
"313.081 204.318 LINE SMOOTH",
"313.081 175.866 OFFCURVE",
"296.699 152.639 OFFCURVE",
"279.17 152.639 CURVE SMOOTH",
"260.233 152.639 OFFCURVE",
"241.597 175.866 OFFCURVE",
"241.597 204.318 CURVE SMOOTH",
"241.597 486.48 LINE",
"33.309 486.48 LINE",
"33.309 204.318 LINE SMOOTH",
"33.309 79.043 OFFCURVE",
"124.804 -13.946 OFFCURVE",
"244.785 -13.946 CURVE SMOOTH",
"314.023 -13.946 OFFCURVE",
"380.011 18.307 OFFCURVE"
);
}
);
width = 834.59083;
}
);
},
{
glyphname = y.sc.ss01;
lastChange = "2017-08-14 18:56:15 +0000";
layers = (
{
anchors = (
{
name = bottom;
position = "{291.01, -66.019}";
},
{
name = top;
position = "{279.307, 486.48}";
}
);
layerId = "A6C82697-316E-4547-A671-3FAC8B05BD53";
paths = (
{
closed = 1;
nodes = (
"533.063 146.609 CURVE",
"533.063 486.48 LINE",
"324.634 486.48 LINE",
"324.634 150.427 LINE",
"324.634 111.723 OFFCURVE",
"292.325 88.652 OFFCURVE",
"239.288 88.652 CURVE",
"201.766 88.652 OFFCURVE",
"152.404 98.402 OFFCURVE",
"109.264 116.215 CURVE",
"35.275 -19.491 LINE",
"96.029 -54.944 OFFCURVE",
"183.02 -77.933 OFFCURVE",
"267.894 -77.933 CURVE",
"428.741 -77.933 OFFCURVE",
"533.063 9.174 OFFCURVE"
);
},
{
closed = 1;
nodes = (
"363.677 310.185 CURVE",
"324.493 306.244 LINE",
"324.493 284.999 OFFCURVE",
"307.964 275.446 OFFCURVE",
"280.852 275.816 CURVE",
"251.067 275.816 OFFCURVE",
"234.966 289.096 OFFCURVE",
"234.966 314.068 CURVE",
"234.966 486.48 LINE",
"26.678 486.48 LINE",
"26.678 295.103 LINE",
"26.678 177.957 OFFCURVE",
"92.95 103.505 OFFCURVE",
"194.186 103.505 CURVE",
"300.641 103.258 OFFCURVE",
"363.677 181.495 OFFCURVE"
);
}
);
width = 576.09892;
}
);
},
{
glyphname = z.sc.ss01;
lastChange = "2017-08-14 18:56:15 +0000";
layers = (
{
anchors = (
{
name = bottom;
position = "{276.752, 0}";
},
{
name = top;
position = "{277.036, 486.48}";
}
);
layerId = "A6C82697-316E-4547-A671-3FAC8B05BD53";
paths = (
{
closed = 1;
nodes = (
"515.859 0 LINE",
"515.859 152.145 LINE",
"313.717 152.145 LINE",
"510.221 363.214 LINE",
"510.221 486.48 LINE",
"44.978 486.48 LINE",
"44.978 334.212 LINE",
"232.176 334.212 LINE",
"36.659 123.266 LINE",
"36.659 0 LINE"
);
},
{
closed = 1;
nodes = (
"295.354 200.263 LINE",
"295.354 316.264 LINE",
"65.854 316.264 LINE",
"65.854 200.263 LINE"
);
},
{
closed = 1;
nodes = (
"478.772 182.5 LINE",
"478.772 298.378 LINE",
"266.182 298.378 LINE",
"266.182 182.5 LINE"
);
}
);
width = 552.23664;
}
);
},
{
glyphname = Oogonek;
lastChange = "2017-08-14 18:56:15 +0000";
layers = (
{
anchors = (
{
name = top;
position = "{359.547, 581.7}";
}
);
layerId = "A6C82697-316E-4547-A671-3FAC8B05BD53";
paths = (
{
closed = 1;
nodes = (
"495.849 -184.153 CURVE",
"470.76 -97.244 LINE",
"458.211 -102.074 OFFCURVE",
"439.739 -107.767 OFFCURVE",
"421.267 -107.767 CURVE SMOOTH",
"390.527 -107.767 OFFCURVE",
"379.098 -93.18 OFFCURVE",
"379.098 -76.535 CURVE SMOOTH",
"379.098 -53.061 OFFCURVE",
"398.018 -26.444 OFFCURVE",
"486.132 4.032 CURVE SMOOTH",
"608.946 47.095 OFFCURVE",
"698.772 149.522 OFFCURVE",
"698.772 290.85 CURVE SMOOTH",
"698.772 468.256 OFFCURVE",
"555.665 596.6 OFFCURVE",
"359.547 596.6 CURVE SMOOTH",
"163.429 596.6 OFFCURVE",
"20.321 468.256 OFFCURVE",
"20.321 290.85 CURVE SMOOTH",
"20.321 113.444 OFFCURVE",
"163.429 -14.9 OFFCURVE",
"359.547 -14.9 CURVE SMOOTH",
"373.22 -14.9 OFFCURVE",
"388.02 -14.069 OFFCURVE",
"411.557 -12.284 CURVE",
"397.192 44.791 LINE",
"308.218 19.219 OFFCURVE",
"251.697 -30.056 OFFCURVE",
"251.697 -95.623 CURVE SMOOTH",
"251.697 -160.786 OFFCURVE",
"303.433 -202.772 OFFCURVE",
"394.774 -202.772 CURVE SMOOTH",
"433.259 -202.772 OFFCURVE",
"475.264 -194.215 OFFCURVE"
);
},
{
closed = 1;
nodes = (
"252.284 290.85 CURVE SMOOTH",
"252.284 371.31 OFFCURVE",
"300.831 416.654 OFFCURVE",
"359.547 416.654 CURVE SMOOTH",
"418.262 416.654 OFFCURVE",
"466.809 371.31 OFFCURVE",
"466.809 290.85 CURVE SMOOTH",
"466.809 210.39 OFFCURVE",
"418.262 165.046 OFFCURVE",
"359.547 165.046 CURVE SMOOTH",
"300.831 165.046 OFFCURVE",
"252.284 210.39 OFFCURVE"
);
}
);
width = 719.09322;
}
);
},
{
glyphname = Saltillo;
lastChange = "2017-08-14 18:56:15 +0000";
layers = (
{
layerId = "A6C82697-316E-4547-A671-3FAC8B05BD53";
paths = (
{
closed = 1;
nodes = (
"237.504 245.729 LINE",
"267.097 582.778 LINE",
"41.053 582.778 LINE",
"41.053 245.729 LINE"
);
}
);
width = 308.15042;
}
);
},
{
glyphname = Udieresis.alt.02;
lastChange = "2017-08-14 18:56:15 +0000";
layers = (
{
layerId = "A6C82697-316E-4547-A671-3FAC8B05BD53";
paths = (
{
closed = 1;
nodes = (
"629.387 264.48 CURVE SMOOTH",
"629.387 581.7 LINE",
"403.342 581.7 LINE",
"403.342 271.037 LINE SMOOTH",
"403.342 191.993 OFFCURVE",
"375.678 165.046 OFFCURVE",
"332.903 165.046 CURVE SMOOTH",
"290.127 165.046 OFFCURVE",
"262.463 191.993 OFFCURVE",
"262.463 271.037 CURVE SMOOTH",
"262.463 581.7 LINE",
"32.473 581.7 LINE",
"32.473 264.48 LINE SMOOTH",
"32.473 88.489 OFFCURVE",
"142.299 -14.9 OFFCURVE",
"330.93 -14.9 CURVE SMOOTH",
"519.561 -14.9 OFFCURVE",
"629.387 88.489 OFFCURVE"
);
},
{
closed = 1;
nodes = (
"412.119 356.435 CURVE SMOOTH",
"412.119 396.791 OFFCURVE",
"380.121 430.837 OFFCURVE",
"332.903 430.837 CURVE SMOOTH",
"285.684 430.837 OFFCURVE",
"254.673 396.791 OFFCURVE",
"254.673 356.435 CURVE SMOOTH",
"254.673 316.078 OFFCURVE",
"285.684 282.032 OFFCURVE",
"332.903 282.032 CURVE SMOOTH",
"380.121 282.032 OFFCURVE",
"412.119 316.078 OFFCURVE"
);
},
{
closed = 1;
nodes = (
"412.119 516.471 CURVE SMOOTH",
"412.119 556.828 OFFCURVE",
"380.121 590.874 OFFCURVE",
"332.903 590.874 CURVE SMOOTH",
"285.684 590.874 OFFCURVE",
"254.673 556.828 OFFCURVE",
"254.673 516.471 CURVE SMOOTH",
"254.673 476.114 OFFCURVE",
"285.684 442.068 OFFCURVE",
"332.903 442.068 CURVE SMOOTH",
"380.121 442.068 OFFCURVE",
"412.119 476.114 OFFCURVE"
);
}
);
width = 661.85963;
}
);
},
{
glyphname = Udieresis.ss01.alt.02;
lastChange = "2017-08-14 18:56:15 +0000";
layers = (
{
layerId = "A6C82697-316E-4547-A671-3FAC8B05BD53";
paths = (
{
closed = 1;
nodes = (
"471.838 254.319 CURVE SMOOTH",
"471.838 332.4 LINE",
"403.342 332.4 LINE",
"403.342 258.967 LINE SMOOTH",
"403.342 193.901 OFFCURVE",
"367.787 165.046 OFFCURVE",
"329.943 165.046 CURVE SMOOTH",
"290.127 165.046 OFFCURVE",
"262.463 191.162 OFFCURVE",
"262.463 253.8 CURVE SMOOTH",
"262.463 581.7 LINE",
"32.473 581.7 LINE",
"32.473 247.243 LINE SMOOTH",
"32.473 78.945 OFFCURVE",
"112.706 -14.9 OFFCURVE",
"262.02 -14.9 CURVE SMOOTH",
"391.605 -14.9 OFFCURVE",
"471.838 91.352 OFFCURVE"
);
},
{
closed = 1;
nodes = (
"412.119 355.48 CURVE SMOOTH",
"412.119 395.837 OFFCURVE",
"380.121 429.883 OFFCURVE",
"332.903 429.883 CURVE SMOOTH",
"285.684 429.883 OFFCURVE",
"254.673 395.837 OFFCURVE",
"254.673 355.48 CURVE SMOOTH",
"254.673 315.124 OFFCURVE",
"285.684 281.077 OFFCURVE",
"332.903 281.077 CURVE SMOOTH",
"380.121 281.077 OFFCURVE",
"412.119 315.124 OFFCURVE"
);
},
{
closed = 1;
nodes = (
"633.333 0 LINE",
"633.333 581.7 LINE",
"403.342 581.7 LINE",
"403.342 140.761 LINE",
"410.247 115.181 LINE",
"410.247 0 LINE"
);
},
{
closed = 1;
nodes = (
"412.119 516.471 CURVE SMOOTH",
"412.119 556.828 OFFCURVE",
"380.121 590.874 OFFCURVE",
"332.903 590.874 CURVE SMOOTH",
"285.684 590.874 OFFCURVE",
"254.673 556.828 OFFCURVE",
"254.673 516.471 CURVE SMOOTH",
"254.673 476.114 OFFCURVE",
"285.684 442.068 OFFCURVE",
"332.903 442.068 CURVE SMOOTH",
"380.121 442.068 OFFCURVE",
"412.119 476.114 OFFCURVE"
);
}
);
width = 670.88137;
}
);
},
{
glyphname = Adieresis.alt;
lastChange = "2017-08-14 18:56:15 +0000";
layers = (
{
layerId = "A6C82697-316E-4547-A671-3FAC8B05BD53";
paths = (
{
closed = 1;
nodes = (
"213.508 0 LINE",
"391.925 476.781 LINE",
"302.577 476.781 LINE",
"480.993 0 LINE",
"718.454 0 LINE",
"462.246 581.7 LINE",
"236.202 581.7 LINE",
"-20.006 0 LINE"
);
},
{
closed = 1;
nodes = (
"515.2 74.273 LINE",
"457.419 234.177 LINE",
"203.685 234.177 LINE",
"145.903 74.273 LINE"
);
},
{
closed = 1;
nodes = (
"165.836 499.596 CURVE SMOOTH",
"165.836 548.452 OFFCURVE",
"129.051 581.33 OFFCURVE",
"80.708 581.33 CURVE SMOOTH",
"32.366 581.33 OFFCURVE",
"-4.42 548.452 OFFCURVE",
"-4.42 499.596 CURVE SMOOTH",
"-4.42 450.741 OFFCURVE",
"32.366 418.817 OFFCURVE",
"80.708 418.817 CURVE SMOOTH",
"129.051 418.817 OFFCURVE",
"165.836 450.741 OFFCURVE"
);
},
{
closed = 1;
nodes = (
"702.867 499.596 CURVE SMOOTH",
"702.867 548.452 OFFCURVE",
"666.081 581.33 OFFCURVE",
"617.739 581.33 CURVE SMOOTH",
"569.397 581.33 OFFCURVE",
"532.611 548.452 OFFCURVE",
"532.611 499.596 CURVE SMOOTH",
"532.611 450.741 OFFCURVE",
"569.397 418.817 OFFCURVE",
"617.739 418.817 CURVE SMOOTH",
"666.081 418.817 OFFCURVE",
"702.867 450.741 OFFCURVE"
);
}
);
width = 698.44743;
}
);
},
{
glyphname = Udieresis.alt;
lastChange = "2017-08-14 18:56:15 +0000";
layers = (
{
layerId = "A6C82697-316E-4547-A671-3FAC8B05BD53";
paths = (
{
closed = 1;
nodes = (
"629.387 264.48 CURVE SMOOTH",
"629.387 581.7 LINE",
"403.342 581.7 LINE",
"403.342 271.037 LINE SMOOTH",
"403.342 191.993 OFFCURVE",
"375.678 165.046 OFFCURVE",
"332.903 165.046 CURVE SMOOTH",
"290.127 165.046 OFFCURVE",
"262.463 191.993 OFFCURVE",
"262.463 271.037 CURVE SMOOTH",
"262.463 581.7 LINE",
"32.473 581.7 LINE",
"32.473 264.48 LINE SMOOTH",
"32.473 88.489 OFFCURVE",
"142.299 -14.9 OFFCURVE",
"330.93 -14.9 CURVE SMOOTH",
"519.561 -14.9 OFFCURVE",
"629.387 88.489 OFFCURVE"
);
},
{
closed = 1;
nodes = (
"359.509 509.14 CURVE SMOOTH",
"359.509 557.996 OFFCURVE",
"322.724 590.874 OFFCURVE",
"274.381 590.874 CURVE SMOOTH",
"226.039 590.874 OFFCURVE",
"189.254 557.996 OFFCURVE",
"189.254 509.14 CURVE SMOOTH",
"189.254 460.285 OFFCURVE",
"226.039 428.361 OFFCURVE",
"274.381 428.361 CURVE SMOOTH",
"322.724 428.361 OFFCURVE",
"359.509 460.285 OFFCURVE"
);
},
{
closed = 1;
nodes = (
"476.552 509.14 CURVE SMOOTH",
"476.552 557.996 OFFCURVE",
"439.766 590.874 OFFCURVE",
"391.424 590.874 CURVE SMOOTH",
"343.082 590.874 OFFCURVE",
"306.296 557.996 OFFCURVE",
"306.296 509.14 CURVE SMOOTH",
"306.296 460.285 OFFCURVE",
"343.082 428.361 OFFCURVE",
"391.424 428.361 CURVE SMOOTH",
"439.766 428.361 OFFCURVE",
"476.552 460.285 OFFCURVE"
);
}
);
width = 661.85963;
}
);
},
{
glyphname = Udieresis.ss01.alt;
lastChange = "2017-08-14 18:56:15 +0000";
layers = (
{
layerId = "A6C82697-316E-4547-A671-3FAC8B05BD53";
paths = (
{
closed = 1;
nodes = (
"471.838 254.319 CURVE SMOOTH",
"471.838 332.4 LINE",
"403.342 332.4 LINE",
"403.342 258.967 LINE SMOOTH",
"403.342 193.901 OFFCURVE",
"367.787 165.046 OFFCURVE",
"329.943 165.046 CURVE SMOOTH",
"290.127 165.046 OFFCURVE",
"262.463 191.162 OFFCURVE",
"262.463 253.8 CURVE SMOOTH",
"262.463 581.7 LINE",
"32.473 581.7 LINE",
"32.473 247.243 LINE SMOOTH",
"32.473 78.945 OFFCURVE",
"112.706 -14.9 OFFCURVE",
"262.02 -14.9 CURVE SMOOTH",
"391.605 -14.9 OFFCURVE",
"471.838 91.352 OFFCURVE"
);
},
{
closed = 1;
nodes = (
"359.509 509.14 CURVE SMOOTH",
"359.509 557.996 OFFCURVE",
"322.724 590.874 OFFCURVE",
"274.381 590.874 CURVE SMOOTH",
"226.039 590.874 OFFCURVE",
"189.254 557.996 OFFCURVE",
"189.254 509.14 CURVE SMOOTH",
"189.254 460.285 OFFCURVE",
"226.039 428.361 OFFCURVE",
"274.381 428.361 CURVE SMOOTH",
"322.724 428.361 OFFCURVE",
"359.509 460.285 OFFCURVE"
);
},
{
closed = 1;
nodes = (
"633.333 0 LINE",
"633.333 581.7 LINE",
"403.342 581.7 LINE",
"403.342 140.761 LINE",
"410.247 115.181 LINE",
"410.247 0 LINE"
);
},
{
closed = 1;
nodes = (
"476.552 509.14 CURVE SMOOTH",
"476.552 557.996 OFFCURVE",
"439.766 590.874 OFFCURVE",
"391.424 590.874 CURVE SMOOTH",
"343.082 590.874 OFFCURVE",
"306.296 557.996 OFFCURVE",
"306.296 509.14 CURVE SMOOTH",
"306.296 460.285 OFFCURVE",
"343.082 428.361 OFFCURVE",
"391.424 428.361 CURVE SMOOTH",
"439.766 428.361 OFFCURVE",
"476.552 460.285 OFFCURVE"
);
}
);
width = 670.88137;
}
);
},
{
glyphname = Eogonek.ss01;
lastChange = "2017-08-14 18:56:15 +0000";
layers = (
{
anchors = (
{
name = bottom;
position = "{322.727, 0}";
},
{
name = top;
position = "{322.727, 581.7}";
},
{
name = topleft;
position = "{-12.509, 581.7}";
}
);
layerId = "A6C82697-316E-4547-A671-3FAC8B05BD53";
paths = (
{
closed = 1;
nodes = (
"579.319 -184.153 CURVE",
"554.23 -97.244 LINE",
"541.68 -102.074 OFFCURVE",
"523.209 -107.767 OFFCURVE",
"504.737 -107.767 CURVE SMOOTH",
"473.997 -107.767 OFFCURVE",
"462.427 -93.426 OFFCURVE",
"462.427 -73.918 CURVE SMOOTH",
"462.427 -43.204 OFFCURVE",
"504.854 -0.642 OFFCURVE",
"596.938 32.796 CURVE",
"530.84 194.148 LINE",
"476.843 168.946 OFFCURVE",
"403.803 154.548 OFFCURVE",
"350.906 154.548 CURVE SMOOTH",
"275.013 154.548 OFFCURVE",
"248.482 167.03 OFFCURVE",
"248.482 185.23 CURVE SMOOTH",
"248.482 199.334 OFFCURVE",
"259.236 211.174 OFFCURVE",
"294.388 211.174 CURVE SMOOTH",
"489.499 211.174 LINE",
"489.499 374.895 LINE",
"310.311 374.895 LINE SMOOTH",
"278.547 374.895 OFFCURVE",
"272.876 384.21 OFFCURVE",
"272.876 396.807 CURVE SMOOTH",
"272.876 415.871 OFFCURVE",
"298.841 427.152 OFFCURVE",
"362.609 427.152 CURVE SMOOTH",
"411.968 427.152 OFFCURVE",
"462.31 419.122 OFFCURVE",
"520.116 397.919 CURVE",
"581.843 560.102 LINE",
"520.376 582.136 OFFCURVE",
"438.04 596.6 OFFCURVE",
"353.872 596.6 CURVE SMOOTH",
"136.778 596.6 OFFCURVE",
"40.913 507.461 OFFCURVE",
"40.913 411 CURVE SMOOTH",
"40.913 368.042 OFFCURVE",
"60.665 327.603 OFFCURVE",
"101.855 301.562 CURVE",
"45.44 274.074 OFFCURVE",
"16.519 224.921 OFFCURVE",
"16.519 170.083 CURVE SMOOTH",
"16.519 62.202 OFFCURVE",
"127.606 -14.9 OFFCURVE",
"342.168 -14.9 CURVE SMOOTH",
"371.795 -14.9 OFFCURVE",
"403.813 -11.609 OFFCURVE",
"435.687 -9.799 CURVE",
"435.827 23.943 LINE",
"374.209 0.131 OFFCURVE",
"335.026 -41.879 OFFCURVE",
"335.026 -95.87 CURVE SMOOTH",
"335.026 -161.033 OFFCURVE",
"386.903 -202.772 OFFCURVE",
"478.244 -202.772 CURVE SMOOTH",
"516.728 -202.772 OFFCURVE",
"558.734 -194.215 OFFCURVE"
);
}
);
width = 599.3453;
}
);
},
{
glyphname = eth;
lastChange = "2017-08-14 18:56:15 +0000";
layers = (
{
layerId = "A6C82697-316E-4547-A671-3FAC8B05BD53";
paths = (
{
closed = 1;
nodes = (
"521.37 261.172 CURVE SMOOTH",
"521.37 426.697 OFFCURVE",
"398.562 569.744 OFFCURVE",
"208.219 626.146 CURVE",
"60.953 543.425 LINE",
"198.991 499.053 OFFCURVE",
"311.509 428.129 OFFCURVE",
"306.597 351.479 CURVE",
"279.525 365.129 OFFCURVE",
"234.674 373.522 OFFCURVE",
"192.494 373.522 CURVE SMOOTH",
"75.746 373.522 OFFCURVE",
"0.452 300.978 OFFCURVE",
"0.452 189.254 CURVE SMOOTH",
"0.452 68.479 OFFCURVE",
"94.769 -10.498 OFFCURVE",
"240.685 -10.498 CURVE SMOOTH",
"410.985 -10.498 OFFCURVE",
"521.37 96.865 OFFCURVE"
);
},
{
closed = 1;
nodes = (
"209.727 199.506 CURVE SMOOTH",
"209.727 221.211 OFFCURVE",
"223.999 234.738 OFFCURVE",
"246.748 234.738 CURVE SMOOTH",
"271.329 234.738 OFFCURVE",
"286.447 220.627 OFFCURVE",
"286.447 199.538 CURVE SMOOTH",
"286.447 177.956 OFFCURVE",
"271.329 163.598 OFFCURVE",
"247.875 163.598 CURVE SMOOTH",
"224.985 163.598 OFFCURVE",
"209.727 177.586 OFFCURVE"
);
},
{
closed = 1;
nodes = (
"483.437 561.172 LINE",
"448.202 633.271 LINE",
"54.743 457.667 LINE",
"89.977 387.477 LINE"
);
}
);
width = 541.69041;
}
);
unicode = 00F0;
},
{
glyphname = eogonek;
lastChange = "2017-08-14 18:56:15 +0000";
layers = (
{
anchors = (
{
name = bottom;
position = "{285.366, 0}";
},
{
name = top;
position = "{285.366, 458.259}";
}
);
layerId = "A6C82697-316E-4547-A671-3FAC8B05BD53";
paths = (
{
closed = 1;
nodes = (
"504.316 -184.153 CURVE",
"479.227 -97.244 LINE",
"466.677 -102.074 OFFCURVE",
"448.206 -107.767 OFFCURVE",
"431.707 -107.767 CURVE SMOOTH",
"402.94 -107.767 OFFCURVE",
"387.564 -90.316 OFFCURVE",
"387.564 -71.886 CURVE SMOOTH",
"387.564 -38.769 OFFCURVE",
"405.608 -15.074 OFFCURVE",
"475.555 33.331 CURVE SMOOTH",
"489.372 42.225 OFFCURVE",
"501.497 52.444 OFFCURVE",
"512.916 64.324 CURVE",
"400.456 176.171 LINE",
"369.996 157.066 OFFCURVE",
"350.939 147.867 OFFCURVE",
"310.883 147.867 CURVE SMOOTH",
"255.856 147.867 OFFCURVE",
"227.339 172.748 OFFCURVE",
"227.339 222.864 CURVE SMOOTH",
"227.339 254.82 LINE SMOOTH",
"227.339 298.165 OFFCURVE",
"249.228 322.799 OFFCURVE",
"286.918 322.799 CURVE SMOOTH",
"324.607 322.799 OFFCURVE",
"346.356 298.165 OFFCURVE",
"346.356 254.82 CURVE",
"432.039 280.647 LINE",
"196.896 280.647 LINE",
"196.896 178.962 LINE",
"544.92 178.962 LINE",
"546.893 193.985 OFFCURVE",
"548.866 213.904 OFFCURVE",
"548.866 228.928 CURVE SMOOTH",
"548.866 386.982 OFFCURVE",
"425.932 467.433 OFFCURVE",
"284.945 467.433 CURVE SMOOTH",
"130.428 467.433 OFFCURVE",
"13.132 369.095 OFFCURVE",
"13.132 229.545 CURVE SMOOTH",
"13.132 92.858 OFFCURVE",
"125.359 -9.174 OFFCURVE",
"303.978 -9.174 CURVE SMOOTH",
"321.895 -9.174 OFFCURVE",
"361.794 -8.252 OFFCURVE",
"381.258 -2.591 CURVE",
"356.597 19.821 LINE",
"302.306 7.092 OFFCURVE",
"260.164 -41.386 OFFCURVE",
"260.164 -92.883 CURVE SMOOTH",
"260.164 -160.786 OFFCURVE",
"311.9 -202.772 OFFCURVE",
"403.241 -202.772 CURVE SMOOTH",
"441.725 -202.772 OFFCURVE",
"483.731 -194.215 OFFCURVE"
);
}
);
width = 561.99779;
}
);
unicode = 0119;
},
{
glyphname = oogonek;
lastChange = "2017-08-14 18:56:15 +0000";
layers = (
{
anchors = (
{
name = bottom;
position = "{282.691, 0}";
},
{
name = center;
position = "{282.691, 229.545}";
},
{
name = top;
position = "{282.691, 458.259}";
},
{
name = topright;
position = "{354.779, 458.136}";
}
);
layerId = "A6C82697-316E-4547-A671-3FAC8B05BD53";
paths = (
{
closed = 1;
nodes = (
"414.219 -184.153 CURVE",
"389.13 -97.244 LINE",
"376.58 -102.074 OFFCURVE",
"358.108 -107.767 OFFCURVE",
"339.637 -107.767 CURVE SMOOTH",
"308.897 -107.767 OFFCURVE",
"297.467 -91.271 OFFCURVE",
"297.467 -75.58 CURVE SMOOTH",
"297.467 -47.943 OFFCURVE",
"317.908 -21.294 OFFCURVE",
"395.901 8.154 CURVE SMOOTH",
"492.897 44.965 OFFCURVE",
"558.169 125.975 OFFCURVE",
"558.169 229.545 CURVE SMOOTH",
"558.169 369.095 OFFCURVE",
"444.959 467.433 OFFCURVE",
"285.65 467.433 CURVE SMOOTH",
"126.342 467.433 OFFCURVE",
"13.132 369.095 OFFCURVE",
"13.132 229.545 CURVE SMOOTH",
"13.132 89.995 OFFCURVE",
"126.342 -9.174 OFFCURVE",
"285.65 -9.174 CURVE SMOOTH",
"299.046 -9.174 OFFCURVE",
"311.595 -7.388 OFFCURVE",
"323.867 -5.973 CURVE",
"316.404 35.247 LINE",
"227.29 19.466 OFFCURVE",
"170.066 -30.056 OFFCURVE",
"170.066 -95.623 CURVE SMOOTH",
"170.066 -160.786 OFFCURVE",
"221.803 -202.772 OFFCURVE",
"313.144 -202.772 CURVE SMOOTH",
"351.628 -202.772 OFFCURVE",
"393.634 -194.215 OFFCURVE"
);
},
{
closed = 1;
nodes = (
"230.298 229.545 CURVE SMOOTH",
"230.298 279.661 OFFCURVE",
"254.866 301.803 OFFCURVE",
"285.65 301.803 CURVE SMOOTH",
"316.434 301.803 OFFCURVE",
"341.002 279.661 OFFCURVE",
"341.002 229.545 CURVE SMOOTH",
"341.002 179.429 OFFCURVE",
"316.434 156.457 OFFCURVE",
"285.65 156.457 CURVE SMOOTH",
"254.866 156.457 OFFCURVE",
"230.298 179.429 OFFCURVE"
);
}
);
width = 571.3004;
}
);
},
{
glyphname = saltillo;
lastChange = "2017-08-14 18:56:15 +0000";
layers = (
{
layerId = "A6C82697-316E-4547-A671-3FAC8B05BD53";
paths = (
{
closed = 1;
nodes = (
"229.613 245.729 LINE",
"259.065 590.922 LINE",
"40.913 590.922 LINE",
"41.053 245.729 LINE"
);
}
);
width = 300.11849;
}
);
},
{
glyphname = eogonek.ss01;
lastChange = "2017-08-14 18:56:15 +0000";
layers = (
{
anchors = (
{
name = bottom;
position = "{285.647, 0}";
},
{
name = top;
position = "{285.647, 458.259}";
}
);
layerId = "A6C82697-316E-4547-A671-3FAC8B05BD53";
paths = (
{
closed = 1;
nodes = (
"504.316 -184.153 CURVE",
"479.227 -97.244 LINE",
"466.677 -102.074 OFFCURVE",
"448.206 -107.767 OFFCURVE",
"431.707 -107.767 CURVE SMOOTH",
"402.94 -107.767 OFFCURVE",
"387.564 -90.316 OFFCURVE",
"387.564 -71.886 CURVE SMOOTH",
"387.564 -38.769 OFFCURVE",
"405.608 -15.074 OFFCURVE",
"475.555 33.331 CURVE SMOOTH",
"489.372 42.225 OFFCURVE",
"501.497 52.444 OFFCURVE",
"512.916 64.324 CURVE",
"400.456 176.171 LINE",
"369.996 157.066 OFFCURVE",
"350.939 147.867 OFFCURVE",
"310.883 147.867 CURVE SMOOTH",
"255.856 147.867 OFFCURVE",
"227.339 172.748 OFFCURVE",
"227.339 222.864 CURVE SMOOTH",
"227.339 254.82 LINE SMOOTH",
"227.339 298.165 OFFCURVE",
"251.201 322.799 OFFCURVE",
"290.021 322.799 CURVE SMOOTH",
"326.018 322.799 OFFCURVE",
"347.76 298.165 OFFCURVE",
"346.637 260.786 CURVE",
"421.328 307.733 LINE",
"197.883 265.392 LINE",
"196.9 162.629 LINE",
"549.007 228.706 LINE",
"550.271 386.982 OFFCURVE",
"427.343 467.433 OFFCURVE",
"289.034 467.433 CURVE SMOOTH",
"131.414 467.433 OFFCURVE",
"13.132 369.095 OFFCURVE",
"13.132 229.545 CURVE SMOOTH",
"13.132 92.858 OFFCURVE",
"125.359 -9.174 OFFCURVE",
"303.978 -9.174 CURVE SMOOTH",
"321.895 -9.174 OFFCURVE",
"361.794 -8.252 OFFCURVE",
"381.258 -2.591 CURVE",
"356.597 19.821 LINE",
"302.306 7.092 OFFCURVE",
"260.164 -41.386 OFFCURVE",
"260.164 -92.883 CURVE SMOOTH",
"260.164 -160.786 OFFCURVE",
"311.9 -202.772 OFFCURVE",
"403.241 -202.772 CURVE SMOOTH",
"441.725 -202.772 OFFCURVE",
"483.731 -194.215 OFFCURVE"
);
}
);
width = 562.13823;
}
);
},
{
glyphname = T_h;
lastChange = "2017-08-14 18:56:15 +0000";
layers = (
{
anchors = (
{
name = bottom_1;
position = "{276.05, 0}";
},
{
name = bottom_2;
position = "{826.608, 0}";
},
{
name = caret_1;
position = "{550.836, 0}";
},
{
name = center_1;
position = "{0.277, 0}";
},
{
name = center_2;
position = "{0.277, 0}";
},
{
name = top_1;
position = "{276.05, 458.259}";
},
{
name = top_2;
position = "{826.608, 458.259}";
}
);
layerId = "A6C82697-316E-4547-A671-3FAC8B05BD53";
paths = (
{
closed = 1;
nodes = (
"389.216 0 LINE",
"389.216 410.59 LINE",
"547.181 410.59 LINE",
"547.181 582.778 LINE",
"3.384 582.778 LINE",
"3.384 410.59 LINE",
"163.171 410.59 LINE",
"163.171 0 LINE"
);
},
{
closed = 1;
nodes = (
"757.442 0 LINE",
"757.442 582.778 LINE",
"538.303 582.778 LINE",
"538.303 0 LINE"
);
},
{
closed = 1;
nodes = (
"1055.268 0 LINE",
"1055.268 294.462 LINE",
"1055.268 398.921 OFFCURVE",
"985.9 467.803 OFFCURVE",
"890.435 467.803 CURVE",
"778.191 468.173 OFFCURVE",
"710.648 373.374 OFFCURVE",
"710.648 227.422 CURVE",
"757.442 227.422 LINE",
"757.442 259.495 OFFCURVE",
"773.687 281.67 OFFCURVE",
"797.71 281.299 CURVE",
"820.031 281.299 OFFCURVE",
"836.129 262.013 OFFCURVE",
"836.129 232.425 CURVE",
"836.129 0 LINE SMOOTH"
);
}
);
width = 1087.30963;
}
);
},
{
glyphname = fl.ss01;
lastChange = "2017-08-14 18:56:15 +0000";
layers = (
{
layerId = "A6C82697-316E-4547-A671-3FAC8B05BD53";
paths = (
{
closed = 1;
nodes = (
"691.91 -81.101 CURVE",
"683.453 76.064 LINE",
"676.26 71.909 OFFCURVE",
"662.019 67.63 OFFCURVE",
"650.171 67.63 CURVE SMOOTH",
"629.141 67.63 OFFCURVE",
"614.893 79.873 OFFCURVE",
"614.893 104.269 CURVE SMOOTH",
"614.893 394.454 LINE SMOOTH",
"614.893 530.442 OFFCURVE",
"523.127 625.776 OFFCURVE",
"335.801 625.776 CURVE SMOOTH",
"148.475 625.776 OFFCURVE",
"56.709 530.442 OFFCURVE",
"56.709 394.454 CURVE SMOOTH",
"56.709 0 LINE",
"276.835 0 LINE",
"276.835 400.181 LINE SMOOTH",
"276.835 444.118 OFFCURVE",
"298.841 464.917 OFFCURVE",
"335.801 464.917 CURVE SMOOTH",
"372.761 464.917 OFFCURVE",
"394.767 444.118 OFFCURVE",
"394.767 400.181 CURVE SMOOTH",
"394.767 93.433 LINE SMOOTH",
"394.767 -30.805 OFFCURVE",
"475.816 -93.228 OFFCURVE",
"603.668 -93.228 CURVE SMOOTH",
"633.693 -93.228 OFFCURVE",
"660.477 -89.904 OFFCURVE"
);
},
{
closed = 1;
nodes = (
"362.739 274.495 LINE",
"362.739 429.627 LINE",
"-3.23 429.627 LINE",
"-3.23 274.495 LINE"
);
}
);
width = 702.61652;
}
);
},
{
glyphname = eth.sc;
lastChange = "2017-08-14 18:56:15 +0000";
layers = (
{
layerId = "A6C82697-316E-4547-A671-3FAC8B05BD53";
paths = (
{
closed = 1;
nodes = (
"271.717 0 LINE",
"449.493 0 OFFCURVE",
"558.487 92.422 OFFCURVE",
"558.487 244.256 CURVE SMOOTH",
"558.487 395.013 OFFCURVE",
"452.453 486.48 OFFCURVE",
"280.595 486.48 CURVE SMOOTH",
"47.547 486.48 LINE",
"47.547 0 LINE"
);
},
{
closed = 1;
nodes = (
"323.727 203.25 LINE",
"323.727 284.062 LINE",
"6.37 284.062 LINE",
"6.37 203.25 LINE"
);
},
{
closed = 1;
nodes = (
"255.835 332.303 LINE",
"275.662 332.303 LINE SMOOTH",
"321.955 332.303 OFFCURVE",
"345.266 299.021 OFFCURVE",
"345.266 242.347 CURVE SMOOTH",
"345.266 185.551 OFFCURVE",
"325.901 154.054 OFFCURVE",
"285.527 154.054 CURVE SMOOTH",
"255.835 154.054 LINE"
);
}
);
width = 566.97396;
}
);
},
{
glyphname = dcroat.sc;
lastChange = "2017-08-14 18:56:15 +0000";
layers = (
{
anchors = (
{
name = bottom;
position = "{288.496, 0}";
},
{
name = center;
position = "{163.84, 244.133}";
},
{
name = top;
position = "{284.537, 486.48}";
}
);
layerId = "A6C82697-316E-4547-A671-3FAC8B05BD53";
paths = (
{
closed = 1;
nodes = (
"282.571 0 LINE",
"460.348 0 OFFCURVE",
"569.341 92.422 OFFCURVE",
"569.341 244.256 CURVE SMOOTH",
"569.341 395.013 OFFCURVE",
"463.307 486.48 OFFCURVE",
"291.449 486.48 CURVE SMOOTH",
"58.401 486.48 LINE",
"58.401 0 LINE"
);
},
{
closed = 1;
nodes = (
"334.581 203.25 LINE",
"334.581 284.062 LINE",
"17.225 284.062 LINE",
"17.225 203.25 LINE"
);
},
{
closed = 1;
nodes = (
"266.69 332.303 LINE",
"286.517 332.303 LINE SMOOTH",
"332.81 332.303 OFFCURVE",
"356.12 299.021 OFFCURVE",
"356.12 242.347 CURVE SMOOTH",
"356.12 185.551 OFFCURVE",
"336.755 154.054 OFFCURVE",
"296.381 154.054 CURVE SMOOTH",
"266.69 154.054 LINE"
);
}
);
width = 577.96858;
}
);
},
{
glyphname = hbar.sc;
lastChange = "2017-08-14 18:56:15 +0000";
layers = (
{
anchors = (
{
name = bottom;
position = "{326.255, 0}";
},
{
name = center;
position = "{325.268, 393.597}";
},
{
name = top;
position = "{335.133, 486.48}";
}
);
layerId = "A6C82697-316E-4547-A671-3FAC8B05BD53";
paths = (
{
closed = 1;
nodes = (
"276.554 0 LINE",
"276.554 160.178 LINE",
"374.969 160.178 LINE",
"374.969 0 LINE",
"583.258 0 LINE",
"583.258 486.48 LINE",
"374.969 486.48 LINE",
"374.969 310.415 LINE",
"276.554 310.415 LINE",
"276.554 486.48 LINE",
"68.265 486.48 LINE",
"68.265 0 LINE"
);
},
{
closed = 1;
nodes = (
"650.362 352.714 LINE",
"650.362 433.403 LINE",
"-0.953 433.403 LINE",
"-0.953 352.714 LINE"
);
}
);
width = 650.53676;
}
);
},
{
glyphname = kgreenlandic.sc;
lastChange = "2017-08-14 18:56:15 +0000";
layers = (
{
anchors = (
{
name = bottom;
position = "{301.848, 0}";
},
{
name = top;
position = "{301.848, 486.48}";
}
);
layerId = "A6C82697-316E-4547-A671-3FAC8B05BD53";
paths = (
{
closed = 1;
nodes = (
"596.904 486.48 LINE",
"359.019 486.48 LINE",
"246.673 340.954 LINE",
"245.687 103.069 LINE"
);
},
{
closed = 1;
nodes = (
"255.835 0 LINE",
"255.835 486.48 LINE",
"47.547 486.48 LINE",
"47.547 0 LINE"
);
},
{
closed = 1;
nodes = (
"606.213 0 LINE",
"413.733 317.951 LINE",
"274.358 159.833 LINE",
"358.464 0 LINE"
);
}
);
width = 587.90231;
}
);
},
{
glyphname = lslash.sc;
lastChange = "2017-08-14 18:56:15 +0000";
layers = (
{
anchors = (
{
name = bottom;
position = "{272.529, 0}";
},
{
name = center;
position = "{380.93, 280.269}";
},
{
name = top;
position = "{161.99, 486.48}";
},
{
name = topright;
position = "{343.045, 486.48}";
}
);
layerId = "A6C82697-316E-4547-A671-3FAC8B05BD53";
paths = (
{
closed = 1;
nodes = (
"479.323 0 LINE",
"479.323 166.461 LINE",
"275.15 166.461 LINE",
"275.15 486.48 LINE",
"66.861 486.48 LINE",
"66.861 0 LINE"
);
},
{
closed = 1;
nodes = (
"343.264 296.7 LINE",
"343.264 395.275 LINE",
"6.364 232.194 LINE",
"6.364 134.45 LINE"
);
}
);
width = 480.17267;
}
);
},
{
glyphname = oslash.sc;
lastChange = "2017-08-14 18:56:15 +0000";
layers = (
{
anchors = (
{
name = bottom;
position = "{290.325, 0}";
},
{
name = center;
position = "{290.325, 244.009}";
},
{
name = ogonek;
position = "{477.124, 0}";
},
{
name = top;
position = "{290.044, 486.48}";
},
{
name = topleft;
position = "{19.889, 492.791}";
},
{
name = topright;
position = "{430.052, 486.48}";
}
);
layerId = "A6C82697-316E-4547-A671-3FAC8B05BD53";
paths = (
{
closed = 1;
nodes = (
"50.058 -78.579 CURVE SMOOTH",
"50.058 -97.706 OFFCURVE",
"574.637 528.935 OFFCURVE",
"597.107 528.935 CURVE SMOOTH",
"619.577 528.935 OFFCURVE",
"528.479 544.607 OFFCURVE",
"528.479 563.735 CURVE SMOOTH",
"528.479 582.986 OFFCURVE",
"1.081 -43.532 OFFCURVE",
"-21.389 -43.532 CURVE SMOOTH",
"-43.858 -43.532 OFFCURVE",
"50.058 -59.328 OFFCURVE"
);
},
{
closed = 1;
nodes = (
"642.796 284.116 CURVE",
"642.796 454 OFFCURVE",
"441.653 494.289 OFFCURVE",
"255.216 494.289 CURVE",
"67.793 494.289 OFFCURVE",
"-63.413 374.034 OFFCURVE",
"-63.413 204.15 CURVE",
"-63.413 33.312 OFFCURVE",
"137.73 -8.886 OFFCURVE",
"325.153 -8.886 CURVE",
"511.59 -8.886 OFFCURVE",
"642.796 114.232 OFFCURVE"
);
},
{
closed = 1;
nodes = (
"222.835 243.055 CURVE SMOOTH",
"222.835 296.865 OFFCURVE",
"255.869 331.933 OFFCURVE",
"293.285 331.933 CURVE SMOOTH",
"328.586 331.933 OFFCURVE",
"356.829 296.865 OFFCURVE",
"356.829 243.055 CURVE SMOOTH",
"356.829 190.323 OFFCURVE",
"328.586 153.47 OFFCURVE",
"293.285 153.47 CURVE SMOOTH",
"256.856 153.47 OFFCURVE",
"222.835 190.323 OFFCURVE"
);
}
);
width = 579.52353;
}
);
},
{
glyphname = ordfeminine;
lastChange = "2017-08-14 18:56:15 +0000";
layers = (
{
layerId = "A6C82697-316E-4547-A671-3FAC8B05BD53";
paths = (
{
closed = 1;
nodes = (
"325.389 380.598 LINE",
"325.529 559.205 LINE SMOOTH",
"326.515 626.952 OFFCURVE",
"271.114 664.01 OFFCURVE",
"179.763 664.01 CURVE SMOOTH",
"135.775 664.01 OFFCURVE",
"79.106 655.609 OFFCURVE",
"24.13 640.684 CURVE",
"56.405 550.081 LINE",
"90.947 558.449 OFFCURVE",
"125.629 563.279 OFFCURVE",
"144.673 563.279 CURVE SMOOTH",
"169.224 563.279 OFFCURVE",
"181.499 555.651 OFFCURVE",
"181.359 542.149 CURVE SMOOTH",
"181.218 380.598 LINE"
);
},
{
closed = 1;
nodes = (
"196.443 429.866 CURVE",
"181.218 469.918 LINE",
"173.738 464.545 OFFCURVE",
"164.134 460.579 OFFCURVE",
"156.496 460.579 CURVE SMOOTH",
"146.043 460.579 OFFCURVE",
"141.94 465.59 OFFCURVE",
"141.94 474.723 CURVE SMOOTH",
"141.94 484.103 OFFCURVE",
"145.762 489.023 OFFCURVE",
"152.698 489.023 CURVE SMOOTH",
"193.199 489.023 LINE",
"193.199 550.994 LINE",
"121.413 550.994 LINE SMOOTH",
"43.731 550.039 OFFCURVE",
"3.689 520.214 OFFCURVE",
"3.689 463.393 CURVE SMOOTH",
"3.689 409.56 OFFCURVE",
"40.347 373.917 OFFCURVE",
"104.777 373.917 CURVE SMOOTH",
"153.848 373.917 OFFCURVE",
"184.311 396.354 OFFCURVE"
);
}
);
width = 342.3322;
}
);
unicode = 00AA;
},
{
glyphname = ordmasculine;
lastChange = "2017-08-14 18:56:15 +0000";
layers = (
{
layerId = "A6C82697-316E-4547-A671-3FAC8B05BD53";
paths = (
{
closed = 1;
nodes = (
"352.186 519.441 CURVE SMOOTH",
"352.186 607.839 OFFCURVE",
"285.359 663.055 OFFCURVE",
"178.359 663.055 CURVE SMOOTH",
"72.485 663.055 OFFCURVE",
"5.518 607.839 OFFCURVE",
"5.518 519.441 CURVE SMOOTH",
"5.518 432.12 OFFCURVE",
"72.485 375.826 OFFCURVE",
"178.359 375.826 CURVE SMOOTH",
"285.359 375.826 OFFCURVE",
"352.186 432.12 OFFCURVE"
);
},
{
closed = 1;
nodes = (
"153.634 517.532 CURVE SMOOTH",
"153.634 541.31 OFFCURVE",
"162.539 555.644 OFFCURVE",
"178.359 555.644 CURVE SMOOTH",
"194.179 555.644 OFFCURVE",
"203.224 541.31 OFFCURVE",
"203.224 517.532 CURVE SMOOTH",
"203.224 494.831 OFFCURVE",
"194.179 480.498 OFFCURVE",
"178.359 480.498 CURVE SMOOTH",
"162.539 480.498 OFFCURVE",
"153.634 494.831 OFFCURVE"
);
}
);
width = 357.70402;
}
);
unicode = 00BA;
},
{
glyphname = Delta;
lastChange = "2017-08-14 18:56:15 +0000";
layers = (
{
layerId = "A6C82697-316E-4547-A671-3FAC8B05BD53";
paths = (
{
closed = 1;
nodes = (
"220.133 0 LINE",
"344.713 365.149 LINE",
"462.672 0 LINE",
"703.092 0 LINE",
"467.459 582.778 LINE",
"235.777 582.778 LINE",
"-11.269 0 LINE"
);
},
{
closed = 1;
nodes = (
"491.282 0 LINE",
"491.282 155.963 LINE",
"183.912 155.963 LINE",
"183.912 0 LINE"
);
}
);
width = 691.82325;
}
);
unicode = 0394;
},
{
glyphname = Omega;
lastChange = "2017-08-14 18:56:15 +0000";
layers = (
{
anchors = (
{
name = topleft;
position = "{17.197, 582.778}";
}
);
layerId = "A6C82697-316E-4547-A671-3FAC8B05BD53";
paths = (
{
closed = 1;
nodes = (
"325.532 0 LINE",
"325.532 194.139 LINE",
"271.365 219.431 OFFCURVE",
"239.337 265.146 OFFCURVE",
"239.337 315.294 CURVE SMOOTH",
"239.337 375.128 OFFCURVE",
"282.386 416.316 OFFCURVE",
"345.613 416.316 CURVE SMOOTH",
"408.84 416.316 OFFCURVE",
"452.876 375.128 OFFCURVE",
"452.876 315.294 CURVE SMOOTH",
"452.876 266.1 OFFCURVE",
"421.834 221.217 OFFCURVE",
"366.54 194.016 CURVE",
"366.54 0 LINE",
"688.828 0 LINE",
"688.828 169.325 LINE",
"564.409 169.325 LINE",
"622.94 219.028 OFFCURVE",
"652.286 276.812 OFFCURVE",
"652.286 341.063 CURVE SMOOTH",
"652.286 481.741 OFFCURVE",
"516.93 592.322 OFFCURVE",
"345.613 592.322 CURVE SMOOTH",
"175.283 592.322 OFFCURVE",
"39.926 481.741 OFFCURVE",
"39.926 342.018 CURVE SMOOTH",
"39.926 276.812 OFFCURVE",
"69.272 219.028 OFFCURVE",
"128.79 169.325 CURVE",
"3.384 169.325 LINE",
"3.384 0 LINE"
);
}
);
width = 692.21242;
}
);
unicode = 03A9;
},
{
glyphname = mu;
lastChange = "2017-08-14 18:56:15 +0000";
layers = (
{
components = (
{
name = u;
transform = "{1, 0, 0, 1, 6.775, 0}";
}
);
layerId = "A6C82697-316E-4547-A671-3FAC8B05BD53";
paths = (
{
closed = 1;
nodes = (
"252.311 -161.214 LINE",
"252.311 458.259 LINE",
"33.172 458.259 LINE",
"33.172 -161.214 LINE"
);
}
);
width = 602.05758;
}
);
unicode = 03BC;
},
{
glyphname = pi;
lastChange = "2017-08-14 18:56:15 +0000";
layers = (
{
layerId = "A6C82697-316E-4547-A671-3FAC8B05BD53";
paths = (
{
closed = 1;
nodes = (
"160.251 240.315 LINE",
"153.195 257.026 OFFCURVE",
"146.989 277.891 OFFCURVE",
"147.13 288.259 CURVE",
"146.284 302.403 OFFCURVE",
"155.473 311.84 OFFCURVE",
"168.618 311.84 CURVE",
"610.384 311.84 LINE",
"609.257 458.259 LINE",
"139.025 458.259 LINE",
"44.423 458.259 OFFCURVE",
"-22.548 402.335 OFFCURVE",
"-21.702 324.526 CURVE",
"-21.842 285.066 OFFCURVE",
"-8.025 232.491 OFFCURVE",
"10.587 192.044 CURVE"
);
},
{
closed = 1;
nodes = (
"317.874 0 LINE",
"350.878 324.643 LINE",
"171.197 324.643 LINE",
"138.192 0 LINE"
);
},
{
closed = 1;
nodes = (
"531.381 0 LINE",
"531.381 324.643 LINE",
"351.699 324.643 LINE",
"351.699 0 LINE"
);
}
);
width = 622.22453;
}
);
unicode = 03C0;
},
{
glyphname = zero;
lastChange = "2017-08-14 18:56:15 +0000";
layers = (
{
layerId = "A6C82697-316E-4547-A671-3FAC8B05BD53";
paths = (
{
closed = 1;
nodes = (
"576.805 290.85 CURVE SMOOTH",
"576.805 486.11 OFFCURVE",
"462.605 596.6 OFFCURVE",
"300.327 596.6 CURVE SMOOTH",
"138.049 596.6 OFFCURVE",
"23.849 486.11 OFFCURVE",
"23.849 290.85 CURVE SMOOTH",
"23.849 95.59 OFFCURVE",
"138.049 -14.9 OFFCURVE",
"300.327 -14.9 CURVE SMOOTH",
"462.605 -14.9 OFFCURVE",
"576.805 95.59 OFFCURVE"
);
},
{
closed = 1;
nodes = (
"250.88 290.85 CURVE SMOOTH",
"250.88 395.014 OFFCURVE",
"274.464 418.563 OFFCURVE",
"300.327 418.563 CURVE SMOOTH",
"326.189 418.563 OFFCURVE",
"349.774 395.014 OFFCURVE",
"349.774 290.85 CURVE SMOOTH",
"349.774 186.686 OFFCURVE",
"326.189 163.137 OFFCURVE",
"300.327 163.137 CURVE SMOOTH",
"274.464 163.137 OFFCURVE",
"250.88 186.686 OFFCURVE"
);
}
);
width = 600.65322;
}
);
unicode = 0030;
},
{
glyphname = one;
lastChange = "2017-08-14 18:56:15 +0000";
layers = (
{
layerId = "A6C82697-316E-4547-A671-3FAC8B05BD53";
paths = (
{
closed = 1;
nodes = (
"321.539 0 LINE",
"321.539 581.7 LINE",
"-1.685 581.7 LINE",
"-1.685 414.161 LINE",
"189.775 414.161 LINE",
"91.409 504.796 LINE",
"91.409 0 LINE"
);
}
);
width = 359.08808;
}
);
unicode = 0031;
},
{
glyphname = two;
lastChange = "2017-08-14 18:56:15 +0000";
layers = (
{
layerId = "A6C82697-316E-4547-A671-3FAC8B05BD53";
paths = (
{
closed = 1;
nodes = (
"525.733 0 LINE",
"525.733 172.311 LINE",
"224.226 172.311 LINE",
"254.106 94.914 LINE",
"396.295 223.375 LINE SMOOTH",
"483.851 301.612 OFFCURVE",
"505.988 351.966 OFFCURVE",
"505.988 408.35 CURVE SMOOTH",
"505.988 524.887 OFFCURVE",
"401.391 596.6 OFFCURVE",
"257.859 596.6 CURVE SMOOTH",
"123.235 596.6 OFFCURVE",
"28.925 543.746 OFFCURVE",
"-7.741 452.476 CURVE",
"158.128 369.385 LINE",
"172.386 401.729 OFFCURVE",
"197.362 421.426 OFFCURVE",
"238.13 421.426 CURVE SMOOTH",
"266.805 421.426 OFFCURVE",
"278.957 406.327 OFFCURVE",
"278.957 392.249 CURVE SMOOTH",
"278.957 375.086 OFFCURVE",
"272.182 354.532 OFFCURVE",
"235.499 321.983 CURVE SMOOTH",
"30.456 136.537 LINE",
"30.456 0 LINE"
);
}
);
width = 542.67007;
}
);
unicode = 0032;
},
{
glyphname = three;
lastChange = "2017-08-14 18:56:15 +0000";
layers = (
{
layerId = "A6C82697-316E-4547-A671-3FAC8B05BD53";
paths = (
{
closed = 1;
nodes = (
"542.078 188.464 CURVE SMOOTH",
"542.078 290.619 OFFCURVE",
"461.293 364.15 OFFCURVE",
"312.966 364.15 CURVE SMOOTH",
"256.725 364.15 LINE",
"346.351 303.932 LINE",
"508.104 445.163 LINE",
"508.104 581.7 LINE",
"18.04 581.7 LINE",
"18.04 414.161 LINE",
"340.259 414.161 LINE",
"317.712 488.695 LINE",
"163.85 347.464 LINE",
"163.85 210.927 LINE",
"247.721 210.927 LINE SMOOTH",
"302.614 210.927 OFFCURVE",
"315.047 202.016 OFFCURVE",
"315.047 188.464 CURVE SMOOTH",
"315.047 169.185 OFFCURVE",
"292.75 160.274 OFFCURVE",
"252.232 160.274 CURVE SMOOTH",
"198.064 160.274 OFFCURVE",
"129.113 176.211 OFFCURVE",
"69.485 207.016 CURVE",
"-3.518 42.554 LINE",
"59.635 6.764 OFFCURVE",
"160.86 -14.9 OFFCURVE",
"256.177 -14.9 CURVE SMOOTH",
"459.32 -14.9 OFFCURVE",
"542.078 90.126 OFFCURVE"
);
}
);
width = 542.67007;
}
);
unicode = 0033;
},
{
glyphname = four;
lastChange = "2017-08-14 18:56:15 +0000";
layers = (
{
layerId = "A6C82697-316E-4547-A671-3FAC8B05BD53";
paths = (
{
closed = 1;
nodes = (
"602.719 88.86 LINE",
"602.719 261.172 LINE",
"151.788 261.172 LINE",
"254.665 230.17 LINE",
"477.501 581.7 LINE",
"242.014 581.7 LINE",
"12.272 230.17 LINE",
"12.272 88.86 LINE"
);
},
{
closed = 1;
nodes = (
"533.591 0 LINE",
"533.591 340.71 LINE",
"322.343 340.71 LINE",
"322.343 261.172 LINE",
"315.438 88.86 LINE",
"315.438 0 LINE"
);
}
);
width = 617.11469;
}
);
unicode = 0034;
},
{
glyphname = five;
lastChange = "2017-08-14 18:56:15 +0000";
layers = (
{
layerId = "A6C82697-316E-4547-A671-3FAC8B05BD53";
paths = (
{
closed = 1;
nodes = (
"530.241 194.281 CURVE SMOOTH",
"530.241 312.044 OFFCURVE",
"437.763 371.909 OFFCURVE",
"306.181 379.297 CURVE SMOOTH",
"127.003 388.718 LINE",
"247.492 291.648 LINE",
"267.097 509.568 LINE",
"142.803 414.161 LINE",
"485.409 414.161 LINE",
"485.409 581.7 LINE",
"67.406 581.7 LINE",
"34.271 218.315 LINE",
"226.42 210.804 LINE SMOOTH",
"284.718 208.064 OFFCURVE",
"303.21 202.567 OFFCURVE",
"303.21 184.737 CURVE SMOOTH",
"303.21 165.458 OFFCURVE",
"286.831 157.411 OFFCURVE",
"240.394 157.411 CURVE SMOOTH",
"192.145 157.411 OFFCURVE",
"126.859 171.439 OFFCURVE",
"67.793 198.336 CURVE",
"-5.21 33.874 LINE",
"57.381 2.946 OFFCURVE",
"158.887 -14.9 OFFCURVE",
"249.272 -14.9 CURVE SMOOTH",
"417.75 -14.9 OFFCURVE",
"530.241 63.617 OFFCURVE"
);
}
);
width = 542.67007;
}
);
unicode = 0035;
},
{
glyphname = six;
lastChange = "2017-08-14 18:56:15 +0000";
layers = (
{
layerId = "A6C82697-316E-4547-A671-3FAC8B05BD53";
paths = (
{
closed = 1;
nodes = (
"565.79 196.922 CURVE SMOOTH",
"565.79 314.496 OFFCURVE",
"470.342 388.825 OFFCURVE",
"360.777 388.825 CURVE SMOOTH",
"279.403 388.825 OFFCURVE",
"233.836 361.476 OFFCURVE",
"196.067 313.022 CURVE",
"248.211 268.042 LINE",
"250.458 280.836 OFFCURVE",
"250.88 291.936 OFFCURVE",
"250.88 306.828 CURVE SMOOTH",
"250.88 389.929 OFFCURVE",
"297.015 429.061 OFFCURVE",
"370.795 429.061 CURVE SMOOTH",
"409.019 429.061 OFFCURVE",
"441.742 421.985 OFFCURVE",
"475.867 397.614 CURVE",
"553.802 553.487 LINE",
"509.108 580.35 OFFCURVE",
"440.023 596.6 OFFCURVE",
"364.876 596.6 CURVE SMOOTH",
"161.305 596.6 OFFCURVE",
"23.849 475.176 OFFCURVE",
"23.849 269.853 CURVE SMOOTH",
"23.849 91.896 OFFCURVE",
"133.952 -14.9 OFFCURVE",
"309.345 -14.9 CURVE SMOOTH",
"456.813 -14.9 OFFCURVE",
"565.79 66.941 OFFCURVE"
);
},
{
closed = 1;
nodes = (
"257.377 186.424 CURVE SMOOTH",
"257.377 217.83 OFFCURVE",
"278.276 235.602 OFFCURVE",
"302.577 235.602 CURVE SMOOTH",
"325.614 235.602 OFFCURVE",
"347.637 216.842 OFFCURVE",
"347.637 186.424 CURVE SMOOTH",
"347.637 156.005 OFFCURVE",
"326.035 138.323 OFFCURVE",
"301.453 138.323 CURVE SMOOTH",
"279.821 138.323 OFFCURVE",
"257.377 153.413 OFFCURVE"
);
}
);
width = 591.74822;
}
);
unicode = 0036;
},
{
glyphname = seven;
lastChange = "2017-08-14 18:56:15 +0000";
layers = (
{
layerId = "A6C82697-316E-4547-A671-3FAC8B05BD53";
paths = (
{
closed = 1;
nodes = (
"347.892 0 LINE",
"551.688 445.163 LINE",
"551.688 581.7 LINE",
"21.869 581.7 LINE",
"21.869 329.44 LINE",
"211.415 329.44 LINE",
"211.415 510.523 LINE",
"121.927 409.389 LINE",
"391.177 409.389 LINE",
"330.717 503.011 LINE",
"99.581 0 LINE"
);
}
);
width = 570.17353;
}
);
unicode = 0037;
},
{
glyphname = eight;
lastChange = "2017-08-14 18:56:15 +0000";
layers = (
{
layerId = "A6C82697-316E-4547-A671-3FAC8B05BD53";
paths = (
{
closed = 1;
nodes = (
"575.26 175.439 CURVE SMOOTH",
"575.26 291.17 OFFCURVE",
"455.85 356.852 OFFCURVE",
"300.467 356.852 CURVE SMOOTH",
"145.084 356.852 OFFCURVE",
"25.394 291.17 OFFCURVE",
"25.394 175.439 CURVE SMOOTH",
"25.394 59.955 OFFCURVE",
"140.152 -14.9 OFFCURVE",
"300.467 -14.9 CURVE SMOOTH",
"460.782 -14.9 OFFCURVE",
"575.26 59.955 OFFCURVE"
);
},
{
closed = 1;
nodes = (
"252.424 183.198 CURVE SMOOTH",
"252.424 213.436 OFFCURVE",
"274.595 231.891 OFFCURVE",
"300.467 231.891 CURVE SMOOTH",
"326.339 231.891 OFFCURVE",
"348.229 213.436 OFFCURVE",
"348.229 183.198 CURVE SMOOTH",
"348.229 152.961 OFFCURVE",
"326.339 134.505 OFFCURVE",
"300.467 134.505 CURVE SMOOTH",
"274.595 134.505 OFFCURVE",
"252.424 152.961 OFFCURVE"
);
},
{
closed = 1;
nodes = (
"554.11 418.602 CURVE SMOOTH",
"554.11 526.731 OFFCURVE",
"448.935 596.6 OFFCURVE",
"300.467 596.6 CURVE SMOOTH",
"152 596.6 OFFCURVE",
"46.544 526.731 OFFCURVE",
"46.544 418.602 CURVE SMOOTH",
"46.544 310.227 OFFCURVE",
"158.195 249.654 OFFCURVE",
"300.467 249.654 CURVE SMOOTH",
"442.739 249.654 OFFCURVE",
"554.11 310.227 OFFCURVE"
);
},
{
closed = 1;
nodes = (
"271.602 408.935 CURVE SMOOTH",
"271.602 432.771 OFFCURVE",
"286.582 447.195 OFFCURVE",
"300.467 447.195 CURVE SMOOTH",
"314.352 447.195 OFFCURVE",
"329.052 432.771 OFFCURVE",
"329.052 409.058 CURVE SMOOTH",
"329.052 385.222 OFFCURVE",
"313.649 370.798 OFFCURVE",
"300.467 370.798 CURVE SMOOTH",
"287.285 370.798 OFFCURVE",
"271.602 385.222 OFFCURVE"
);
}
);
width = 600.65322;
}
);
unicode = 0038;
},
{
glyphname = zero.comp;
lastChange = "2017-08-14 18:56:15 +0000";
layers = (
{
layerId = "A6C82697-316E-4547-A671-3FAC8B05BD53";
paths = (
{
closed = 1;
nodes = (
"304.543 159.708 CURVE SMOOTH",
"304.543 256.688 OFFCURVE",
"243.36 321.786 OFFCURVE",
"152.708 321.786 CURVE SMOOTH",
"61.069 321.786 OFFCURVE",
"-1.24 256.688 OFFCURVE",
"-1.24 159.708 CURVE SMOOTH",
"-1.24 62.02 OFFCURVE",
"61.069 -4.278 OFFCURVE",
"152.708 -4.278 CURVE SMOOTH",
"243.36 -4.278 OFFCURVE",
"304.543 62.02 OFFCURVE"
);
},
{
closed = 1;
nodes = (
"130.106 159.708 CURVE SMOOTH",
"130.106 190.036 OFFCURVE",
"140.272 214.128 OFFCURVE",
"152.708 214.128 CURVE SMOOTH",
"164.017 214.128 OFFCURVE",
"175.169 190.036 OFFCURVE",
"175.169 159.708 CURVE SMOOTH",
"175.169 126.517 OFFCURVE",
"164.017 104.211 OFFCURVE",
"152.708 104.211 CURVE SMOOTH",
"140.272 104.211 OFFCURVE",
"130.106 126.517 OFFCURVE"
);
}
);
width = 304.28927;
}
);
},
{
glyphname = zero.osf;
lastChange = "2017-08-14 18:56:15 +0000";
layers = (
{
layerId = "A6C82697-316E-4547-A671-3FAC8B05BD53";
paths = (
{
closed = 1;
nodes = (
"576.805 249.3 CURVE SMOOTH",
"576.805 409.625 OFFCURVE",
"462.885 513.5 OFFCURVE",
"300.327 513.5 CURVE SMOOTH",
"137.768 513.5 OFFCURVE",
"23.849 409.625 OFFCURVE",
"23.849 249.3 CURVE SMOOTH",
"23.849 88.975 OFFCURVE",
"137.768 -14.9 OFFCURVE",
"300.327 -14.9 CURVE SMOOTH",
"462.885 -14.9 OFFCURVE",
"576.805 88.975 OFFCURVE"
);
},
{
closed = 1;
nodes = (
"245.947 249.3 CURVE SMOOTH",
"245.947 313.51 OFFCURVE",
"270.378 341.189 OFFCURVE",
"300.327 341.189 CURVE SMOOTH",
"330.275 341.189 OFFCURVE",
"354.706 313.51 OFFCURVE",
"354.706 249.3 CURVE SMOOTH",
"354.706 185.09 OFFCURVE",
"330.275 157.411 OFFCURVE",
"300.327 157.411 CURVE SMOOTH",
"270.378 157.411 OFFCURVE",
"245.947 185.09 OFFCURVE"
);
}
);
width = 600.65322;
}
);
},
{
glyphname = one.osf;
lastChange = "2017-08-14 18:56:15 +0000";
layers = (
{
layerId = "A6C82697-316E-4547-A671-3FAC8B05BD53";
paths = (
{
closed = 1;
nodes = (
"316.607 0 LINE",
"316.607 498.6 LINE",
"-1.685 498.6 LINE",
"-1.685 331.061 LINE",
"189.775 331.061 LINE",
"91.409 421.696 LINE",
"91.409 0 LINE"
);
}
);
width = 354.1559;
}
);
},
{
glyphname = two.osf;
lastChange = "2017-08-14 18:56:15 +0000";
layers = (
{
layerId = "A6C82697-316E-4547-A671-3FAC8B05BD53";
paths = (
{
closed = 1;
nodes = (
"529.679 0 LINE",
"529.679 164.676 LINE",
"222.821 164.676 LINE",
"254.952 68.561 LINE",
"404.19 178.591 LINE SMOOTH",
"477.792 232.45 OFFCURVE",
"506.409 283.421 OFFCURVE",
"506.409 343.319 CURVE SMOOTH",
"506.409 451.389 OFFCURVE",
"401.953 513.5 OFFCURVE",
"259.692 513.5 CURVE SMOOTH",
"128.167 513.5 OFFCURVE",
"33.857 466.002 OFFCURVE",
"-2.809 390.71 CURVE",
"163.06 307.62 LINE",
"176.332 332.698 OFFCURVE",
"201.448 348.824 OFFCURVE",
"237.004 348.824 CURVE SMOOTH",
"263.424 348.824 OFFCURVE",
"279.378 336.433 OFFCURVE",
"279.378 321.367 CURVE SMOOTH",
"279.378 306.911 OFFCURVE",
"270.069 294.207 OFFCURVE",
"241.562 273.505 CURVE SMOOTH",
"30.316 117.696 LINE",
"30.316 0 LINE"
);
}
);
width = 542.67007;
}
);
},
{
glyphname = zero.tf;
lastChange = "2017-08-14 18:56:15 +0000";
layers = (
{
layerId = "A6C82697-316E-4547-A671-3FAC8B05BD53";
paths = (
{
closed = 1;
nodes = (
"544.245 291.804 CURVE SMOOTH",
"544.245 483.551 OFFCURVE",
"455.843 589.212 OFFCURVE",
"296.24 589.212 CURVE SMOOTH",
"135.37 589.212 OFFCURVE",
"47.955 483.551 OFFCURVE",
"47.955 291.804 CURVE SMOOTH",
"47.955 100.181 OFFCURVE",
"135.37 -6.434 OFFCURVE",
"296.24 -6.434 CURVE SMOOTH",
"455.843 -6.434 OFFCURVE",
"544.245 100.181 OFFCURVE"
);
},
{
closed = 1;
nodes = (
"277.945 291.804 CURVE SMOOTH",
"277.945 401.045 OFFCURVE",
"275.732 430.386 OFFCURVE",
"296.24 430.386 CURVE SMOOTH",
"316.609 430.386 OFFCURVE",
"314.255 401.045 OFFCURVE",
"314.255 291.804 CURVE SMOOTH",
"314.255 182.564 OFFCURVE",
"316.609 152.392 OFFCURVE",
"296.24 152.392 CURVE SMOOTH",
"275.732 152.392 OFFCURVE",
"277.945 182.564 OFFCURVE"
);
}
);
width = 592.19999;
}
);
},
{
glyphname = one.tf;
lastChange = "2017-08-14 18:56:15 +0000";
layers = (
{
layerId = "A6C82697-316E-4547-A671-3FAC8B05BD53";
paths = (
{
closed = 1;
nodes = (
"423.24 0 LINE",
"423.24 582.778 LINE",
"87.456 582.778 LINE",
"87.456 410.59 LINE",
"295.422 410.59 LINE",
"197.055 505.874 LINE",
"197.055 0 LINE"
);
},
{
closed = 1;
nodes = (
"490.954 0 LINE",
"490.954 167.416 LINE",
"88.018 167.416 LINE",
"89.004 0 LINE"
);
}
);
width = 592.19999;
}
);
},
{
glyphname = two.tf;
lastChange = "2017-08-14 18:56:15 +0000";
layers = (
{
layerId = "A6C82697-316E-4547-A671-3FAC8B05BD53";
paths = (
{
closed = 1;
nodes = (
"529.175 0 LINE",
"529.175 167.416 LINE",
"249.205 167.416 LINE",
"278.517 100.517 LINE",
"411.554 233.256 LINE SMOOTH",
"476.839 297.827 OFFCURVE",
"527.737 362.736 OFFCURVE",
"527.737 432.639 CURVE SMOOTH",
"527.737 528.022 OFFCURVE",
"431.166 592.906 OFFCURVE",
"308.499 592.906 CURVE SMOOTH",
"211.647 592.906 OFFCURVE",
"122.403 557.971 OFFCURVE",
"32.326 500.106 CURVE",
"115.193 342.448 LINE",
"173.985 388.4 OFFCURVE",
"231.52 417.855 OFFCURVE",
"272.987 417.855 CURVE SMOOTH",
"284.885 417.855 OFFCURVE",
"290.841 412.112 OFFCURVE",
"290.841 400.189 CURVE SMOOTH",
"290.841 384.07 OFFCURVE",
"274.189 360.538 OFFCURVE",
"257.663 341.285 CURVE SMOOTH",
"60.227 135.764 LINE",
"60.227 0 LINE"
);
}
);
width = 592.19999;
}
);
},
{
glyphname = three.tf;
lastChange = "2017-08-14 18:56:15 +0000";
layers = (
{
layerId = "A6C82697-316E-4547-A671-3FAC8B05BD53";
paths = (
{
closed = 1;
nodes = (
"543.112 186.917 CURVE SMOOTH",
"543.112 272.815 OFFCURVE",
"489.793 331.232 OFFCURVE",
"416.579 351.274 CURVE SMOOTH",
"295.361 378.952 LINE",
"317.627 295.705 LINE",
"514.769 460.927 LINE",
"514.769 583.732 LINE",
"67.008 583.732 LINE",
"67.008 426.815 LINE",
"346.643 426.815 LINE",
"319.445 490.974 LINE",
"155.136 339.114 LINE",
"155.136 226.806 LINE",
"273.405 226.806 LINE SMOOTH",
"307.299 226.806 OFFCURVE",
"322 212.013 OFFCURVE",
"322 187.411 CURVE SMOOTH",
"322 160.9 OFFCURVE",
"307.018 151.438 OFFCURVE",
"272.984 151.438 CURVE SMOOTH",
"219.539 151.438 OFFCURVE",
"166.515 173.537 OFFCURVE",
"113.08 219.094 CURVE",
"33.877 72.181 LINE",
"95.628 23.054 OFFCURVE",
"195.58 -9.297 OFFCURVE",
"291.867 -9.297 CURVE SMOOTH",
"444.702 -9.297 OFFCURVE",
"543.112 71.713 OFFCURVE"
);
}
);
width = 592.19999;
}
);
},
{
glyphname = four.tf;
lastChange = "2017-08-14 18:56:15 +0000";
layers = (
{
layerId = "A6C82697-316E-4547-A671-3FAC8B05BD53";
paths = (
{
closed = 1;
nodes = (
"558.463 103.177 LINE",
"558.463 259.139 LINE",
"174.359 259.139 LINE",
"234.956 171.367 LINE",
"386.307 582.778 LINE",
"174.494 582.778 LINE",
"47.667 244.206 LINE",
"47.667 103.177 LINE"
);
},
{
closed = 1;
nodes = (
"496.541 0 LINE",
"496.541 359.387 LINE",
"291.212 359.387 LINE",
"291.212 0 LINE"
);
}
);
width = 592.19999;
}
);
},
{
glyphname = five.tf;
lastChange = "2017-08-14 18:56:15 +0000";
layers = (
{
layerId = "A6C82697-316E-4547-A671-3FAC8B05BD53";
paths = (
{
closed = 1;
nodes = (
"541.42 199.629 CURVE SMOOTH",
"541.42 307.354 OFFCURVE",
"446.253 377.068 OFFCURVE",
"299.344 377.068 CURVE SMOOTH",
"294.528 377.068 OFFCURVE",
"246.864 378.549 OFFCURVE",
"177.646 380.77 CURVE",
"291.23 285.239 LINE",
"291.23 510.646 LINE",
"192.864 415.362 LINE",
"512.659 415.362 LINE",
"512.659 582.778 LINE",
"84.915 582.778 LINE",
"84.915 222.684 LINE",
"116.086 219.969 OFFCURVE",
"231.112 218.242 OFFCURVE",
"253.967 218.242 CURVE SMOOTH",
"286.303 218.242 OFFCURVE",
"297.619 207.669 OFFCURVE",
"297.619 183.404 CURVE SMOOTH",
"297.619 161.608 OFFCURVE",
"285.317 150.483 OFFCURVE",
"255.235 150.483 CURVE SMOOTH",
"201.793 150.483 OFFCURVE",
"152.992 180.802 OFFCURVE",
"107.867 219.892 CURVE",
"27.397 70.116 LINE",
"94.93 22.684 OFFCURVE",
"193.758 -9.297 OFFCURVE",
"281.869 -9.297 CURVE SMOOTH",
"439.489 -9.297 OFFCURVE",
"541.42 73.375 OFFCURVE"
);
}
);
width = 592.19999;
}
);
},
{
glyphname = six.tf;
lastChange = "2017-08-14 18:56:15 +0000";
layers = (
{
layerId = "A6C82697-316E-4547-A671-3FAC8B05BD53";
paths = (
{
closed = 1;
nodes = (
"539.728 197.72 CURVE SMOOTH",
"539.728 312.768 OFFCURVE",
"464.999 391.532 OFFCURVE",
"353.183 391.532 CURVE SMOOTH",
"305.629 391.532 OFFCURVE",
"272.893 377.512 OFFCURVE",
"246.389 360.455 CURVE",
"249.759 409.461 OFFCURVE",
"281.654 433.249 OFFCURVE",
"343.182 433.249 CURVE SMOOTH",
"388.444 433.249 OFFCURVE",
"424.552 419.953 OFFCURVE",
"453.747 394.529 CURVE",
"535.203 539.286 LINE",
"485.289 572.222 OFFCURVE",
"405.214 592.075 OFFCURVE",
"330.639 592.075 CURVE SMOOTH",
"157.226 592.075 OFFCURVE",
"42.608 471.827 OFFCURVE",
"42.608 285.436 CURVE SMOOTH",
"42.608 107.141 OFFCURVE",
"143.131 -9.297 OFFCURVE",
"309.355 -9.297 CURVE SMOOTH",
"446.818 -9.297 OFFCURVE",
"539.728 71.836 OFFCURVE"
);
},
{
closed = 1;
nodes = (
"263.73 198.461 CURVE",
"263.73 228.698 OFFCURVE",
"275.468 241.296 OFFCURVE",
"301.888 241.296 CURVE SMOOTH",
"329.004 241.296 OFFCURVE",
"340.317 226.568 OFFCURVE",
"340.317 198.428 CURVE SMOOTH",
"340.317 169.367 OFFCURVE",
"329 156.21 OFFCURVE",
"302.166 156.21 CURVE SMOOTH",
"277.43 156.21 OFFCURVE",
"263.73 166.339 OFFCURVE"
);
}
);
width = 592.19999;
}
);
},
{
glyphname = seven.tf;
lastChange = "2017-08-14 18:56:15 +0000";
layers = (
{
layerId = "A6C82697-316E-4547-A671-3FAC8B05BD53";
paths = (
{
closed = 1;
nodes = (
"359.191 0 LINE",
"548.893 438.885 LINE",
"548.893 582.778 LINE",
"46.982 582.778 LINE",
"46.982 335.652 LINE",
"245.406 335.652 LINE",
"245.406 511.601 LINE",
"147.04 415.362 LINE",
"398.246 415.362 LINE",
"339.762 504.089 LINE",
"120.604 0 LINE"
);
}
);
width = 592.19999;
}
);
},
{
glyphname = eight.tf;
lastChange = "2017-08-14 18:56:15 +0000";
layers = (
{
layerId = "A6C82697-316E-4547-A671-3FAC8B05BD53";
paths = (
{
closed = 1;
nodes = (
"550.859 164.908 CURVE SMOOTH",
"550.859 222.856 OFFCURVE",
"518.136 281.059 OFFCURVE",
"468.342 311.502 CURVE",
"499.103 338.957 OFFCURVE",
"518.996 385.033 OFFCURVE",
"518.996 425.497 CURVE SMOOTH",
"518.996 526.114 OFFCURVE",
"430.6 592.075 OFFCURVE",
"294.127 592.075 CURVE SMOOTH",
"160.613 592.075 OFFCURVE",
"72.358 528.977 OFFCURVE",
"72.358 432.178 CURVE SMOOTH",
"72.358 391.713 OFFCURVE",
"97.183 342.775 OFFCURVE",
"133.863 311.502 CURVE",
"78.15 281.059 OFFCURVE",
"40.495 220.948 OFFCURVE",
"40.495 161.091 CURVE SMOOTH",
"40.495 59.124 OFFCURVE",
"141.861 -9.297 OFFCURVE",
"295.114 -9.297 CURVE SMOOTH",
"449.493 -9.297 OFFCURVE",
"550.859 60.079 OFFCURVE"
);
},
{
closed = 1;
nodes = (
"251.743 183.749 CURVE SMOOTH",
"251.743 212.202 OFFCURVE",
"265.312 226.255 OFFCURVE",
"296.24 226.255 CURVE SMOOTH",
"325.901 226.255 OFFCURVE",
"340.598 212.325 OFFCURVE",
"340.598 183.873 CURVE SMOOTH",
"340.598 158.564 OFFCURVE",
"326.042 145.711 OFFCURVE",
"295.114 145.711 CURVE SMOOTH",
"265.453 145.711 OFFCURVE",
"251.743 158.44 OFFCURVE"
);
},
{
closed = 1;
nodes = (
"258.945 414.291 CURVE SMOOTH",
"258.945 439.205 OFFCURVE",
"270.395 451.383 OFFCURVE",
"295.114 451.383 CURVE SMOOTH",
"320.818 451.383 OFFCURVE",
"332.409 439.205 OFFCURVE",
"332.409 414.291 CURVE SMOOTH",
"332.409 391.409 OFFCURVE",
"320.818 381.264 OFFCURVE",
"295.114 381.264 CURVE SMOOTH",
"270.395 381.264 OFFCURVE",
"258.945 391.409 OFFCURVE"
);
}
);
width = 592.19999;
}
);
},
{
glyphname = nine.tf;
lastChange = "2017-08-14 18:56:15 +0000";
layers = (
{
layerId = "A6C82697-316E-4547-A671-3FAC8B05BD53";
paths = (
{
closed = 1;
nodes = (
"550.996 298.049 CURVE SMOOTH",
"550.996 476.468 OFFCURVE",
"450.333 592.075 OFFCURVE",
"284.814 592.075 CURVE SMOOTH",
"146.224 592.075 OFFCURVE",
"54.161 511.773 OFFCURVE",
"54.161 385.765 CURVE SMOOTH",
"54.161 270.84 OFFCURVE",
"128.044 191.122 OFFCURVE",
"240 191.122 CURVE SMOOTH",
"287.835 191.122 OFFCURVE",
"320.712 206.097 OFFCURVE",
"347.215 223.031 CURVE",
"343.845 174.148 OFFCURVE",
"312.937 150.483 OFFCURVE",
"249.155 150.483 CURVE SMOOTH",
"204.739 150.483 OFFCURVE",
"168.491 162.825 OFFCURVE",
"139.155 189.203 CURVE",
"57.699 44.446 LINE",
"108.74 11.511 OFFCURVE",
"188.956 -9.297 OFFCURVE",
"261.698 -9.297 CURVE SMOOTH",
"437.225 -9.297 OFFCURVE",
"550.996 111.782 OFFCURVE"
);
},
{
closed = 1;
nodes = (
"253.572 385.058 CURVE SMOOTH",
"253.572 414.242 OFFCURVE",
"264.042 427.522 OFFCURVE",
"291.017 427.522 CURVE SMOOTH",
"316.174 427.522 OFFCURVE",
"329.874 417.27 OFFCURVE",
"329.874 385.025 CURVE",
"329.874 354.911 OFFCURVE",
"317.996 342.313 OFFCURVE",
"291.295 342.313 CURVE SMOOTH",
"264.038 342.313 OFFCURVE",
"253.572 357.041 OFFCURVE"
);
}
);
width = 592.19999;
}
);
},
{
glyphname = zero.tosf;
lastChange = "2017-08-14 18:56:15 +0000";
layers = (
{
layerId = "A6C82697-316E-4547-A671-3FAC8B05BD53";
paths = (
{
closed = 1;
nodes = (
"544.245 250.131 CURVE SMOOTH",
"544.245 405.223 OFFCURVE",
"448.366 505.988 OFFCURVE",
"297.086 505.988 CURVE SMOOTH",
"145.806 505.988 OFFCURVE",
"48.801 405.223 OFFCURVE",
"48.801 250.131 CURVE SMOOTH",
"48.801 95.162 OFFCURVE",
"145.806 -5.726 OFFCURVE",
"297.086 -5.726 CURVE SMOOTH",
"448.366 -5.726 OFFCURVE",
"544.245 95.162 OFFCURVE"
);
},
{
closed = 1;
nodes = (
"253.143 250.131 CURVE SMOOTH",
"253.143 323.671 OFFCURVE",
"268.412 363.387 OFFCURVE",
"297.086 363.387 CURVE SMOOTH",
"325.62 363.387 OFFCURVE",
"339.902 323.671 OFFCURVE",
"339.902 250.131 CURVE SMOOTH",
"339.902 176.714 OFFCURVE",
"325.62 135.92 OFFCURVE",
"297.086 135.92 CURVE SMOOTH",
"268.412 135.92 OFFCURVE",
"253.143 176.714 OFFCURVE"
);
}
);
width = 592.19999;
}
);
},
{
glyphname = one.tosf;
lastChange = "2017-08-14 18:56:15 +0000";
layers = (
{
layerId = "A6C82697-316E-4547-A671-3FAC8B05BD53";
paths = (
{
closed = 1;
nodes = (
"433.105 0 LINE",
"433.105 499.678 LINE",
"97.32 499.678 LINE",
"97.32 327.49 LINE",
"305.286 327.49 LINE",
"206.92 422.774 LINE",
"206.92 0 LINE"
);
},
{
closed = 1;
nodes = (
"500.818 0 LINE",
"500.818 167.416 LINE",
"97.882 167.416 LINE",
"98.869 0 LINE"
);
}
);
width = 592.19999;
}
);
},
{
glyphname = two.tosf;
lastChange = "2017-08-14 18:56:15 +0000";
layers = (
{
layerId = "A6C82697-316E-4547-A671-3FAC8B05BD53";
paths = (
{
closed = 1;
nodes = (
"516.046 0 LINE",
"516.046 164.553 LINE",
"258.507 164.553 LINE",
"274.996 112.801 LINE",
"407.454 194.323 LINE SMOOTH",
"468.931 250 OFFCURVE",
"516.585 303.735 OFFCURVE",
"516.585 366.99 CURVE SMOOTH",
"516.585 450.616 OFFCURVE",
"424.809 507.897 OFFCURVE",
"307.221 507.897 CURVE SMOOTH",
"212.065 507.897 OFFCURVE",
"127.616 477.117 OFFCURVE",
"39.796 425.069 CURVE",
"121.677 267.411 LINE",
"179.479 306.592 OFFCURVE",
"232.078 332.723 OFFCURVE",
"270.583 332.723 CURVE SMOOTH",
"277.542 332.723 OFFCURVE",
"279.83 333.751 OFFCURVE",
"279.83 333.585 CURVE SMOOTH",
"279.83 325.193 OFFCURVE",
"266.28 311.756 OFFCURVE",
"253.563 300.566 CURVE SMOOTH",
"66.57 134.102 LINE",
"67.556 0 LINE"
);
}
);
width = 592.19999;
}
);
},
{
glyphname = three.tosf;
lastChange = "2017-08-14 18:56:15 +0000";
layers = (
{
layerId = "A6C82697-316E-4547-A671-3FAC8B05BD53";
paths = (
{
closed = 1;
nodes = (
"513.053 103.817 CURVE SMOOTH",
"513.053 189.715 OFFCURVE",
"459.735 248.132 OFFCURVE",
"386.52 268.174 CURVE SMOOTH",
"265.302 295.852 LINE",
"287.569 212.605 LINE",
"484.711 377.827 LINE",
"484.711 500.632 LINE",
"36.95 500.632 LINE",
"36.95 343.715 LINE",
"316.585 343.715 LINE",
"289.386 407.874 LINE",
"125.078 256.014 LINE",
"125.078 143.706 LINE",
"243.347 143.706 LINE SMOOTH",
"277.241 143.706 OFFCURVE",
"291.941 128.913 OFFCURVE",
"291.941 104.311 CURVE SMOOTH",
"291.941 77.8 OFFCURVE",
"276.96 68.338 OFFCURVE",
"242.926 68.338 CURVE SMOOTH",
"189.48 68.338 OFFCURVE",
"136.456 90.437 OFFCURVE",
"83.021 135.994 CURVE",
"3.819 -10.919 LINE",
"65.57 -60.046 OFFCURVE",
"165.522 -92.397 OFFCURVE",
"261.808 -92.397 CURVE SMOOTH",
"414.643 -92.397 OFFCURVE",
"513.053 -11.387 OFFCURVE"
);
}
);
width = 592.19999;
}
);
},
{
glyphname = four.tosf;
lastChange = "2017-08-14 18:56:15 +0000";
layers = (
{
layerId = "A6C82697-316E-4547-A671-3FAC8B05BD53";
paths = (
{
closed = 1;
nodes = (
"520.677 20.077 LINE",
"520.677 176.039 LINE",
"136.573 176.039 LINE",
"197.17 88.267 LINE",
"348.522 499.678 LINE",
"136.709 499.678 LINE",
"9.881 161.106 LINE",
"9.881 20.077 LINE"
);
},
{
closed = 1;
nodes = (
"458.755 -83.1 LINE",
"458.755 276.287 LINE",
"253.426 276.287 LINE",
"253.426 -83.1 LINE"
);
}
);
width = 592.19999;
}
);
},
{
glyphname = five.tosf;
lastChange = "2017-08-14 18:56:15 +0000";
layers = (
{
layerId = "A6C82697-316E-4547-A671-3FAC8B05BD53";
paths = (
{
closed = 1;
nodes = (
"518.564 116.529 CURVE SMOOTH",
"518.564 224.254 OFFCURVE",
"423.398 293.968 OFFCURVE",
"276.488 293.968 CURVE SMOOTH",
"271.673 293.968 OFFCURVE",
"224.009 295.449 OFFCURVE",
"154.791 297.67 CURVE",
"268.375 202.139 LINE",
"268.375 427.546 LINE",
"170.009 332.262 LINE",
"489.804 332.262 LINE",
"489.804 499.678 LINE",
"62.059 499.678 LINE",
"62.059 139.584 LINE",
"93.231 136.869 OFFCURVE",
"208.256 135.142 OFFCURVE",
"231.112 135.142 CURVE SMOOTH",
"263.448 135.142 OFFCURVE",
"274.764 124.569 OFFCURVE",
"274.764 100.304 CURVE SMOOTH",
"274.764 78.508 OFFCURVE",
"262.461 67.383 OFFCURVE",
"232.379 67.383 CURVE SMOOTH",
"178.937 67.383 OFFCURVE",
"130.137 97.702 OFFCURVE",
"85.011 136.792 CURVE",
"4.541 -12.984 LINE",
"72.074 -60.416 OFFCURVE",
"170.902 -92.397 OFFCURVE",
"259.013 -92.397 CURVE SMOOTH",
"416.633 -92.397 OFFCURVE",
"518.564 -9.725 OFFCURVE"
);
}
);
width = 592.19999;
}
);
},
{
glyphname = six.tosf;
lastChange = "2017-08-14 18:56:15 +0000";
layers = (
{
layerId = "A6C82697-316E-4547-A671-3FAC8B05BD53";
paths = (
{
closed = 1;
nodes = (
"510.97 197.72 CURVE SMOOTH",
"510.97 312.768 OFFCURVE",
"436.242 391.532 OFFCURVE",
"324.426 391.532 CURVE SMOOTH",
"276.872 391.532 OFFCURVE",
"244.135 377.512 OFFCURVE",
"217.632 360.455 CURVE",
"221.002 409.461 OFFCURVE",
"252.896 433.249 OFFCURVE",
"314.424 433.249 CURVE SMOOTH",
"359.687 433.249 OFFCURVE",
"395.794 419.953 OFFCURVE",
"424.99 394.529 CURVE",
"506.446 539.286 LINE",
"456.532 572.222 OFFCURVE",
"376.456 592.075 OFFCURVE",
"301.882 592.075 CURVE SMOOTH",
"128.468 592.075 OFFCURVE",
"13.851 471.827 OFFCURVE",
"13.851 285.436 CURVE SMOOTH",
"13.851 107.141 OFFCURVE",
"114.374 -9.297 OFFCURVE",
"280.598 -9.297 CURVE SMOOTH",
"418.061 -9.297 OFFCURVE",
"510.97 71.836 OFFCURVE"
);
},
{
closed = 1;
nodes = (
"234.973 198.461 CURVE",
"234.973 228.698 OFFCURVE",
"246.711 241.296 OFFCURVE",
"273.131 241.296 CURVE SMOOTH",
"300.247 241.296 OFFCURVE",
"311.56 226.568 OFFCURVE",
"311.56 198.428 CURVE SMOOTH",
"311.56 169.367 OFFCURVE",
"300.244 156.21 OFFCURVE",
"273.409 156.21 CURVE SMOOTH",
"248.673 156.21 OFFCURVE",
"234.973 166.339 OFFCURVE"
);
}
);
width = 592.19999;
}
);
},
{
glyphname = seven.tosf;
lastChange = "2017-08-14 18:56:15 +0000";
layers = (
{
layerId = "A6C82697-316E-4547-A671-3FAC8B05BD53";
paths = (
{
closed = 1;
nodes = (
"323.077 -83.1 LINE",
"512.779 355.785 LINE",
"512.779 499.678 LINE",
"10.868 499.678 LINE",
"10.868 252.552 LINE",
"209.292 252.552 LINE",
"209.292 428.501 LINE",
"110.926 332.262 LINE",
"362.132 332.262 LINE",
"303.648 420.989 LINE",
"84.49 -83.1 LINE"
);
}
);
width = 592.19999;
}
);
},
{
glyphname = eight.tosf;
lastChange = "2017-08-14 18:56:15 +0000";
layers = (
{
layerId = "A6C82697-316E-4547-A671-3FAC8B05BD53";
paths = (
{
closed = 1;
nodes = (
"519 164.908 CURVE SMOOTH",
"519 222.856 OFFCURVE",
"486.276 281.059 OFFCURVE",
"436.482 311.502 CURVE",
"467.242 338.957 OFFCURVE",
"487.135 385.033 OFFCURVE",
"487.135 425.497 CURVE SMOOTH",
"487.135 526.114 OFFCURVE",
"398.74 592.075 OFFCURVE",
"262.267 592.075 CURVE SMOOTH",
"128.753 592.075 OFFCURVE",
"40.498 528.977 OFFCURVE",
"40.498 432.178 CURVE SMOOTH",
"40.498 391.713 OFFCURVE",
"65.323 342.775 OFFCURVE",
"102.002 311.502 CURVE",
"46.29 281.059 OFFCURVE",
"8.634 220.948 OFFCURVE",
"8.634 161.091 CURVE SMOOTH",
"8.634 59.124 OFFCURVE",
"110 -9.297 OFFCURVE",
"263.253 -9.297 CURVE SMOOTH",
"417.633 -9.297 OFFCURVE",
"519 60.079 OFFCURVE"
);
},
{
closed = 1;
nodes = (
"219.882 183.749 CURVE SMOOTH",
"219.882 212.202 OFFCURVE",
"233.452 226.255 OFFCURVE",
"264.38 226.255 CURVE SMOOTH",
"294.041 226.255 OFFCURVE",
"308.738 212.325 OFFCURVE",
"308.738 183.873 CURVE SMOOTH",
"308.738 158.564 OFFCURVE",
"294.181 145.711 OFFCURVE",
"263.253 145.711 CURVE SMOOTH",
"233.592 145.711 OFFCURVE",
"219.882 158.44 OFFCURVE"
);
},
{
closed = 1;
nodes = (
"227.085 414.291 CURVE SMOOTH",
"227.085 439.205 OFFCURVE",
"238.535 451.383 OFFCURVE",
"263.253 451.383 CURVE SMOOTH",
"288.958 451.383 OFFCURVE",
"300.548 439.205 OFFCURVE",
"300.548 414.291 CURVE SMOOTH",
"300.548 391.409 OFFCURVE",
"288.958 381.264 OFFCURVE",
"263.253 381.264 CURVE SMOOTH",
"238.535 381.264 OFFCURVE",
"227.085 391.409 OFFCURVE"
);
}
);
width = 592.19999;
}
);
},
{
glyphname = nine.tosf;
lastChange = "2017-08-14 18:56:15 +0000";
layers = (
{
layerId = "A6C82697-316E-4547-A671-3FAC8B05BD53";
paths = (
{
closed = 1;
nodes = (
"513.779 214.949 CURVE SMOOTH",
"513.779 393.368 OFFCURVE",
"413.115 508.975 OFFCURVE",
"247.597 508.975 CURVE SMOOTH",
"109.007 508.975 OFFCURVE",
"16.944 428.673 OFFCURVE",
"16.944 302.665 CURVE SMOOTH",
"16.944 187.74 OFFCURVE",
"90.827 108.022 OFFCURVE",
"202.783 108.022 CURVE SMOOTH",
"250.617 108.022 OFFCURVE",
"283.495 122.997 OFFCURVE",
"309.998 139.931 CURVE",
"306.628 91.048 OFFCURVE",
"275.72 67.383 OFFCURVE",
"211.938 67.383 CURVE SMOOTH",
"167.522 67.383 OFFCURVE",
"131.274 79.725 OFFCURVE",
"101.938 106.103 CURVE",
"20.482 -38.654 LINE",
"71.523 -71.589 OFFCURVE",
"151.739 -92.397 OFFCURVE",
"224.481 -92.397 CURVE SMOOTH",
"400.007 -92.397 OFFCURVE",
"513.779 28.682 OFFCURVE"
);
},
{
closed = 1;
nodes = (
"216.354 301.958 CURVE SMOOTH",
"216.354 331.142 OFFCURVE",
"226.824 344.422 OFFCURVE",
"253.8 344.422 CURVE SMOOTH",
"278.957 344.422 OFFCURVE",
"292.657 334.17 OFFCURVE",
"292.657 301.925 CURVE",
"292.657 271.811 OFFCURVE",
"280.779 259.213 OFFCURVE",
"254.077 259.213 CURVE SMOOTH",
"226.821 259.213 OFFCURVE",
"216.354 273.941 OFFCURVE"
);
}
);
width = 592.19999;
}
);
},
{
glyphname = zero.dnom;
lastChange = "2017-08-14 18:56:15 +0000";
layers = (
{
layerId = "A6C82697-316E-4547-A671-3FAC8B05BD53";
paths = (
{
closed = 1;
nodes = (
"359.958 176.328 CURVE SMOOTH",
"359.958 283.988 OFFCURVE",
"289.609 354.903 OFFCURVE",
"182.459 354.903 CURVE SMOOTH",
"75.167 354.903 OFFCURVE",
"3.692 283.988 OFFCURVE",
"3.692 176.328 CURVE SMOOTH",
"3.692 67.837 OFFCURVE",
"75.167 -4.155 OFFCURVE",
"182.459 -4.155 CURVE SMOOTH",
"289.609 -4.155 OFFCURVE",
"359.958 67.837 OFFCURVE"
);
},
{
closed = 1;
nodes = (
"139.83 176.328 CURVE SMOOTH",
"139.83 216.505 OFFCURVE",
"157.188 244.504 OFFCURVE",
"182.459 244.504 CURVE SMOOTH",
"207.588 244.504 OFFCURVE",
"224.946 216.505 OFFCURVE",
"224.946 176.328 CURVE SMOOTH",
"224.946 135.197 OFFCURVE",
"207.588 107.198 OFFCURVE",
"182.459 107.198 CURVE SMOOTH",
"157.188 107.198 OFFCURVE",
"139.83 135.197 OFFCURVE"
);
}
);
width = 363.64971;
}
);
},
{
glyphname = one.dnom;
lastChange = "2017-08-14 18:56:15 +0000";
layers = (
{
layerId = "A6C82697-316E-4547-A671-3FAC8B05BD53";
paths = (
{
closed = 1;
nodes = (
"211.014 0 LINE",
"211.014 351.702 LINE",
"-2.391 351.702 LINE",
"-2.391 240.473 LINE",
"60.08 240.473 LINE",
"60.08 0 LINE"
);
}
);
width = 245.29939;
}
);
},
{
glyphname = two.dnom;
lastChange = "2017-08-14 18:56:15 +0000";
layers = (
{
layerId = "A6C82697-316E-4547-A671-3FAC8B05BD53";
paths = (
{
closed = 1;
nodes = (
"324.118 0 LINE",
"324.118 107.412 LINE",
"212.81 107.412 LINE",
"248.817 138.958 LINE SMOOTH",
"291.679 178.139 OFFCURVE",
"324.385 216.118 OFFCURVE",
"324.385 259.272 CURVE SMOOTH",
"324.385 317.598 OFFCURVE",
"261.795 356.811 OFFCURVE",
"181.294 356.811 CURVE SMOOTH",
"117.718 356.811 OFFCURVE",
"59.494 335.543 OFFCURVE",
"0.291 299.777 CURVE",
"55.819 198.552 LINE",
"93.742 226.099 OFFCURVE",
"130.825 243.673 OFFCURVE",
"156.634 243.673 CURVE SMOOTH",
"162.863 243.673 OFFCURVE",
"165.559 242.727 OFFCURVE",
"165.559 238.399 CURVE SMOOTH",
"165.559 230.31 OFFCURVE",
"155.26 216.989 OFFCURVE",
"146.221 207.149 CURVE SMOOTH",
"18.893 86.168 LINE",
"18.893 0 LINE"
);
}
);
width = 345.26782;
}
);
},
